  0
SECTION
  2
HEADER
  9
$ACADVER
  1
AC1032
  9
$ACADMAINTVER
 90
4
  9
$DWGCODEPAGE
  3
ANSI_1252
  9
$LASTSAVEDBY
  1
ezdxf
  9
$REQUIREDVERSIONS
160
0
  9
$INSBASE
 10
0.0
 20
0.0
 30
0.0
  9
$EXTMIN
 10
1e+20
 20
1e+20
 30
1e+20
  9
$EXTMAX
 10
-1e+20
 20
-1e+20
 30
-1e+20
  9
$LIMMIN
 10
0.0
 20
0.0
  9
$LIMMAX
 10
420.0
 20
297.0
  9
$ORTHOMODE
 70
0
  9
$REGENMODE
 70
1
  9
$FILLMODE
 70
1
  9
$QTEXTMODE
 70
0
  9
$MIRRTEXT
 70
1
  9
$LTSCALE
 40
0.5
  9
$ATTMODE
 70
1
  9
$TEXTSIZE
 40
2.5
  9
$TRACEWID
 40
1.0
  9
$TEXTSTYLE
  7
OpenSans
  9
$CLAYER
  8
0
  9
$CELTYPE
  6
ByLayer
  9
$CECOLOR
 62
256
  9
$CELTSCALE
 40
1.0
  9
$DISPSILH
 70
0
  9
$DIMSCALE
 40
1.0
  9
$DIMASZ
 40
0.175
  9
$DIMEXO
 40
0.125
  9
$DIMDLI
 40
3.75
  9
$DIMRND
 40
0.0
  9
$DIMDLE
 40
0.0
  9
$DIMEXE
 40
0.375
  9
$DIMTP
 40
0.0
  9
$DIMTM
 40
0.0
  9
$DIMTXT
 40
0.25
  9
$DIMCEN
 40
2.5
  9
$DIMTSZ
 40
0.0
  9
$DIMTOL
 70
0
  9
$DIMLIM
 70
0
  9
$DIMTIH
 70
0
  9
$DIMTOH
 70
0
  9
$DIMSE1
 70
0
  9
$DIMSE2
 70
0
  9
$DIMTAD
 70
1
  9
$DIMZIN
 70
12
  9
$DIMBLK
  1
ARCHTICK
  9
$DIMASO
 70
1
  9
$DIMSHO
 70
1
  9
$DIMPOST
  1

  9
$DIMAPOST
  1

  9
$DIMALT
 70
0
  9
$DIMALTD
 70
3
  9
$DIMALTF
 40
0.03937007874
  9
$DIMLFAC
 40
100.0
  9
$DIMTOFL
 70
1
  9
$DIMTVP
 40
0.0
  9
$DIMTIX
 70
0
  9
$DIMSOXD
 70
0
  9
$DIMSAH
 70
0
  9
$DIMBLK1
  1

  9
$DIMBLK2
  1

  9
$DIMSTYLE
  2
EZDXF
  9
$DIMCLRD
 70
0
  9
$DIMCLRE
 70
0
  9
$DIMCLRT
 70
0
  9
$DIMTFAC
 40
0.5
  9
$DIMGAP
 40
0.1
  9
$DIMJUST
 70
0
  9
$DIMSD1
 70
0
  9
$DIMSD2
 70
0
  9
$DIMTOLJ
 70
0
  9
$DIMTZIN
 70
8
  9
$DIMALTZ
 70
0
  9
$DIMALTTZ
 70
0
  9
$DIMUPT
 70
1
  9
$DIMDEC
 70
2
  9
$DIMTDEC
 70
2
  9
$DIMALTU
 70
2
  9
$DIMALTTD
 70
3
  9
$DIMTXSTY
  7
OpenSansCondensed-Light
  9
$DIMAUNIT
 70
0
  9
$DIMADEC
 70
2
  9
$DIMALTRND
 40
0.0
  9
$DIMAZIN
 70
3
  9
$DIMDSEP
 70
46
  9
$DIMATFIT
 70
3
  9
$DIMFRAC
 70
0
  9
$DIMLDRBLK
  1

  9
$DIMLUNIT
 70
2
  9
$DIMLWD
 70
-2
  9
$DIMLWE
 70
-2
  9
$DIMTMOVE
 70
2
  9
$DIMFXL
 40
1.0
  9
$DIMFXLON
 70
0
  9
$DIMJOGANG
 40
0.785398163397
  9
$DIMTFILL
 70
0
  9
$DIMTFILLCLR
 70
0
  9
$DIMARCSYM
 70
0
  9
$DIMLTYPE
  6

  9
$DIMLTEX1
  6

  9
$DIMLTEX2
  6

  9
$DIMTXTDIRECTION
 70
0
  9
$LUNITS
 70
2
  9
$LUPREC
 70
4
  9
$SKETCHINC
 40
1.0
  9
$FILLETRAD
 40
10.0
  9
$AUNITS
 70
0
  9
$AUPREC
 70
2
  9
$MENU
  1
.
  9
$ELEVATION
 40
0.0
  9
$PELEVATION
 40
0.0
  9
$THICKNESS
 40
0.0
  9
$LIMCHECK
 70
0
  9
$CHAMFERA
 40
0.0
  9
$CHAMFERB
 40
0.0
  9
$CHAMFERC
 40
0.0
  9
$CHAMFERD
 40
0.0
  9
$SKPOLY
 70
0
  9
$TDCREATE
 40
2461318.8746064813
  9
$TDUCREATE
 40
2458532.153996898
  9
$TDUPDATE
 40
2461318.8746064813
  9
$TDUUPDATE
 40
2458532.1544311
  9
$TDINDWG
 40
0.0
  9
$TDUSRTIMER
 40
0.0
  9
$USRTIMER
 70
1
  9
$ANGBASE
 50
0.0
  9
$ANGDIR
 70
0
  9
$PDMODE
 70
0
  9
$PDSIZE
 40
0.0
  9
$PLINEWID
 40
0.0
  9
$SPLFRAME
 70
0
  9
$SPLINETYPE
 70
6
  9
$SPLINESEGS
 70
8
  9
$HANDSEED
  5
4BA
  9
$SURFTAB1
 70
6
  9
$SURFTAB2
 70
6
  9
$SURFTYPE
 70
6
  9
$SURFU
 70
6
  9
$SURFV
 70
6
  9
$UCSBASE
  2

  9
$UCSNAME
  2

  9
$UCSORG
 10
0.0
 20
0.0
 30
0.0
  9
$UCSXDIR
 10
1.0
 20
0.0
 30
0.0
  9
$UCSYDIR
 10
0.0
 20
1.0
 30
0.0
  9
$UCSORTHOREF
  2

  9
$UCSORTHOVIEW
 70
0
  9
$UCSORGTOP
 10
0.0
 20
0.0
 30
0.0
  9
$UCSORGBOTTOM
 10
0.0
 20
0.0
 30
0.0
  9
$UCSORGLEFT
 10
0.0
 20
0.0
 30
0.0
  9
$UCSORGRIGHT
 10
0.0
 20
0.0
 30
0.0
  9
$UCSORGFRONT
 10
0.0
 20
0.0
 30
0.0
  9
$UCSORGBACK
 10
0.0
 20
0.0
 30
0.0
  9
$PUCSBASE
  2

  9
$PUCSNAME
  2

  9
$PUCSORG
 10
0.0
 20
0.0
 30
0.0
  9
$PUCSXDIR
 10
1.0
 20
0.0
 30
0.0
  9
$PUCSYDIR
 10
0.0
 20
1.0
 30
0.0
  9
$PUCSORTHOREF
  2

  9
$PUCSORTHOVIEW
 70
0
  9
$PUCSORGTOP
 10
0.0
 20
0.0
 30
0.0
  9
$PUCSORGBOTTOM
 10
0.0
 20
0.0
 30
0.0
  9
$PUCSORGLEFT
 10
0.0
 20
0.0
 30
0.0
  9
$PUCSORGRIGHT
 10
0.0
 20
0.0
 30
0.0
  9
$PUCSORGFRONT
 10
0.0
 20
0.0
 30
0.0
  9
$PUCSORGBACK
 10
0.0
 20
0.0
 30
0.0
  9
$USERI1
 70
0
  9
$USERI2
 70
0
  9
$USERI3
 70
0
  9
$USERI4
 70
0
  9
$USERI5
 70
0
  9
$USERR1
 40
0.0
  9
$USERR2
 40
0.0
  9
$USERR3
 40
0.0
  9
$USERR4
 40
0.0
  9
$USERR5
 40
0.0
  9
$WORLDVIEW
 70
1
  9
$SHADEDGE
 70
3
  9
$SHADEDIF
 70
70
  9
$TILEMODE
 70
1
  9
$MAXACTVP
 70
64
  9
$PINSBASE
 10
0.0
 20
0.0
 30
0.0
  9
$PLIMCHECK
 70
0
  9
$PEXTMIN
 10
1e+20
 20
1e+20
 30
1e+20
  9
$PEXTMAX
 10
-1e+20
 20
-1e+20
 30
-1e+20
  9
$PLIMMIN
 10
-0.0
 20
-0.0
  9
$PLIMMAX
 10
594.0
 20
420.0
  9
$UNITMODE
 70
0
  9
$VISRETAIN
 70
1
  9
$PLINEGEN
 70
0
  9
$PSLTSCALE
 70
1
  9
$TREEDEPTH
 70
3020
  9
$CMLSTYLE
  2
Standard
  9
$CMLJUST
 70
0
  9
$CMLSCALE
 40
20.0
  9
$PROXYGRAPHICS
 70
1
  9
$MEASUREMENT
 70
1
  9
$CELWEIGHT
370
-1
  9
$ENDCAPS
280
0
  9
$JOINSTYLE
280
0
  9
$LWDISPLAY
290
0
  9
$INSUNITS
 70
6
  9
$HYPERLINKBASE
  1

  9
$STYLESHEET
  1

  9
$XEDIT
290
1
  9
$CEPSNTYPE
380
0
  9
$PSTYLEMODE
290
1
  9
$FINGERPRINTGUID
  2
{2032E7BB-5773-40A6-98E9-9FED6E98FC1C}
  9
$VERSIONGUID
  2
{102A5576-30EF-4DAF-804C-1CEFEF3B8706}
  9
$EXTNAMES
290
1
  9
$PSVPSCALE
 40
0.0
  9
$OLESTARTUP
290
0
  9
$SORTENTS
280
127
  9
$INDEXCTL
280
0
  9
$HIDETEXT
280
1
  9
$XCLIPFRAME
280
1
  9
$HALOGAP
280
0
  9
$OBSCOLOR
 70
257
  9
$OBSLTYPE
280
0
  9
$INTERSECTIONDISPLAY
280
0
  9
$INTERSECTIONCOLOR
 70
257
  9
$DIMASSOC
280
2
  9
$PROJECTNAME
  1

  9
$CAMERADISPLAY
290
0
  9
$LENSLENGTH
 40
50.0
  9
$CAMERAHEIGHT
 40
0.0
  9
$STEPSPERSEC
 40
24.0
  9
$STEPSIZE
 40
100.0
  9
$3DDWFPREC
 40
2.0
  9
$PSOLWIDTH
 40
0.005
  9
$PSOLHEIGHT
 40
0.08
  9
$LOFTANG1
 40
1.570796326795
  9
$LOFTANG2
 40
1.570796326795
  9
$LOFTMAG1
 40
0.0
  9
$LOFTMAG2
 40
0.0
  9
$LOFTPARAM
 70
7
  9
$LOFTNORMALS
280
1
  9
$LATITUDE
 40
37.795
  9
$LONGITUDE
 40
-122.394
  9
$NORTHDIRECTION
 40
0.0
  9
$TIMEZONE
 70
-8000
  9
$LIGHTGLYPHDISPLAY
280
1
  9
$TILEMODELIGHTSYNCH
280
1
  9
$CMATERIAL
347
20
  9
$SOLIDHIST
280
0
  9
$SHOWHIST
280
1
  9
$DWFFRAME
280
2
  9
$DGNFRAME
280
2
  9
$REALWORLDSCALE
290
1
  9
$INTERFERECOLOR
 62
256
  9
$CSHADOW
280
0
  9
$SHADOWPLANELOCATION
 40
0.0
  0
ENDSEC
  0
SECTION
  2
CLASSES
  0
CLASS
  1
ACDBDICTIONARYWDFLT
  2
AcDbDictionaryWithDefault
  3
ObjectDBX Classes
 90
0
 91
0
280
0
281
0
  0
CLASS
  1
SUN
  2
AcDbSun
  3
SCENEOE
 90
1153
 91
0
280
0
281
0
  0
CLASS
  1
VISUALSTYLE
  2
AcDbVisualStyle
  3
ObjectDBX Classes
 90
4095
 91
0
280
0
281
0
  0
CLASS
  1
MATERIAL
  2
AcDbMaterial
  3
ObjectDBX Classes
 90
1153
 91
0
280
0
281
0
  0
CLASS
  1
SCALE
  2
AcDbScale
  3
ObjectDBX Classes
 90
1153
 91
0
280
0
281
0
  0
CLASS
  1
TABLESTYLE
  2
AcDbTableStyle
  3
ObjectDBX Classes
 90
4095
 91
0
280
0
281
0
  0
CLASS
  1
MLEADERSTYLE
  2
AcDbMLeaderStyle
  3
ACDB_MLEADERSTYLE_CLASS
 90
4095
 91
0
280
0
281
0
  0
CLASS
  1
DICTIONARYVAR
  2
AcDbDictionaryVar
  3
ObjectDBX Classes
 90
0
 91
0
280
0
281
0
  0
CLASS
  1
CELLSTYLEMAP
  2
AcDbCellStyleMap
  3
ObjectDBX Classes
 90
1152
 91
0
280
0
281
0
  0
CLASS
  1
MENTALRAYRENDERSETTINGS
  2
AcDbMentalRayRenderSettings
  3
SCENEOE
 90
1024
 91
0
280
0
281
0
  0
CLASS
  1
ACDBDETAILVIEWSTYLE
  2
AcDbDetailViewStyle
  3
ObjectDBX Classes
 90
1025
 91
0
280
0
281
0
  0
CLASS
  1
ACDBSECTIONVIEWSTYLE
  2
AcDbSectionViewStyle
  3
ObjectDBX Classes
 90
1025
 91
0
280
0
281
0
  0
CLASS
  1
RASTERVARIABLES
  2
AcDbRasterVariables
  3
ISM
 90
0
 91
0
280
0
281
0
  0
CLASS
  1
ACDBPLACEHOLDER
  2
AcDbPlaceHolder
  3
ObjectDBX Classes
 90
0
 91
0
280
0
281
0
  0
CLASS
  1
LAYOUT
  2
AcDbLayout
  3
ObjectDBX Classes
 90
0
 91
0
280
0
281
0
  0
ENDSEC
  0
SECTION
  2
TABLES
  0
TABLE
  2
VPORT
  5
8
330
0
100
AcDbSymbolTable
 70
1
  0
VPORT
  5
23
330
8
100
AcDbSymbolTableRecord
100
AcDbViewportTableRecord
  2
*Active
 70
0
 10
0.0
 20
0.0
 11
1.0
 21
1.0
 12
0.0
 22
0.0
 13
0.0
 23
0.0
 14
0.5
 24
0.5
 15
0.5
 25
0.5
 16
0.0
 26
0.0
 36
1.0
 17
0.0
 27
0.0
 37
0.0
 40
1000.0
 41
1.34
 42
50.0
 43
0.0
 44
0.0
 50
0.0
 51
0.0
 71
0
 72
1000
 73
1
 74
3
 75
0
 76
0
 77
0
 78
0
281
0
 65
0
146
0.0
  0
ENDTAB
  0
TABLE
  2
LTYPE
  5
2
330
0
100
AcDbSymbolTable
 70
21
  0
LTYPE
  5
24
330
2
100
AcDbSymbolTableRecord
100
AcDbLinetypeTableRecord
  2
ByBlock
 70
0
  3

 72
65
 73
0
 40
0.0
  0
LTYPE
  5
25
330
2
100
AcDbSymbolTableRecord
100
AcDbLinetypeTableRecord
  2
ByLayer
 70
0
  3

 72
65
 73
0
 40
0.0
  0
LTYPE
  5
26
330
2
100
AcDbSymbolTableRecord
100
AcDbLinetypeTableRecord
  2
Continuous
 70
0
  3

 72
65
 73
0
 40
0.0
  0
LTYPE
  5
2F
330
2
100
AcDbSymbolTableRecord
100
AcDbLinetypeTableRecord
  2
CENTER
 70
0
  3
Center ____ _ ____ _ ____ _ ____ _ ____ _ ____
 72
65
 73
4
 40
5.08
 49
3.175
 74
0
 49
-0.635
 74
0
 49
0.635
 74
0
 49
-0.635
 74
0
  0
LTYPE
  5
30
330
2
100
AcDbSymbolTableRecord
100
AcDbLinetypeTableRecord
  2
CENTERX2
 70
0
  3
Center (2x) ________  __  ________  __  ________
 72
65
 73
4
 40
8.89
 49
6.35
 74
0
 49
-0.635
 74
0
 49
1.27
 74
0
 49
-0.635
 74
0
  0
LTYPE
  5
31
330
2
100
AcDbSymbolTableRecord
100
AcDbLinetypeTableRecord
  2
CENTER2
 70
0
  3
Center (.5x) ____ _ ____ _ ____ _ ____ _ ____
 72
65
 73
4
 40
2.54
 49
1.587
 74
0
 49
-0.318
 74
0
 49
0.318
 74
0
 49
-0.318
 74
0
  0
LTYPE
  5
32
330
2
100
AcDbSymbolTableRecord
100
AcDbLinetypeTableRecord
  2
DASHED
 70
0
  3
Dashed __ __ __ __ __ __ __ __ __ __ __ __ __ _
 72
65
 73
2
 40
1.524
 49
1.27
 74
0
 49
-0.254
 74
0
  0
LTYPE
  5
33
330
2
100
AcDbSymbolTableRecord
100
AcDbLinetypeTableRecord
  2
DASHEDX2
 70
0
  3
Dashed (2x) ____  ____  ____  ____  ____  ____
 72
65
 73
2
 40
3.048
 49
2.54
 74
0
 49
-0.508
 74
0
  0
LTYPE
  5
34
330
2
100
AcDbSymbolTableRecord
100
AcDbLinetypeTableRecord
  2
DASHED2
 70
0
  3
Dashed (.5x) _ _ _ _ _ _ _ _ _ _ _ _ _ _
 72
65
 73
2
 40
0.762
 49
0.635
 74
0
 49
-0.127
 74
0
  0
LTYPE
  5
35
330
2
100
AcDbSymbolTableRecord
100
AcDbLinetypeTableRecord
  2
PHANTOM
 70
0
  3
Phantom ______  __  __  ______  __  __  ______
 72
65
 73
6
 40
6.35
 49
3.175
 74
0
 49
-0.635
 74
0
 49
0.635
 74
0
 49
-0.635
 74
0
 49
0.635
 74
0
 49
-0.635
 74
0
  0
LTYPE
  5
36
330
2
100
AcDbSymbolTableRecord
100
AcDbLinetypeTableRecord
  2
PHANTOMX2
 70
0
  3
Phantom (2x)____________    ____    ____    ____________
 72
65
 73
6
 40
10.795
 49
6.35
 74
0
 49
-0.635
 74
0
 49
1.27
 74
0
 49
-0.635
 74
0
 49
1.27
 74
0
 49
-0.635
 74
0
  0
LTYPE
  5
37
330
2
100
AcDbSymbolTableRecord
100
AcDbLinetypeTableRecord
  2
PHANTOM2
 70
0
  3
Phantom (.5x) ___ _ _ ___ _ _ ___ _ _ ___ _ _ ___
 72
65
 73
6
 40
3.175
 49
1.587
 74
0
 49
-0.318
 74
0
 49
0.318
 74
0
 49
-0.318
 74
0
 49
0.318
 74
0
 49
-0.318
 74
0
  0
LTYPE
  5
38
330
2
100
AcDbSymbolTableRecord
100
AcDbLinetypeTableRecord
  2
DASHDOT
 70
0
  3
Dash dot __ . __ . __ . __ . __ . __ . __ . __
 72
65
 73
4
 40
3.556
 49
2.54
 74
0
 49
-0.508
 74
0
 49
0.0
 74
0
 49
-0.508
 74
0
  0
LTYPE
  5
39
330
2
100
AcDbSymbolTableRecord
100
AcDbLinetypeTableRecord
  2
DASHDOTX2
 70
0
  3
Dash dot (2x) ____  .  ____  .  ____  .  ____
 72
65
 73
4
 40
6.096
 49
5.08
 74
0
 49
-0.508
 74
0
 49
0.0
 74
0
 49
-0.508
 74
0
  0
LTYPE
  5
3A
330
2
100
AcDbSymbolTableRecord
100
AcDbLinetypeTableRecord
  2
DASHDOT2
 70
0
  3
Dash dot (.5x) _ . _ . _ . _ . _ . _ . _ . _
 72
65
 73
4
 40
1.778
 49
1.27
 74
0
 49
-0.254
 74
0
 49
0.0
 74
0
 49
-0.254
 74
0
  0
LTYPE
  5
3B
330
2
100
AcDbSymbolTableRecord
100
AcDbLinetypeTableRecord
  2
DOT
 70
0
  3
Dot .  .  .  .  .  .  .  .  .  .  .  .  .  .  .  .
 72
65
 73
2
 40
0.508
 49
0.0
 74
0
 49
-0.508
 74
0
  0
LTYPE
  5
3C
330
2
100
AcDbSymbolTableRecord
100
AcDbLinetypeTableRecord
  2
DOTX2
 70
0
  3
Dot (2x) .    .    .    .    .    .    .    . 
 72
65
 73
2
 40
1.016
 49
0.0
 74
0
 49
-1.016
 74
0
  0
LTYPE
  5
3D
330
2
100
AcDbSymbolTableRecord
100
AcDbLinetypeTableRecord
  2
DOT2
 70
0
  3
Dot (.5) . . . . . . . . . . . . . . . . . . . 
 72
65
 73
2
 40
0.254
 49
0.0
 74
0
 49
-0.254
 74
0
  0
LTYPE
  5
3E
330
2
100
AcDbSymbolTableRecord
100
AcDbLinetypeTableRecord
  2
DIVIDE
 70
0
  3
Divide __ . . __ . . __ . . __ . . __ . . __
 72
65
 73
6
 40
4.064
 49
2.54
 74
0
 49
-0.508
 74
0
 49
0.0
 74
0
 49
-0.508
 74
0
 49
0.0
 74
0
 49
-0.508
 74
0
  0
LTYPE
  5
3F
330
2
100
AcDbSymbolTableRecord
100
AcDbLinetypeTableRecord
  2
DIVIDEX2
 70
0
  3
Divide (2x) ____  . .  ____  . .  ____  . .  ____
 72
65
 73
6
 40
6.604
 49
5.08
 74
0
 49
-0.508
 74
0
 49
0.0
 74
0
 49
-0.508
 74
0
 49
0.0
 74
0
 49
-0.508
 74
0
  0
LTYPE
  5
40
330
2
100
AcDbSymbolTableRecord
100
AcDbLinetypeTableRecord
  2
DIVIDE2
 70
0
  3
Divide(.5x) _ . _ . _ . _ . _ . _ . _ . _
 72
65
 73
6
 40
2.032
 49
1.27
 74
0
 49
-0.254
 74
0
 49
0.0
 74
0
 49
-0.254
 74
0
 49
0.0
 74
0
 49
-0.254
 74
0
  0
ENDTAB
  0
TABLE
  2
LAYER
  5
1
330
0
100
AcDbSymbolTable
 70
24
  0
LAYER
  5
27
330
1
100
AcDbSymbolTableRecord
100
AcDbLayerTableRecord
  2
0
 70
0
 62
7
  6
Continuous
370
-3
390
13
347
21
  0
LAYER
  5
28
330
1
100
AcDbSymbolTableRecord
100
AcDbLayerTableRecord
  2
Defpoints
 70
0
 62
7
  6
Continuous
290
0
370
-3
390
13
347
21
  0
LAYER
  5
8A
330
1
100
AcDbSymbolTableRecord
100
AcDbLayerTableRecord
  2
A-MURO
 70
0
 62
7
  6
CONTINUOUS
370
50
390
13
347
21
  0
LAYER
  5
8B
330
1
100
AcDbSymbolTableRecord
100
AcDbLayerTableRecord
  2
A-MURO-REL
 70
0
 62
9
  6
CONTINUOUS
370
-3
390
13
347
21
  0
LAYER
  5
8C
330
1
100
AcDbSymbolTableRecord
100
AcDbLayerTableRecord
  2
A-VANO
 70
0
 62
5
  6
CONTINUOUS
370
25
390
13
347
21
  0
LAYER
  5
8D
330
1
100
AcDbSymbolTableRecord
100
AcDbLayerTableRecord
  2
A-VANO-ALTO
 70
0
 62
5
  6
DASHED
370
18
390
13
347
21
  0
LAYER
  5
8E
330
1
100
AcDbSymbolTableRecord
100
AcDbLayerTableRecord
  2
A-VANO-ARCO
 70
0
 62
3
  6
CONTINUOUS
370
9
390
13
347
21
  0
LAYER
  5
8F
330
1
100
AcDbSymbolTableRecord
100
AcDbLayerTableRecord
  2
A-LOSA
 70
0
 62
8
  6
DASHED
370
18
390
13
347
21
  0
LAYER
  5
90
330
1
100
AcDbSymbolTableRecord
100
AcDbLayerTableRecord
  2
A-ESCA
 70
0
 62
3
  6
CONTINUOUS
370
18
390
13
347
21
  0
LAYER
  5
91
330
1
100
AcDbSymbolTableRecord
100
AcDbLayerTableRecord
  2
A-ESCA-SUP
 70
0
 62
3
  6
DASHED
370
13
390
13
347
21
  0
LAYER
  5
92
330
1
100
AcDbSymbolTableRecord
100
AcDbLayerTableRecord
  2
A-MOBI
 70
0
 62
8
  6
CONTINUOUS
370
13
390
13
347
21
  0
LAYER
  5
93
330
1
100
AcDbSymbolTableRecord
100
AcDbLayerTableRecord
  2
A-COTA
 70
0
 62
1
  6
CONTINUOUS
370
18
390
13
347
21
  0
LAYER
  5
94
330
1
100
AcDbSymbolTableRecord
100
AcDbLayerTableRecord
  2
A-TEXT
 70
0
 62
7
  6
CONTINUOUS
370
18
390
13
347
21
  0
LAYER
  5
95
330
1
100
AcDbSymbolTableRecord
100
AcDbLayerTableRecord
  2
A-RECI
 70
0
 62
7
  6
CONTINUOUS
370
18
390
13
347
21
  0
LAYER
  5
96
330
1
100
AcDbSymbolTableRecord
100
AcDbLayerTableRecord
  2
A-SIMB
 70
0
 62
7
  6
CONTINUOUS
370
25
390
13
347
21
  0
LAYER
  5
97
330
1
100
AcDbSymbolTableRecord
100
AcDbLayerTableRecord
  2
A-EJES
 70
0
 62
8
  6
DASHDOT
370
13
390
13
347
21
  0
LAYER
  5
98
330
1
100
AcDbSymbolTableRecord
100
AcDbLayerTableRecord
  2
A-CUAD
 70
0
 62
7
  6
CONTINUOUS
370
35
390
13
347
21
  0
LAYER
  5
99
330
1
100
AcDbSymbolTableRecord
100
AcDbLayerTableRecord
  2
A-CORTE
 70
0
 62
1
  6
DASHDOT
370
35
390
13
347
21
  0
LAYER
  5
9C
330
1
100
AcDbSymbolTableRecord
100
AcDbLayerTableRecord
  2
A-VIST
 70
0
 62
7
  6
Continuous
370
25
390
13
347
21
  0
LAYER
  5
9D
330
1
100
AcDbSymbolTableRecord
100
AcDbLayerTableRecord
  2
A-SECC
 70
0
 62
8
  6
Continuous
370
50
390
13
347
21
  0
LAYER
  5
9E
330
1
100
AcDbSymbolTableRecord
100
AcDbLayerTableRecord
  2
A-TERR
 70
0
 62
7
  6
Continuous
370
50
390
13
347
21
  0
LAYER
  5
9F
330
1
100
AcDbSymbolTableRecord
100
AcDbLayerTableRecord
  2
A-NIVEL
 70
0
 62
7
  6
Continuous
370
18
390
13
347
21
  0
LAYER
  5
A0
330
1
100
AcDbSymbolTableRecord
100
AcDbLayerTableRecord
  2
A-CUB
 70
0
 62
5
  6
Continuous
370
25
390
13
347
21
  0
LAYER
  5
A1
330
1
100
AcDbSymbolTableRecord
100
AcDbLayerTableRecord
  2
A-TERM
 70
0
 62
6
  6
Continuous
370
18
390
13
347
21
  0
ENDTAB
  0
TABLE
  2
STYLE
  5
5
330
0
100
AcDbSymbolTable
 70
27
  0
STYLE
  5
29
330
5
100
AcDbSymbolTableRecord
100
AcDbTextStyleTableRecord
  2
Standard
 70
0
 40
0.0
 41
1.0
 50
0.0
 71
0
 42
2.5
  3
txt
  4

  0
STYLE
  5
41
330
5
100
AcDbSymbolTableRecord
100
AcDbTextStyleTableRecord
  2
OpenSans-Light
 70
0
 40
0.0
 41
1.0
 50
0.0
 71
0
 42
2.5
  3
OpenSans-Light.ttf
  4

  0
STYLE
  5
42
330
5
100
AcDbSymbolTableRecord
100
AcDbTextStyleTableRecord
  2
OpenSans-Light-Italic
 70
0
 40
0.0
 41
1.0
 50
0.0
 71
0
 42
2.5
  3
OpenSans-LightItalic.ttf
  4

  0
STYLE
  5
43
330
5
100
AcDbSymbolTableRecord
100
AcDbTextStyleTableRecord
  2
OpenSans
 70
0
 40
0.0
 41
1.0
 50
0.0
 71
0
 42
2.5
  3
OpenSans-Regular.ttf
  4

  0
STYLE
  5
44
330
5
100
AcDbSymbolTableRecord
100
AcDbTextStyleTableRecord
  2
OpenSans-Italic
 70
0
 40
0.0
 41
1.0
 50
0.0
 71
0
 42
2.5
  3
OpenSans-Italic.ttf
  4

  0
STYLE
  5
45
330
5
100
AcDbSymbolTableRecord
100
AcDbTextStyleTableRecord
  2
OpenSans-SemiBold
 70
0
 40
0.0
 41
1.0
 50
0.0
 71
0
 42
2.5
  3
OpenSans-SemiBold.ttf
  4

  0
STYLE
  5
46
330
5
100
AcDbSymbolTableRecord
100
AcDbTextStyleTableRecord
  2
OpenSans-SemiBoldItalic
 70
0
 40
0.0
 41
1.0
 50
0.0
 71
0
 42
2.5
  3
OpenSans-SemiBoldItalic.ttf
  4

  0
STYLE
  5
47
330
5
100
AcDbSymbolTableRecord
100
AcDbTextStyleTableRecord
  2
OpenSans-Bold
 70
0
 40
0.0
 41
1.0
 50
0.0
 71
0
 42
2.5
  3
OpenSans-Bold.ttf
  4

  0
STYLE
  5
48
330
5
100
AcDbSymbolTableRecord
100
AcDbTextStyleTableRecord
  2
OpenSans-BoldItalic
 70
0
 40
0.0
 41
1.0
 50
0.0
 71
0
 42
2.5
  3
OpenSans-BoldItalic.ttf
  4

  0
STYLE
  5
49
330
5
100
AcDbSymbolTableRecord
100
AcDbTextStyleTableRecord
  2
OpenSans-ExtraBold
 70
0
 40
0.0
 41
1.0
 50
0.0
 71
0
 42
2.5
  3
OpenSans-ExtraBold.ttf
  4

  0
STYLE
  5
4A
330
5
100
AcDbSymbolTableRecord
100
AcDbTextStyleTableRecord
  2
OpenSans-ExtraBoldItalic
 70
0
 40
0.0
 41
1.0
 50
0.0
 71
0
 42
2.5
  3
OpenSans-ExtraBoldItalic.ttf
  4

  0
STYLE
  5
4B
330
5
100
AcDbSymbolTableRecord
100
AcDbTextStyleTableRecord
  2
OpenSansCondensed-Bold
 70
0
 40
0.0
 41
1.0
 50
0.0
 71
0
 42
2.5
  3
OpenSansCondensed-Bold.ttf
  4

  0
STYLE
  5
4C
330
5
100
AcDbSymbolTableRecord
100
AcDbTextStyleTableRecord
  2
OpenSansCondensed-Light
 70
0
 40
0.0
 41
1.0
 50
0.0
 71
0
 42
2.5
  3
OpenSansCondensed-Light.ttf
  4

  0
STYLE
  5
4D
330
5
100
AcDbSymbolTableRecord
100
AcDbTextStyleTableRecord
  2
OpenSansCondensed-Italic
 70
0
 40
0.0
 41
1.0
 50
0.0
 71
0
 42
2.5
  3
OpenSansCondensed-LightItalic.ttf
  4

  0
STYLE
  5
4E
330
5
100
AcDbSymbolTableRecord
100
AcDbTextStyleTableRecord
  2
LiberationSans
 70
0
 40
0.0
 41
1.0
 50
0.0
 71
0
 42
2.5
  3
LiberationSans-Regular.ttf
  4

  0
STYLE
  5
4F
330
5
100
AcDbSymbolTableRecord
100
AcDbTextStyleTableRecord
  2
LiberationSans-Bold
 70
0
 40
0.0
 41
1.0
 50
0.0
 71
0
 42
2.5
  3
LiberationSans-Bold.ttf
  4

  0
STYLE
  5
50
330
5
100
AcDbSymbolTableRecord
100
AcDbTextStyleTableRecord
  2
LiberationSans-BoldItalic
 70
0
 40
0.0
 41
1.0
 50
0.0
 71
0
 42
2.5
  3
LiberationSans-BoldItalic.ttf
  4

  0
STYLE
  5
51
330
5
100
AcDbSymbolTableRecord
100
AcDbTextStyleTableRecord
  2
LiberationSans-Italic
 70
0
 40
0.0
 41
1.0
 50
0.0
 71
0
 42
2.5
  3
LiberationSans-Italic.ttf
  4

  0
STYLE
  5
52
330
5
100
AcDbSymbolTableRecord
100
AcDbTextStyleTableRecord
  2
LiberationSerif
 70
0
 40
0.0
 41
1.0
 50
0.0
 71
0
 42
2.5
  3
LiberationSerif-Regular.ttf
  4

  0
STYLE
  5
53
330
5
100
AcDbSymbolTableRecord
100
AcDbTextStyleTableRecord
  2
LiberationSerif-Bold
 70
0
 40
0.0
 41
1.0
 50
0.0
 71
0
 42
2.5
  3
LiberationSerif-Bold.ttf
  4

  0
STYLE
  5
54
330
5
100
AcDbSymbolTableRecord
100
AcDbTextStyleTableRecord
  2
LiberationSerif-BoldItalic
 70
0
 40
0.0
 41
1.0
 50
0.0
 71
0
 42
2.5
  3
LiberationSerif-BoldItalic.ttf
  4

  0
STYLE
  5
55
330
5
100
AcDbSymbolTableRecord
100
AcDbTextStyleTableRecord
  2
LiberationSerif-Italic
 70
0
 40
0.0
 41
1.0
 50
0.0
 71
0
 42
2.5
  3
LiberationSerif-Italic.ttf
  4

  0
STYLE
  5
56
330
5
100
AcDbSymbolTableRecord
100
AcDbTextStyleTableRecord
  2
LiberationMono
 70
0
 40
0.0
 41
1.0
 50
0.0
 71
0
 42
2.5
  3
LiberationMono-Regular.ttf
  4

  0
STYLE
  5
57
330
5
100
AcDbSymbolTableRecord
100
AcDbTextStyleTableRecord
  2
LiberationMono-Bold
 70
0
 40
0.0
 41
1.0
 50
0.0
 71
0
 42
2.5
  3
LiberationMono-Bold.ttf
  4

  0
STYLE
  5
58
330
5
100
AcDbSymbolTableRecord
100
AcDbTextStyleTableRecord
  2
LiberationMono-BoldItalic
 70
0
 40
0.0
 41
1.0
 50
0.0
 71
0
 42
2.5
  3
LiberationMono-BoldItalic.ttf
  4

  0
STYLE
  5
59
330
5
100
AcDbSymbolTableRecord
100
AcDbTextStyleTableRecord
  2
LiberationMono-Italic
 70
0
 40
0.0
 41
1.0
 50
0.0
 71
0
 42
2.5
  3
LiberationMono-Italic.ttf
  4

  0
STYLE
  5
9A
330
5
100
AcDbSymbolTableRecord
100
AcDbTextStyleTableRecord
  2
ARQ
 70
0
 40
0.0
 41
1.0
 50
0.0
 71
0
 42
2.5
  3
arial.ttf
  4

  0
ENDTAB
  0
TABLE
  2
VIEW
  5
7
330
0
100
AcDbSymbolTable
 70
0
  0
ENDTAB
  0
TABLE
  2
UCS
  5
6
330
0
100
AcDbSymbolTable
 70
0
  0
ENDTAB
  0
TABLE
  2
APPID
  5
3
330
0
100
AcDbSymbolTable
 70
3
  0
APPID
  5
2A
330
3
100
AcDbSymbolTableRecord
100
AcDbRegAppTableRecord
  2
ACAD
 70
0
  0
APPID
  5
4B7
330
3
100
AcDbSymbolTableRecord
100
AcDbRegAppTableRecord
  2
HATCHBACKGROUNDCOLOR
 70
0
  0
APPID
  5
4B8
330
3
100
AcDbSymbolTableRecord
100
AcDbRegAppTableRecord
  2
EZDXF
 70
0
  0
ENDTAB
  0
TABLE
  2
DIMSTYLE
  5
4
330
0
100
AcDbSymbolTable
 70
13
100
AcDbDimStyleTable
  0
DIMSTYLE
105
2B
330
4
100
AcDbSymbolTableRecord
100
AcDbDimStyleTableRecord
  2
Standard
 70
0
 40
1.0
 41
2.5
 42
0.625
 43
3.75
 44
1.25
 45
0.0
 46
0.0
 47
0.0
 48
0.0
 49
2.5
140
2.5
141
2.5
142
0.0
143
0.03937007874
144
1.0
145
0.0
146
1.0
147
0.625
148
0.0
 69
0
 70
0
 71
0
 72
0
 73
0
 74
0
 75
0
 76
0
 77
1
 78
8
 79
3
170
0
171
3
172
1
173
0
174
0
175
0
176
0
177
0
178
0
179
2
271
2
272
2
273
2
274
3
275
0
276
0
277
2
278
44
279
0
280
0
281
0
282
0
283
0
284
8
285
0
286
0
288
0
289
3
290
0
371
-2
372
-2
  0
DIMSTYLE
105
73
330
4
100
AcDbSymbolTableRecord
100
AcDbDimStyleTableRecord
  2
EZDXF
 70
0
 40
1.0
 41
0.175
 42
0.125
 43
3.75
 44
0.375
 45
0.0
 46
0.0
 47
0.0
 48
0.0
 49
2.5
140
0.25
141
2.5
142
0.0
143
0.03937007874
144
100.0
145
0.0
146
0.5
147
0.1
148
0.0
 69
0
 70
0
 71
0
 72
0
 73
0
 74
0
 75
0
 76
0
 77
1
 78
12
 79
3
170
0
171
3
172
1
173
0
174
0
175
0
176
0
177
0
178
0
179
2
271
2
272
2
273
2
274
3
275
0
276
0
277
2
278
46
279
2
280
0
281
0
282
0
283
0
284
8
285
0
286
0
288
1
289
3
290
0
340
4C
342
74
371
-2
372
-2
  0
DIMSTYLE
105
7C
330
4
100
AcDbSymbolTableRecord
100
AcDbDimStyleTableRecord
  2
EZ_M_100_H25_CM
 70
0
 40
1.0
 41
0.25
 42
0.125
 43
3.75
 44
0.375
 45
0.0
 46
0.0
 47
0.0
 48
0.0
 49
2.5
140
0.25
141
2.5
142
0.125
143
0.03937007874
144
100.0
145
0.0
146
0.5
147
0.1
148
0.0
 69
0
 70
0
 71
0
 72
0
 73
0
 74
0
 75
0
 76
0
 77
1
 78
12
 79
3
170
0
171
3
172
1
173
0
174
0
175
0
176
0
177
0
178
0
179
2
271
2
272
2
273
2
274
3
275
0
276
0
277
2
278
46
279
2
280
0
281
0
282
0
283
0
284
8
285
0
286
0
288
1
289
3
290
0
340
4C
371
-2
372
-2
  0
DIMSTYLE
105
7D
330
4
100
AcDbSymbolTableRecord
100
AcDbDimStyleTableRecord
  2
EZ_M_50_H25_CM
 70
0
 40
1.0
 41
0.125
 42
0.0625
 43
3.75
 44
0.1875
 45
0.0
 46
0.0
 47
0.0
 48
0.0
 49
2.5
140
0.125
141
2.5
142
0.0625
143
0.03937007874
144
100.0
145
0.0
146
0.5
147
0.05
148
0.0
 69
0
 70
0
 71
0
 72
0
 73
0
 74
0
 75
0
 76
0
 77
1
 78
12
 79
3
170
0
171
3
172
1
173
0
174
0
175
0
176
0
177
0
178
0
179
2
271
2
272
2
273
2
274
3
275
0
276
0
277
2
278
46
279
2
280
0
281
0
282
0
283
0
284
8
285
0
286
0
288
1
289
3
290
0
340
4C
371
-2
372
-2
  0
DIMSTYLE
105
7E
330
4
100
AcDbSymbolTableRecord
100
AcDbDimStyleTableRecord
  2
EZ_M_25_H25_CM
 70
0
 40
1.0
 41
0.0625
 42
0.03125
 43
3.75
 44
0.09375
 45
0.0
 46
0.0
 47
0.0
 48
0.0
 49
2.5
140
0.0625
141
2.5
142
0.03125
143
0.03937007874
144
100.0
145
0.0
146
0.5
147
0.025
148
0.0
 69
0
 70
0
 71
0
 72
0
 73
0
 74
0
 75
0
 76
0
 77
1
 78
12
 79
3
170
0
171
3
172
1
173
0
174
0
175
0
176
0
177
0
178
0
179
2
271
2
272
2
273
2
274
3
275
0
276
0
277
2
278
46
279
2
280
0
281
0
282
0
283
0
284
8
285
0
286
0
288
1
289
3
290
0
340
4C
371
-2
372
-2
  0
DIMSTYLE
105
7F
330
4
100
AcDbSymbolTableRecord
100
AcDbDimStyleTableRecord
  2
EZ_M_20_H25_CM
 70
0
 40
1.0
 41
0.05
 42
0.025
 43
3.75
 44
0.07500000000000001
 45
0.0
 46
0.0
 47
0.0
 48
0.0
 49
2.5
140
0.05
141
2.5
142
0.025
143
0.03937007874
144
100.0
145
0.0
146
0.5
147
0.020000000000000004
148
0.0
 69
0
 70
0
 71
0
 72
0
 73
0
 74
0
 75
0
 76
0
 77
1
 78
12
 79
3
170
0
171
3
172
1
173
0
174
0
175
0
176
0
177
0
178
0
179
2
271
2
272
2
273
2
274
3
275
0
276
0
277
2
278
46
279
2
280
0
281
0
282
0
283
0
284
8
285
0
286
0
288
1
289
3
290
0
340
4C
371
-2
372
-2
  0
DIMSTYLE
105
80
330
4
100
AcDbSymbolTableRecord
100
AcDbDimStyleTableRecord
  2
EZ_M_10_H25_CM
 70
0
 40
1.0
 41
0.025
 42
0.0125
 43
3.75
 44
0.037500000000000006
 45
0.0
 46
0.0
 47
0.0
 48
0.0
 49
2.5
140
0.025
141
2.5
142
0.0125
143
0.03937007874
144
100.0
145
0.0
146
0.5
147
0.010000000000000002
148
0.0
 69
0
 70
0
 71
0
 72
0
 73
0
 74
0
 75
0
 76
0
 77
1
 78
12
 79
3
170
0
171
3
172
1
173
0
174
0
175
0
176
0
177
0
178
0
179
2
271
2
272
2
273
2
274
3
275
0
276
0
277
2
278
46
279
2
280
0
281
0
282
0
283
0
284
8
285
0
286
0
288
1
289
3
290
0
340
4C
371
-2
372
-2
  0
DIMSTYLE
105
81
330
4
100
AcDbSymbolTableRecord
100
AcDbDimStyleTableRecord
  2
EZ_M_5_H25_CM
 70
0
 40
1.0
 41
0.0125
 42
0.00625
 43
3.75
 44
0.018750000000000003
 45
0.0
 46
0.0
 47
0.0
 48
0.0
 49
2.5
140
0.0125
141
2.5
142
0.00625
143
0.03937007874
144
100.0
145
0.0
146
0.5
147
0.005000000000000001
148
0.0
 69
0
 70
0
 71
0
 72
0
 73
0
 74
0
 75
0
 76
0
 77
1
 78
12
 79
3
170
0
171
3
172
1
173
0
174
0
175
0
176
0
177
0
178
0
179
2
271
2
272
2
273
2
274
3
275
0
276
0
277
2
278
46
279
2
280
0
281
0
282
0
283
0
284
8
285
0
286
0
288
1
289
3
290
0
340
4C
371
-2
372
-2
  0
DIMSTYLE
105
82
330
4
100
AcDbSymbolTableRecord
100
AcDbDimStyleTableRecord
  2
EZ_M_1_H25_CM
 70
0
 40
1.0
 41
0.0025
 42
0.00125
 43
3.75
 44
0.00375
 45
0.0
 46
0.0
 47
0.0
 48
0.0
 49
2.5
140
0.0025
141
2.5
142
0.00125
143
0.03937007874
144
100.0
145
0.0
146
0.5
147
0.001
148
0.0
 69
0
 70
0
 71
0
 72
0
 73
0
 74
0
 75
0
 76
0
 77
1
 78
12
 79
3
170
0
171
3
172
1
173
0
174
0
175
0
176
0
177
0
178
0
179
2
271
2
272
2
273
2
274
3
275
0
276
0
277
2
278
46
279
2
280
0
281
0
282
0
283
0
284
8
285
0
286
0
288
1
289
3
290
0
340
4C
371
-2
372
-2
  0
DIMSTYLE
105
83
330
4
100
AcDbSymbolTableRecord
100
AcDbDimStyleTableRecord
  2
EZ_RADIUS
 70
0
 40
1.0
 41
0.25
 42
0.125
 43
3.75
 44
0.375
 45
0.0
 46
0.0
 47
0.0
 48
0.0
 49
2.5
140
0.25
141
0.0
142
0.0
143
0.03937007874
144
100.0
145
0.0
146
0.5
147
0.1
148
0.0
 69
0
 70
0
 71
0
 72
0
 73
0
 74
0
 75
0
 76
0
 77
1
 78
12
 79
3
170
0
171
3
172
0
173
0
174
0
175
0
176
0
177
0
178
0
179
2
271
2
272
2
273
2
274
3
275
0
276
0
277
2
278
46
279
1
280
0
281
0
282
0
283
0
284
8
285
0
286
0
288
1
289
3
290
0
340
4C
342
84
371
-2
372
-2
  0
DIMSTYLE
105
88
330
4
100
AcDbSymbolTableRecord
100
AcDbDimStyleTableRecord
  2
EZ_RADIUS_INSIDE
 70
0
 40
1.0
 41
0.25
 42
0.125
 43
3.75
 44
0.375
 45
0.0
 46
0.0
 47
0.0
 48
0.0
 49
2.5
140
0.25
141
0.0
142
0.0
143
0.03937007874
144
100.0
145
0.0
146
0.5
147
0.1
148
0.0
 69
0
 70
0
 71
0
 72
0
 73
0
 74
0
 75
0
 76
0
 77
0
 78
12
 79
3
170
0
171
3
172
0
173
0
174
1
175
0
176
0
177
0
178
0
179
2
271
2
272
2
273
2
274
3
275
0
276
0
277
2
278
46
279
0
280
0
281
0
282
0
283
0
284
8
285
0
286
0
288
1
289
0
290
0
340
4C
342
84
371
-2
372
-2
  0
DIMSTYLE
105
89
330
4
100
AcDbSymbolTableRecord
100
AcDbDimStyleTableRecord
  2
EZ_CURVED
 70
0
 40
1.0
 41
0.25
 42
0.125
 43
3.75
 44
0.375
 45
0.0
 46
0.0
 47
0.0
 48
0.0
 49
2.5
140
0.25
141
2.5
142
0.0
143
0.03937007874
144
100.0
145
0.0
146
0.5
147
0.1
148
0.0
 69
0
 70
0
 71
0
 72
0
 73
0
 74
0
 75
0
 76
0
 77
1
 78
12
 79
2
 90
2
170
0
171
3
172
1
173
0
174
0
175
0
176
0
177
0
178
0
179
2
271
2
272
2
273
2
274
3
275
0
276
0
277
2
278
46
279
2
280
0
281
0
282
0
283
0
284
8
285
0
286
0
288
1
289
3
290
0
340
4C
371
-2
372
-2
  0
DIMSTYLE
105
9B
330
4
100
AcDbSymbolTableRecord
100
AcDbDimStyleTableRecord
  2
ARQ
 70
0
 40
1.0
 41
0.1
 42
0.08
 43
3.75
 44
0.08
 45
0.0
 46
0.0
 47
0.0
 48
0.0
 49
2.5
140
0.125
141
2.5
142
0.08
143
0.03937007874
144
1.0
145
0.0
146
1.0
147
0.04
148
0.0
 69
0
 70
0
 71
0
 72
0
 73
0
 74
0
 75
0
 76
0
 77
1
 78
0
 79
3
170
0
171
3
172
1
173
0
174
0
175
0
176
1
177
1
178
1
179
2
271
2
272
2
273
2
274
3
275
0
276
0
277
2
278
44
279
0
280
0
281
0
282
0
283
0
284
8
285
0
286
0
288
0
289
3
290
0
340
9A
342
74
371
-2
372
-2
  0
ENDTAB
  0
TABLE
  2
BLOCK_RECORD
  5
9
330
0
100
AcDbSymbolTable
 70
5
  0
BLOCK_RECORD
  5
17
330
9
100
AcDbSymbolTableRecord
100
AcDbBlockTableRecord
  2
*Model_Space
340
1A
 70
0
280
1
281
0
  0
BLOCK_RECORD
  5
74
330
9
100
AcDbSymbolTableRecord
100
AcDbBlockTableRecord
  2
_ARCHTICK
340
0
 70
0
280
1
281
0
  0
BLOCK_RECORD
  5
78
330
9
100
AcDbSymbolTableRecord
100
AcDbBlockTableRecord
  2
_CLOSEDFILLED
340
0
 70
0
280
1
281
0
  0
BLOCK_RECORD
  5
84
330
9
100
AcDbSymbolTableRecord
100
AcDbBlockTableRecord
  2
_CLOSEDBLANK
340
0
 70
0
280
1
281
0
  0
BLOCK_RECORD
  5
4B1
330
9
100
AcDbSymbolTableRecord
100
AcDbBlockTableRecord
  2
*Paper_Space
340
4B4
 70
0
280
1
281
0
  0
ENDTAB
  0
ENDSEC
  0
SECTION
  2
BLOCKS
  0
BLOCK
  5
18
330
17
100
AcDbEntity
  8
0
100
AcDbBlockBegin
  2
*Model_Space
 70
0
 10
0.0
 20
0.0
 30
0.0
  3
*Model_Space
  1

  0
ENDBLK
  5
19
330
17
100
AcDbEntity
  8
0
100
AcDbBlockEnd
  0
BLOCK
  5
75
330
74
100
AcDbEntity
  8
0
100
AcDbBlockBegin
  2
_ARCHTICK
 70
0
 10
0.0
 20
0.0
 30
0.0
  3
_ARCHTICK
  1

  0
LWPOLYLINE
  5
77
330
74
100
AcDbEntity
  8
0
  6
BYBLOCK
 62
0
100
AcDbPolyline
 90
2
 70
0
 43
0.15
 10
-0.5
 20
-0.5
 10
0.5
 20
0.5
  0
ENDBLK
  5
76
330
74
100
AcDbEntity
  8
0
100
AcDbBlockEnd
  0
BLOCK
  5
79
330
78
100
AcDbEntity
  8
0
100
AcDbBlockBegin
  2
_CLOSEDFILLED
 70
0
 10
0.0
 20
0.0
 30
0.0
  3
_CLOSEDFILLED
  1

  0
SOLID
  5
7B
330
78
100
AcDbEntity
  8
0
  6
BYBLOCK
 62
0
100
AcDbTrace
 10
-1.0
 20
0.16439898372402537
 30
0.0
 11
0.0
 21
0.0
 31
0.0
 12
-1.0
 22
-0.16439898372402537
 32
0.0
 13
-1.0
 23
-0.16439898372402537
 33
0.0
  0
ENDBLK
  5
7A
330
78
100
AcDbEntity
  8
0
100
AcDbBlockEnd
  0
BLOCK
  5
85
330
84
100
AcDbEntity
  8
0
100
AcDbBlockBegin
  2
_CLOSEDBLANK
 70
0
 10
0.0
 20
0.0
 30
0.0
  3
_CLOSEDBLANK
  1

  0
LWPOLYLINE
  5
87
330
84
100
AcDbEntity
  8
0
  6
BYBLOCK
 62
0
100
AcDbPolyline
 90
3
 70
1
 10
-1.0
 20
0.16439898372402537
 10
0.0
 20
0.0
 10
-1.0
 20
-0.16439898372402537
  0
ENDBLK
  5
86
330
84
100
AcDbEntity
  8
0
100
AcDbBlockEnd
  0
BLOCK
  5
4B2
330
4B1
100
AcDbEntity
  8
0
100
AcDbBlockBegin
  2
*Paper_Space
 70
0
 10
0.0
 20
0.0
 30
0.0
  3
*Paper_Space
  1

  0
ENDBLK
  5
4B3
330
4B1
100
AcDbEntity
  8
0
100
AcDbBlockEnd
  0
ENDSEC
  0
SECTION
  2
ENTITIES
  0
LINE
  5
A2
330
17
100
AcDbEntity
  8
A-VIST
100
AcDbLine
 10
3.55
 20
25.0
 30
0.0
 11
3.55
 21
27.6
 31
0.0
  0
LINE
  5
A3
330
17
100
AcDbEntity
  8
A-VIST
100
AcDbLine
 10
3.55
 20
25.0
 30
0.0
 11
7.95
 21
25.0
 31
0.0
  0
LINE
  5
A4
330
17
100
AcDbEntity
  8
A-VIST
100
AcDbLine
 10
3.55
 20
27.6
 30
0.0
 11
7.95
 21
27.6
 31
0.0
  0
LINE
  5
A5
330
17
100
AcDbEntity
  8
A-VIST
100
AcDbLine
 10
7.95
 20
25.0
 30
0.0
 11
7.95
 21
27.6
 31
0.0
  0
LINE
  5
A6
330
17
100
AcDbEntity
  8
A-VIST
100
AcDbLine
 10
7.25
 20
26.4
 30
0.0
 11
6.449999999999999
 21
26.4
 31
0.0
  0
LINE
  5
A7
330
17
100
AcDbEntity
  8
A-VIST
100
AcDbLine
 10
6.449999999999999
 20
26.4
 30
0.0
 11
6.449999999999999
 21
27.2
 31
0.0
  0
LINE
  5
A8
330
17
100
AcDbEntity
  8
A-VIST
100
AcDbLine
 10
6.449999999999999
 20
27.2
 30
0.0
 11
7.25
 21
27.2
 31
0.0
  0
LINE
  5
A9
330
17
100
AcDbEntity
  8
A-VIST
100
AcDbLine
 10
7.25
 20
27.2
 30
0.0
 11
7.25
 21
26.4
 31
0.0
  0
LINE
  5
AA
330
17
100
AcDbEntity
  8
A-VIST
100
AcDbLine
 10
4.85
 20
25.95
 30
0.0
 11
4.05
 21
25.95
 31
0.0
  0
LINE
  5
AB
330
17
100
AcDbEntity
  8
A-VIST
100
AcDbLine
 10
4.85
 20
27.2
 30
0.0
 11
4.85
 21
25.95
 31
0.0
  0
LINE
  5
AC
330
17
100
AcDbEntity
  8
A-VIST
100
AcDbLine
 10
4.05
 20
25.95
 30
0.0
 11
4.05
 21
27.2
 31
0.0
  0
LINE
  5
AD
330
17
100
AcDbEntity
  8
A-VIST
100
AcDbLine
 10
4.05
 20
27.2
 30
0.0
 11
4.85
 21
27.2
 31
0.0
  0
LINE
  5
AE
330
17
100
AcDbEntity
  8
A-VIST
100
AcDbLine
 10
8.75
 20
25.0
 30
0.0
 11
8.75
 21
27.1
 31
0.0
  0
LINE
  5
AF
330
17
100
AcDbEntity
  8
A-VIST
100
AcDbLine
 10
8.75
 20
27.1
 30
0.0
 11
9.649999999999999
 21
27.1
 31
0.0
  0
LINE
  5
B0
330
17
100
AcDbEntity
  8
A-VIST
100
AcDbLine
 10
9.649999999999999
 20
27.1
 30
0.0
 11
9.649999999999999
 21
25.0
 31
0.0
  0
LINE
  5
B1
330
17
100
AcDbEntity
  8
A-VIST
100
AcDbLine
 10
10.25
 20
25.95
 30
0.0
 11
9.8
 21
25.95
 31
0.0
  0
LINE
  5
B2
330
17
100
AcDbEntity
  8
A-VIST
100
AcDbLine
 10
9.8
 20
25.95
 30
0.0
 11
9.8
 21
27.3
 31
0.0
  0
LINE
  5
B3
330
17
100
AcDbEntity
  8
A-VIST
100
AcDbLine
 10
9.8
 20
27.3
 30
0.0
 11
10.25
 21
27.3
 31
0.0
  0
LINE
  5
B4
330
17
100
AcDbEntity
  8
A-VIST
100
AcDbLine
 10
10.25
 20
27.3
 30
0.0
 11
10.25
 21
25.95
 31
0.0
  0
LINE
  5
B5
330
17
100
AcDbEntity
  8
A-VIST
100
AcDbLine
 10
10.35
 20
25.0
 30
0.0
 11
10.35
 21
27.6
 31
0.0
  0
LINE
  5
B6
330
17
100
AcDbEntity
  8
A-VIST
100
AcDbLine
 10
10.55
 20
25.0
 30
0.0
 11
10.55
 21
27.6
 31
0.0
  0
LINE
  5
B7
330
17
100
AcDbEntity
  8
A-VIST
100
AcDbLine
 10
10.35
 20
25.0
 30
0.0
 11
10.55
 21
25.0
 31
0.0
  0
LINE
  5
B8
330
17
100
AcDbEntity
  8
A-VIST
100
AcDbLine
 10
10.35
 20
27.6
 30
0.0
 11
10.55
 21
27.6
 31
0.0
  0
LINE
  5
B9
330
17
100
AcDbEntity
  8
A-VIST
100
AcDbLine
 10
10.55
 20
25.0
 30
0.0
 11
10.55
 21
27.6
 31
0.0
  0
LINE
  5
BA
330
17
100
AcDbEntity
  8
A-VIST
100
AcDbLine
 10
10.55
 20
25.0
 30
0.0
 11
12.55
 21
25.0
 31
0.0
  0
LINE
  5
BB
330
17
100
AcDbEntity
  8
A-VIST
100
AcDbLine
 10
10.55
 20
27.6
 30
0.0
 11
12.55
 21
27.6
 31
0.0
  0
LINE
  5
BC
330
17
100
AcDbEntity
  8
A-VIST
100
AcDbLine
 10
12.55
 20
25.0
 30
0.0
 11
12.55
 21
27.6
 31
0.0
  0
LINE
  5
BD
330
17
100
AcDbEntity
  8
A-VIST
100
AcDbLine
 10
12.149999999999999
 20
25.95
 30
0.0
 11
10.95
 21
25.95
 31
0.0
  0
LINE
  5
BE
330
17
100
AcDbEntity
  8
A-VIST
100
AcDbLine
 10
10.95
 20
25.95
 30
0.0
 11
10.95
 21
27.2
 31
0.0
  0
LINE
  5
BF
330
17
100
AcDbEntity
  8
A-VIST
100
AcDbLine
 10
10.95
 20
27.2
 30
0.0
 11
12.149999999999999
 21
27.2
 31
0.0
  0
LINE
  5
C0
330
17
100
AcDbEntity
  8
A-VIST
100
AcDbLine
 10
12.149999999999999
 20
27.2
 30
0.0
 11
12.149999999999999
 21
25.95
 31
0.0
  0
LINE
  5
C1
330
17
100
AcDbEntity
  8
A-VIST
100
AcDbLine
 10
12.55
 20
25.0
 30
0.0
 11
12.55
 21
27.802
 31
0.0
  0
LINE
  5
C2
330
17
100
AcDbEntity
  8
A-VIST
100
AcDbLine
 10
12.55
 20
25.0
 30
0.0
 11
16.55
 21
25.0
 31
0.0
  0
LINE
  5
C3
330
17
100
AcDbEntity
  8
A-VIST
100
AcDbLine
 10
12.55
 20
27.802
 30
0.0
 11
15.602599999999999
 21
27.802
 31
0.0
  0
LINE
  5
C4
330
17
100
AcDbEntity
  8
A-VIST
100
AcDbLine
 10
16.55
 20
25.0
 30
0.0
 11
16.55
 21
27.622
 31
0.0
  0
LINE
  5
C5
330
17
100
AcDbEntity
  8
A-VIST
100
AcDbLine
 10
15.45
 20
26.1
 30
0.0
 11
13.75
 21
26.1
 31
0.0
  0
LINE
  5
C6
330
17
100
AcDbEntity
  8
A-VIST
100
AcDbLine
 10
13.75
 20
26.1
 30
0.0
 11
13.75
 21
27.2
 31
0.0
  0
LINE
  5
C7
330
17
100
AcDbEntity
  8
A-VIST
100
AcDbLine
 10
13.75
 20
27.2
 30
0.0
 11
15.45
 21
27.2
 31
0.0
  0
LINE
  5
C8
330
17
100
AcDbEntity
  8
A-VIST
100
AcDbLine
 10
15.45
 20
27.2
 30
0.0
 11
15.45
 21
26.1
 31
0.0
  0
LINE
  5
C9
330
17
100
AcDbEntity
  8
A-VIST
100
AcDbLine
 10
12.75
 20
28.524
 30
0.0
 11
12.75
 21
28.562
 31
0.0
  0
LINE
  5
CA
330
17
100
AcDbEntity
  8
A-VIST
100
AcDbLine
 10
12.55
 20
28.562
 30
0.0
 11
12.555
 21
28.562
 31
0.0
  0
LINE
  5
CB
330
17
100
AcDbEntity
  8
A-VIST
100
AcDbLine
 10
12.704999999999998
 20
28.562
 30
0.0
 11
12.75
 21
28.562
 31
0.0
  0
LINE
  5
CC
330
17
100
AcDbEntity
  8
A-VIST
100
AcDbLine
 10
3.55
 20
27.85
 30
0.0
 11
3.55
 21
30.2729
 31
0.0
  0
LINE
  5
CD
330
17
100
AcDbEntity
  8
A-VIST
100
AcDbLine
 10
3.55
 20
27.85
 30
0.0
 11
12.55
 21
27.85
 31
0.0
  0
LINE
  5
CE
330
17
100
AcDbEntity
  8
A-VIST
100
AcDbLine
 10
3.766
 20
30.35
 30
0.0
 11
12.334
 21
30.35
 31
0.0
  0
LINE
  5
CF
330
17
100
AcDbEntity
  8
A-VIST
100
AcDbLine
 10
12.55
 20
27.85
 30
0.0
 11
12.55
 21
28.382
 31
0.0
  0
LINE
  5
D0
330
17
100
AcDbEntity
  8
A-VIST
100
AcDbLine
 10
12.55
 20
28.562
 30
0.0
 11
12.55
 21
30.2729
 31
0.0
  0
LINE
  5
D1
330
17
100
AcDbEntity
  8
A-VIST
100
AcDbLine
 10
7.25
 20
29.25
 30
0.0
 11
6.449999999999999
 21
29.25
 31
0.0
  0
LINE
  5
D2
330
17
100
AcDbEntity
  8
A-VIST
100
AcDbLine
 10
7.25
 20
30.05
 30
0.0
 11
7.25
 21
29.25
 31
0.0
  0
LINE
  5
D3
330
17
100
AcDbEntity
  8
A-VIST
100
AcDbLine
 10
6.449999999999999
 20
29.25
 30
0.0
 11
6.449999999999999
 21
30.05
 31
0.0
  0
LINE
  5
D4
330
17
100
AcDbEntity
  8
A-VIST
100
AcDbLine
 10
6.449999999999999
 20
30.05
 30
0.0
 11
7.25
 21
30.05
 31
0.0
  0
LINE
  5
D5
330
17
100
AcDbEntity
  8
A-VIST
100
AcDbLine
 10
4.85
 20
28.8
 30
0.0
 11
4.05
 21
28.8
 31
0.0
  0
LINE
  5
D6
330
17
100
AcDbEntity
  8
A-VIST
100
AcDbLine
 10
4.85
 20
30.05
 30
0.0
 11
4.85
 21
28.8
 31
0.0
  0
LINE
  5
D7
330
17
100
AcDbEntity
  8
A-VIST
100
AcDbLine
 10
4.05
 20
28.8
 30
0.0
 11
4.05
 21
30.05
 31
0.0
  0
LINE
  5
D8
330
17
100
AcDbEntity
  8
A-VIST
100
AcDbLine
 10
4.05
 20
30.05
 30
0.0
 11
4.85
 21
30.05
 31
0.0
  0
LINE
  5
D9
330
17
100
AcDbEntity
  8
A-VIST
100
AcDbLine
 10
10.05
 20
28.8
 30
0.0
 11
8.649999999999999
 21
28.8
 31
0.0
  0
LINE
  5
DA
330
17
100
AcDbEntity
  8
A-VIST
100
AcDbLine
 10
10.05
 20
30.05
 30
0.0
 11
10.05
 21
28.8
 31
0.0
  0
LINE
  5
DB
330
17
100
AcDbEntity
  8
A-VIST
100
AcDbLine
 10
8.649999999999999
 20
28.8
 30
0.0
 11
8.649999999999999
 21
30.05
 31
0.0
  0
LINE
  5
DC
330
17
100
AcDbEntity
  8
A-VIST
100
AcDbLine
 10
8.649999999999999
 20
30.05
 30
0.0
 11
10.05
 21
30.05
 31
0.0
  0
LINE
  5
DD
330
17
100
AcDbEntity
  8
A-VIST
100
AcDbLine
 10
12.05
 20
28.8
 30
0.0
 11
10.649999999999999
 21
28.8
 31
0.0
  0
LINE
  5
DE
330
17
100
AcDbEntity
  8
A-VIST
100
AcDbLine
 10
10.649999999999999
 20
28.8
 30
0.0
 11
10.649999999999999
 21
30.05
 31
0.0
  0
LINE
  5
DF
330
17
100
AcDbEntity
  8
A-VIST
100
AcDbLine
 10
10.649999999999999
 20
30.05
 30
0.0
 11
12.05
 21
30.05
 31
0.0
  0
LINE
  5
E0
330
17
100
AcDbEntity
  8
A-VIST
100
AcDbLine
 10
12.05
 20
30.05
 30
0.0
 11
12.05
 21
28.8
 31
0.0
  0
LINE
  5
E1
330
17
100
AcDbEntity
  8
A-VIST
100
AcDbLine
 10
4.05
 20
25.95
 30
0.0
 11
4.85
 21
25.95
 31
0.0
  0
LINE
  5
E2
330
17
100
AcDbEntity
  8
A-VIST
100
AcDbLine
 10
4.05
 20
27.2
 30
0.0
 11
4.05
 21
25.95
 31
0.0
  0
LINE
  5
E3
330
17
100
AcDbEntity
  8
A-VIST
100
AcDbLine
 10
4.85
 20
25.95
 30
0.0
 11
4.85
 21
27.2
 31
0.0
  0
LINE
  5
E4
330
17
100
AcDbEntity
  8
A-VIST
100
AcDbLine
 10
4.85
 20
27.2
 30
0.0
 11
4.05
 21
27.2
 31
0.0
  0
LINE
  5
E5
330
17
100
AcDbEntity
  8
A-VIST
100
AcDbLine
 10
4.1
 20
26.0
 30
0.0
 11
4.8
 21
26.0
 31
0.0
  0
LINE
  5
E6
330
17
100
AcDbEntity
  8
A-VIST
100
AcDbLine
 10
4.8
 20
26.0
 30
0.0
 11
4.8
 21
27.15
 31
0.0
  0
LINE
  5
E7
330
17
100
AcDbEntity
  8
A-VIST
100
AcDbLine
 10
4.8
 20
27.15
 30
0.0
 11
4.1
 21
27.15
 31
0.0
  0
LINE
  5
E8
330
17
100
AcDbEntity
  8
A-VIST
100
AcDbLine
 10
4.1
 20
27.15
 30
0.0
 11
4.1
 21
26.0
 31
0.0
  0
LINE
  5
E9
330
17
100
AcDbEntity
  8
A-VIST
100
AcDbLine
 10
4.1
 20
26.0
 30
0.0
 11
4.8
 21
26.0
 31
0.0
  0
LINE
  5
EA
330
17
100
AcDbEntity
  8
A-VIST
100
AcDbLine
 10
4.8
 20
26.0
 30
0.0
 11
4.8
 21
27.15
 31
0.0
  0
LINE
  5
EB
330
17
100
AcDbEntity
  8
A-VIST
100
AcDbLine
 10
4.8
 20
27.15
 30
0.0
 11
4.1
 21
27.15
 31
0.0
  0
LINE
  5
EC
330
17
100
AcDbEntity
  8
A-VIST
100
AcDbLine
 10
4.1
 20
27.15
 30
0.0
 11
4.1
 21
26.0
 31
0.0
  0
LINE
  5
ED
330
17
100
AcDbEntity
  8
A-VIST
100
AcDbLine
 10
6.449999999999999
 20
26.4
 30
0.0
 11
7.25
 21
26.4
 31
0.0
  0
LINE
  5
EE
330
17
100
AcDbEntity
  8
A-VIST
100
AcDbLine
 10
6.449999999999999
 20
27.2
 30
0.0
 11
6.449999999999999
 21
26.4
 31
0.0
  0
LINE
  5
EF
330
17
100
AcDbEntity
  8
A-VIST
100
AcDbLine
 10
7.25
 20
26.4
 30
0.0
 11
7.25
 21
27.2
 31
0.0
  0
LINE
  5
F0
330
17
100
AcDbEntity
  8
A-VIST
100
AcDbLine
 10
7.25
 20
27.2
 30
0.0
 11
6.449999999999999
 21
27.2
 31
0.0
  0
LINE
  5
F1
330
17
100
AcDbEntity
  8
A-VIST
100
AcDbLine
 10
6.5
 20
26.45
 30
0.0
 11
7.199999999999999
 21
26.45
 31
0.0
  0
LINE
  5
F2
330
17
100
AcDbEntity
  8
A-VIST
100
AcDbLine
 10
7.199999999999999
 20
26.45
 30
0.0
 11
7.199999999999999
 21
27.15
 31
0.0
  0
LINE
  5
F3
330
17
100
AcDbEntity
  8
A-VIST
100
AcDbLine
 10
7.199999999999999
 20
27.15
 30
0.0
 11
6.5
 21
27.15
 31
0.0
  0
LINE
  5
F4
330
17
100
AcDbEntity
  8
A-VIST
100
AcDbLine
 10
6.5
 20
27.15
 30
0.0
 11
6.5
 21
26.45
 31
0.0
  0
LINE
  5
F5
330
17
100
AcDbEntity
  8
A-VIST
100
AcDbLine
 10
6.5
 20
26.45
 30
0.0
 11
7.199999999999999
 21
26.45
 31
0.0
  0
LINE
  5
F6
330
17
100
AcDbEntity
  8
A-VIST
100
AcDbLine
 10
7.199999999999999
 20
26.45
 30
0.0
 11
7.199999999999999
 21
27.15
 31
0.0
  0
LINE
  5
F7
330
17
100
AcDbEntity
  8
A-VIST
100
AcDbLine
 10
7.199999999999999
 20
27.15
 30
0.0
 11
6.5
 21
27.15
 31
0.0
  0
LINE
  5
F8
330
17
100
AcDbEntity
  8
A-VIST
100
AcDbLine
 10
6.5
 20
27.15
 30
0.0
 11
6.5
 21
26.45
 31
0.0
  0
LINE
  5
F9
330
17
100
AcDbEntity
  8
A-VIST
100
AcDbLine
 10
9.649999999999999
 20
27.1
 30
0.0
 11
8.75
 21
27.1
 31
0.0
  0
LINE
  5
FA
330
17
100
AcDbEntity
  8
A-VIST
100
AcDbLine
 10
9.6
 20
25.0
 30
0.0
 11
9.6
 21
27.05
 31
0.0
  0
LINE
  5
FB
330
17
100
AcDbEntity
  8
A-VIST
100
AcDbLine
 10
9.6
 20
27.05
 30
0.0
 11
8.8
 21
27.05
 31
0.0
  0
LINE
  5
FC
330
17
100
AcDbEntity
  8
A-VIST
100
AcDbLine
 10
8.8
 20
27.05
 30
0.0
 11
8.8
 21
25.0
 31
0.0
  0
LINE
  5
FD
330
17
100
AcDbEntity
  8
A-VIST
100
AcDbLine
 10
9.6
 20
27.05
 30
0.0
 11
8.8
 21
27.05
 31
0.0
  0
LINE
  5
FE
330
17
100
AcDbEntity
  8
A-VIST
100
AcDbLine
 10
9.8
 20
25.95
 30
0.0
 11
10.25
 21
25.95
 31
0.0
  0
LINE
  5
FF
330
17
100
AcDbEntity
  8
A-VIST
100
AcDbLine
 10
9.8
 20
27.3
 30
0.0
 11
9.8
 21
25.95
 31
0.0
  0
LINE
  5
100
330
17
100
AcDbEntity
  8
A-VIST
100
AcDbLine
 10
10.25
 20
25.95
 30
0.0
 11
10.25
 21
27.3
 31
0.0
  0
LINE
  5
101
330
17
100
AcDbEntity
  8
A-VIST
100
AcDbLine
 10
10.25
 20
27.3
 30
0.0
 11
9.8
 21
27.3
 31
0.0
  0
LINE
  5
102
330
17
100
AcDbEntity
  8
A-VIST
100
AcDbLine
 10
9.85
 20
26.0
 30
0.0
 11
10.2
 21
26.0
 31
0.0
  0
LINE
  5
103
330
17
100
AcDbEntity
  8
A-VIST
100
AcDbLine
 10
10.2
 20
26.0
 30
0.0
 11
10.2
 21
27.25
 31
0.0
  0
LINE
  5
104
330
17
100
AcDbEntity
  8
A-VIST
100
AcDbLine
 10
10.2
 20
27.25
 30
0.0
 11
9.85
 21
27.25
 31
0.0
  0
LINE
  5
105
330
17
100
AcDbEntity
  8
A-VIST
100
AcDbLine
 10
9.85
 20
27.25
 30
0.0
 11
9.85
 21
26.0
 31
0.0
  0
LINE
  5
106
330
17
100
AcDbEntity
  8
A-VIST
100
AcDbLine
 10
9.85
 20
26.0
 30
0.0
 11
10.2
 21
26.0
 31
0.0
  0
LINE
  5
107
330
17
100
AcDbEntity
  8
A-VIST
100
AcDbLine
 10
10.2
 20
26.0
 30
0.0
 11
10.2
 21
27.25
 31
0.0
  0
LINE
  5
108
330
17
100
AcDbEntity
  8
A-VIST
100
AcDbLine
 10
10.2
 20
27.25
 30
0.0
 11
9.85
 21
27.25
 31
0.0
  0
LINE
  5
109
330
17
100
AcDbEntity
  8
A-VIST
100
AcDbLine
 10
9.85
 20
27.25
 30
0.0
 11
9.85
 21
26.0
 31
0.0
  0
LINE
  5
10A
330
17
100
AcDbEntity
  8
A-VIST
100
AcDbLine
 10
10.95
 20
25.95
 30
0.0
 11
12.149999999999999
 21
25.95
 31
0.0
  0
LINE
  5
10B
330
17
100
AcDbEntity
  8
A-VIST
100
AcDbLine
 10
10.95
 20
27.2
 30
0.0
 11
10.95
 21
25.95
 31
0.0
  0
LINE
  5
10C
330
17
100
AcDbEntity
  8
A-VIST
100
AcDbLine
 10
12.149999999999999
 20
25.95
 30
0.0
 11
12.149999999999999
 21
27.2
 31
0.0
  0
LINE
  5
10D
330
17
100
AcDbEntity
  8
A-VIST
100
AcDbLine
 10
12.149999999999999
 20
27.2
 30
0.0
 11
10.95
 21
27.2
 31
0.0
  0
LINE
  5
10E
330
17
100
AcDbEntity
  8
A-VIST
100
AcDbLine
 10
11.0
 20
26.0
 30
0.0
 11
12.100000000000001
 21
26.0
 31
0.0
  0
LINE
  5
10F
330
17
100
AcDbEntity
  8
A-VIST
100
AcDbLine
 10
12.100000000000001
 20
26.0
 30
0.0
 11
12.100000000000001
 21
27.15
 31
0.0
  0
LINE
  5
110
330
17
100
AcDbEntity
  8
A-VIST
100
AcDbLine
 10
12.100000000000001
 20
27.15
 30
0.0
 11
11.0
 21
27.15
 31
0.0
  0
LINE
  5
111
330
17
100
AcDbEntity
  8
A-VIST
100
AcDbLine
 10
11.0
 20
27.15
 30
0.0
 11
11.0
 21
26.0
 31
0.0
  0
LINE
  5
112
330
17
100
AcDbEntity
  8
A-VIST
100
AcDbLine
 10
11.0
 20
26.0
 30
0.0
 11
12.100000000000001
 21
26.0
 31
0.0
  0
LINE
  5
113
330
17
100
AcDbEntity
  8
A-VIST
100
AcDbLine
 10
12.100000000000001
 20
26.0
 30
0.0
 11
12.100000000000001
 21
27.15
 31
0.0
  0
LINE
  5
114
330
17
100
AcDbEntity
  8
A-VIST
100
AcDbLine
 10
12.100000000000001
 20
27.15
 30
0.0
 11
11.0
 21
27.15
 31
0.0
  0
LINE
  5
115
330
17
100
AcDbEntity
  8
A-VIST
100
AcDbLine
 10
11.0
 20
27.15
 30
0.0
 11
11.0
 21
26.0
 31
0.0
  0
LINE
  5
116
330
17
100
AcDbEntity
  8
A-VIST
100
AcDbLine
 10
13.75
 20
26.1
 30
0.0
 11
15.45
 21
26.1
 31
0.0
  0
LINE
  5
117
330
17
100
AcDbEntity
  8
A-VIST
100
AcDbLine
 10
13.75
 20
27.2
 30
0.0
 11
13.75
 21
26.1
 31
0.0
  0
LINE
  5
118
330
17
100
AcDbEntity
  8
A-VIST
100
AcDbLine
 10
15.45
 20
26.1
 30
0.0
 11
15.45
 21
27.2
 31
0.0
  0
LINE
  5
119
330
17
100
AcDbEntity
  8
A-VIST
100
AcDbLine
 10
15.45
 20
27.2
 30
0.0
 11
13.75
 21
27.2
 31
0.0
  0
LINE
  5
11A
330
17
100
AcDbEntity
  8
A-VIST
100
AcDbLine
 10
13.8
 20
26.15
 30
0.0
 11
15.399999999999999
 21
26.15
 31
0.0
  0
LINE
  5
11B
330
17
100
AcDbEntity
  8
A-VIST
100
AcDbLine
 10
15.399999999999999
 20
26.15
 30
0.0
 11
15.399999999999999
 21
27.15
 31
0.0
  0
LINE
  5
11C
330
17
100
AcDbEntity
  8
A-VIST
100
AcDbLine
 10
15.399999999999999
 20
27.15
 30
0.0
 11
13.8
 21
27.15
 31
0.0
  0
LINE
  5
11D
330
17
100
AcDbEntity
  8
A-VIST
100
AcDbLine
 10
13.8
 20
27.15
 30
0.0
 11
13.8
 21
26.15
 31
0.0
  0
LINE
  5
11E
330
17
100
AcDbEntity
  8
A-VIST
100
AcDbLine
 10
13.8
 20
26.15
 30
0.0
 11
15.399999999999999
 21
26.15
 31
0.0
  0
LINE
  5
11F
330
17
100
AcDbEntity
  8
A-VIST
100
AcDbLine
 10
15.399999999999999
 20
26.15
 30
0.0
 11
15.399999999999999
 21
27.15
 31
0.0
  0
LINE
  5
120
330
17
100
AcDbEntity
  8
A-VIST
100
AcDbLine
 10
15.399999999999999
 20
27.15
 30
0.0
 11
13.8
 21
27.15
 31
0.0
  0
LINE
  5
121
330
17
100
AcDbEntity
  8
A-VIST
100
AcDbLine
 10
13.8
 20
27.15
 30
0.0
 11
13.8
 21
26.15
 31
0.0
  0
LINE
  5
122
330
17
100
AcDbEntity
  8
A-VIST
100
AcDbLine
 10
4.05
 20
28.8
 30
0.0
 11
4.85
 21
28.8
 31
0.0
  0
LINE
  5
123
330
17
100
AcDbEntity
  8
A-VIST
100
AcDbLine
 10
4.05
 20
30.05
 30
0.0
 11
4.05
 21
28.8
 31
0.0
  0
LINE
  5
124
330
17
100
AcDbEntity
  8
A-VIST
100
AcDbLine
 10
4.85
 20
28.8
 30
0.0
 11
4.85
 21
30.05
 31
0.0
  0
LINE
  5
125
330
17
100
AcDbEntity
  8
A-VIST
100
AcDbLine
 10
4.85
 20
30.05
 30
0.0
 11
4.05
 21
30.05
 31
0.0
  0
LINE
  5
126
330
17
100
AcDbEntity
  8
A-VIST
100
AcDbLine
 10
4.1
 20
28.85
 30
0.0
 11
4.8
 21
28.85
 31
0.0
  0
LINE
  5
127
330
17
100
AcDbEntity
  8
A-VIST
100
AcDbLine
 10
4.8
 20
28.85
 30
0.0
 11
4.8
 21
30.0
 31
0.0
  0
LINE
  5
128
330
17
100
AcDbEntity
  8
A-VIST
100
AcDbLine
 10
4.8
 20
30.0
 30
0.0
 11
4.1
 21
30.0
 31
0.0
  0
LINE
  5
129
330
17
100
AcDbEntity
  8
A-VIST
100
AcDbLine
 10
4.1
 20
30.0
 30
0.0
 11
4.1
 21
28.85
 31
0.0
  0
LINE
  5
12A
330
17
100
AcDbEntity
  8
A-VIST
100
AcDbLine
 10
4.1
 20
28.85
 30
0.0
 11
4.8
 21
28.85
 31
0.0
  0
LINE
  5
12B
330
17
100
AcDbEntity
  8
A-VIST
100
AcDbLine
 10
4.8
 20
28.85
 30
0.0
 11
4.8
 21
30.0
 31
0.0
  0
LINE
  5
12C
330
17
100
AcDbEntity
  8
A-VIST
100
AcDbLine
 10
4.8
 20
30.0
 30
0.0
 11
4.1
 21
30.0
 31
0.0
  0
LINE
  5
12D
330
17
100
AcDbEntity
  8
A-VIST
100
AcDbLine
 10
4.1
 20
30.0
 30
0.0
 11
4.1
 21
28.85
 31
0.0
  0
LINE
  5
12E
330
17
100
AcDbEntity
  8
A-VIST
100
AcDbLine
 10
6.449999999999999
 20
29.25
 30
0.0
 11
7.25
 21
29.25
 31
0.0
  0
LINE
  5
12F
330
17
100
AcDbEntity
  8
A-VIST
100
AcDbLine
 10
6.449999999999999
 20
30.05
 30
0.0
 11
6.449999999999999
 21
29.25
 31
0.0
  0
LINE
  5
130
330
17
100
AcDbEntity
  8
A-VIST
100
AcDbLine
 10
7.25
 20
29.25
 30
0.0
 11
7.25
 21
30.05
 31
0.0
  0
LINE
  5
131
330
17
100
AcDbEntity
  8
A-VIST
100
AcDbLine
 10
7.25
 20
30.05
 30
0.0
 11
6.449999999999999
 21
30.05
 31
0.0
  0
LINE
  5
132
330
17
100
AcDbEntity
  8
A-VIST
100
AcDbLine
 10
6.5
 20
29.3
 30
0.0
 11
7.199999999999999
 21
29.3
 31
0.0
  0
LINE
  5
133
330
17
100
AcDbEntity
  8
A-VIST
100
AcDbLine
 10
7.199999999999999
 20
29.3
 30
0.0
 11
7.199999999999999
 21
30.0
 31
0.0
  0
LINE
  5
134
330
17
100
AcDbEntity
  8
A-VIST
100
AcDbLine
 10
7.199999999999999
 20
30.0
 30
0.0
 11
6.5
 21
30.0
 31
0.0
  0
LINE
  5
135
330
17
100
AcDbEntity
  8
A-VIST
100
AcDbLine
 10
6.5
 20
30.0
 30
0.0
 11
6.5
 21
29.3
 31
0.0
  0
LINE
  5
136
330
17
100
AcDbEntity
  8
A-VIST
100
AcDbLine
 10
6.5
 20
29.3
 30
0.0
 11
7.199999999999999
 21
29.3
 31
0.0
  0
LINE
  5
137
330
17
100
AcDbEntity
  8
A-VIST
100
AcDbLine
 10
7.199999999999999
 20
29.3
 30
0.0
 11
7.199999999999999
 21
30.0
 31
0.0
  0
LINE
  5
138
330
17
100
AcDbEntity
  8
A-VIST
100
AcDbLine
 10
7.199999999999999
 20
30.0
 30
0.0
 11
6.5
 21
30.0
 31
0.0
  0
LINE
  5
139
330
17
100
AcDbEntity
  8
A-VIST
100
AcDbLine
 10
6.5
 20
30.0
 30
0.0
 11
6.5
 21
29.3
 31
0.0
  0
LINE
  5
13A
330
17
100
AcDbEntity
  8
A-VIST
100
AcDbLine
 10
8.649999999999999
 20
28.8
 30
0.0
 11
10.05
 21
28.8
 31
0.0
  0
LINE
  5
13B
330
17
100
AcDbEntity
  8
A-VIST
100
AcDbLine
 10
8.649999999999999
 20
30.05
 30
0.0
 11
8.649999999999999
 21
28.8
 31
0.0
  0
LINE
  5
13C
330
17
100
AcDbEntity
  8
A-VIST
100
AcDbLine
 10
10.05
 20
28.8
 30
0.0
 11
10.05
 21
30.05
 31
0.0
  0
LINE
  5
13D
330
17
100
AcDbEntity
  8
A-VIST
100
AcDbLine
 10
10.05
 20
30.05
 30
0.0
 11
8.649999999999999
 21
30.05
 31
0.0
  0
LINE
  5
13E
330
17
100
AcDbEntity
  8
A-VIST
100
AcDbLine
 10
8.7
 20
28.85
 30
0.0
 11
10.0
 21
28.85
 31
0.0
  0
LINE
  5
13F
330
17
100
AcDbEntity
  8
A-VIST
100
AcDbLine
 10
10.0
 20
28.85
 30
0.0
 11
10.0
 21
30.0
 31
0.0
  0
LINE
  5
140
330
17
100
AcDbEntity
  8
A-VIST
100
AcDbLine
 10
10.0
 20
30.0
 30
0.0
 11
8.7
 21
30.0
 31
0.0
  0
LINE
  5
141
330
17
100
AcDbEntity
  8
A-VIST
100
AcDbLine
 10
8.7
 20
30.0
 30
0.0
 11
8.7
 21
28.85
 31
0.0
  0
LINE
  5
142
330
17
100
AcDbEntity
  8
A-VIST
100
AcDbLine
 10
8.7
 20
28.85
 30
0.0
 11
10.0
 21
28.85
 31
0.0
  0
LINE
  5
143
330
17
100
AcDbEntity
  8
A-VIST
100
AcDbLine
 10
10.0
 20
28.85
 30
0.0
 11
10.0
 21
30.0
 31
0.0
  0
LINE
  5
144
330
17
100
AcDbEntity
  8
A-VIST
100
AcDbLine
 10
10.0
 20
30.0
 30
0.0
 11
8.7
 21
30.0
 31
0.0
  0
LINE
  5
145
330
17
100
AcDbEntity
  8
A-VIST
100
AcDbLine
 10
8.7
 20
30.0
 30
0.0
 11
8.7
 21
28.85
 31
0.0
  0
LINE
  5
146
330
17
100
AcDbEntity
  8
A-VIST
100
AcDbLine
 10
10.649999999999999
 20
28.8
 30
0.0
 11
12.05
 21
28.8
 31
0.0
  0
LINE
  5
147
330
17
100
AcDbEntity
  8
A-VIST
100
AcDbLine
 10
10.649999999999999
 20
30.05
 30
0.0
 11
10.649999999999999
 21
28.8
 31
0.0
  0
LINE
  5
148
330
17
100
AcDbEntity
  8
A-VIST
100
AcDbLine
 10
12.05
 20
28.8
 30
0.0
 11
12.05
 21
30.05
 31
0.0
  0
LINE
  5
149
330
17
100
AcDbEntity
  8
A-VIST
100
AcDbLine
 10
12.05
 20
30.05
 30
0.0
 11
10.649999999999999
 21
30.05
 31
0.0
  0
LINE
  5
14A
330
17
100
AcDbEntity
  8
A-VIST
100
AcDbLine
 10
10.7
 20
28.85
 30
0.0
 11
12.0
 21
28.85
 31
0.0
  0
LINE
  5
14B
330
17
100
AcDbEntity
  8
A-VIST
100
AcDbLine
 10
12.0
 20
28.85
 30
0.0
 11
12.0
 21
30.0
 31
0.0
  0
LINE
  5
14C
330
17
100
AcDbEntity
  8
A-VIST
100
AcDbLine
 10
12.0
 20
30.0
 30
0.0
 11
10.7
 21
30.0
 31
0.0
  0
LINE
  5
14D
330
17
100
AcDbEntity
  8
A-VIST
100
AcDbLine
 10
10.7
 20
30.0
 30
0.0
 11
10.7
 21
28.85
 31
0.0
  0
LINE
  5
14E
330
17
100
AcDbEntity
  8
A-VIST
100
AcDbLine
 10
10.7
 20
28.85
 30
0.0
 11
12.0
 21
28.85
 31
0.0
  0
LINE
  5
14F
330
17
100
AcDbEntity
  8
A-VIST
100
AcDbLine
 10
12.0
 20
28.85
 30
0.0
 11
12.0
 21
30.0
 31
0.0
  0
LINE
  5
150
330
17
100
AcDbEntity
  8
A-VIST
100
AcDbLine
 10
12.0
 20
30.0
 30
0.0
 11
10.7
 21
30.0
 31
0.0
  0
LINE
  5
151
330
17
100
AcDbEntity
  8
A-VIST
100
AcDbLine
 10
10.7
 20
30.0
 30
0.0
 11
10.7
 21
28.85
 31
0.0
  0
LINE
  5
152
330
17
100
AcDbEntity
  8
A-VIST
100
AcDbLine
 10
16.55
 20
24.65
 30
0.0
 11
16.55
 21
25.0
 31
0.0
  0
LINE
  5
153
330
17
100
AcDbEntity
  8
A-VIST
100
AcDbLine
 10
3.55
 20
24.65
 30
0.0
 11
3.55
 21
25.0
 31
0.0
  0
LINE
  5
154
330
17
100
AcDbEntity
  8
A-VIST
100
AcDbLine
 10
16.55
 20
24.65
 30
0.0
 11
3.55
 21
24.65
 31
0.0
  0
LINE
  5
155
330
17
100
AcDbEntity
  8
A-VIST
100
AcDbLine
 10
16.55
 20
25.0
 30
0.0
 11
3.55
 21
25.0
 31
0.0
  0
LINE
  5
156
330
17
100
AcDbEntity
  8
A-VIST
100
AcDbLine
 10
12.55
 20
27.6
 30
0.0
 11
3.55
 21
27.6
 31
0.0
  0
LINE
  5
157
330
17
100
AcDbEntity
  8
A-VIST
100
AcDbLine
 10
12.55
 20
27.6
 30
0.0
 11
12.55
 21
27.85
 31
0.0
  0
LINE
  5
158
330
17
100
AcDbEntity
  8
A-VIST
100
AcDbLine
 10
3.55
 20
27.6
 30
0.0
 11
3.55
 21
27.85
 31
0.0
  0
LINE
  5
159
330
17
100
AcDbEntity
  8
A-VIST
100
AcDbLine
 10
12.55
 20
27.85
 30
0.0
 11
3.55
 21
27.85
 31
0.0
  0
LINE
  5
15A
330
17
100
AcDbEntity
  8
A-VIST
100
AcDbLine
 10
8.05
 20
31.88
 30
0.0
 11
3.766
 21
30.35
 31
0.0
  0
LINE
  5
15B
330
17
100
AcDbEntity
  8
A-VIST
100
AcDbLine
 10
3.766
 20
30.35
 30
0.0
 11
12.334
 21
30.35
 31
0.0
  0
LINE
  5
15C
330
17
100
AcDbEntity
  8
A-VIST
100
AcDbLine
 10
12.334
 20
30.35
 30
0.0
 11
8.05
 21
31.88
 31
0.0
  0
LINE
  5
15D
330
17
100
AcDbEntity
  8
A-VIST
100
AcDbLine
 10
12.55
 20
28.382
 30
0.0
 11
12.55
 21
27.802
 31
0.0
  0
LINE
  5
15E
330
17
100
AcDbEntity
  8
A-VIST
100
AcDbLine
 10
12.55
 20
27.802
 30
0.0
 11
15.602599999999999
 21
27.802
 31
0.0
  0
LINE
  5
15F
330
17
100
AcDbEntity
  8
A-VIST
100
AcDbLine
 10
8.05
 20
31.88
 30
0.0
 11
3.15
 21
30.13
 31
0.0
  0
LINE
  5
160
330
17
100
AcDbEntity
  8
A-VIST
100
AcDbLine
 10
12.95
 20
30.13
 30
0.0
 11
8.05
 21
31.88
 31
0.0
  0
LINE
  5
161
330
17
100
AcDbEntity
  8
A-VIST
100
AcDbLine
 10
12.95
 20
30.13
 30
0.0
 11
12.95
 21
30.35
 31
0.0
  0
LINE
  5
162
330
17
100
AcDbEntity
  8
A-VIST
100
AcDbLine
 10
8.05
 20
32.1
 30
0.0
 11
12.95
 21
30.35
 31
0.0
  0
LINE
  5
163
330
17
100
AcDbEntity
  8
A-VIST
100
AcDbLine
 10
3.15
 20
30.35
 30
0.0
 11
8.05
 21
32.1
 31
0.0
  0
LINE
  5
164
330
17
100
AcDbEntity
  8
A-VIST
100
AcDbLine
 10
3.15
 20
30.35
 30
0.0
 11
3.15
 21
30.13
 31
0.0
  0
LINE
  5
165
330
17
100
AcDbEntity
  8
A-VIST
100
AcDbLine
 10
12.350000000000001
 20
28.6
 30
0.0
 11
12.350000000000001
 21
28.42
 31
0.0
  0
LINE
  5
166
330
17
100
AcDbEntity
  8
A-VIST
100
AcDbLine
 10
16.95
 20
27.546
 30
0.0
 11
12.350000000000001
 21
28.42
 31
0.0
  0
LINE
  5
167
330
17
100
AcDbEntity
  8
A-VIST
100
AcDbLine
 10
16.95
 20
27.546
 30
0.0
 11
16.95
 21
27.726
 31
0.0
  0
LINE
  5
168
330
17
100
AcDbEntity
  8
A-VIST
100
AcDbLine
 10
12.350000000000001
 20
28.6
 30
0.0
 11
16.95
 21
27.726
 31
0.0
  0
LINE
  5
169
330
17
100
AcDbEntity
  8
A-VIST
100
AcDbLine
 10
3.15
 20
30.234
 30
0.0
 11
3.0
 21
30.234
 31
0.0
  0
LINE
  5
16A
330
17
100
AcDbEntity
  8
A-VIST
100
AcDbLine
 10
3.15
 20
30.234
 30
0.0
 11
3.15
 21
30.334
 31
0.0
  0
LINE
  5
16B
330
17
100
AcDbEntity
  8
A-VIST
100
AcDbLine
 10
3.0
 20
30.334
 30
0.0
 11
3.15
 21
30.334
 31
0.0
  0
LINE
  5
16C
330
17
100
AcDbEntity
  8
A-VIST
100
AcDbLine
 10
3.0
 20
30.334
 30
0.0
 11
3.0
 21
30.234
 31
0.0
  0
LINE
  5
16D
330
17
100
AcDbEntity
  8
A-VIST
100
AcDbLine
 10
11.35
 20
30.9214
 30
0.0
 11
11.35
 21
30.959
 31
0.0
  0
LINE
  5
16E
330
17
100
AcDbEntity
  8
A-VIST
100
AcDbLine
 10
11.2448
 20
30.959
 30
0.0
 11
11.35
 21
30.959
 31
0.0
  0
LINE
  5
16F
330
17
100
AcDbEntity
  8
A-VIST
100
AcDbLine
 10
9.35
 20
31.6357
 30
0.0
 11
9.35
 21
31.673000000000002
 31
0.0
  0
LINE
  5
170
330
17
100
AcDbEntity
  8
A-VIST
100
AcDbLine
 10
9.2456
 20
31.673000000000002
 30
0.0
 11
9.35
 21
31.673000000000002
 31
0.0
  0
LINE
  5
171
330
17
100
AcDbEntity
  8
A-VIST
100
AcDbLine
 10
13.100000000000001
 20
30.234
 30
0.0
 11
12.95
 21
30.234
 31
0.0
  0
LINE
  5
172
330
17
100
AcDbEntity
  8
A-VIST
100
AcDbLine
 10
13.100000000000001
 20
30.234
 30
0.0
 11
13.100000000000001
 21
30.334
 31
0.0
  0
LINE
  5
173
330
17
100
AcDbEntity
  8
A-VIST
100
AcDbLine
 10
12.95
 20
30.334
 30
0.0
 11
13.100000000000001
 21
30.334
 31
0.0
  0
LINE
  5
174
330
17
100
AcDbEntity
  8
A-VIST
100
AcDbLine
 10
12.95
 20
30.334
 30
0.0
 11
12.95
 21
30.234
 31
0.0
  0
LINE
  5
175
330
17
100
AcDbEntity
  8
A-VIST
100
AcDbLine
 10
17.1
 20
27.608
 30
0.0
 11
16.95
 21
27.608
 31
0.0
  0
LINE
  5
176
330
17
100
AcDbEntity
  8
A-VIST
100
AcDbLine
 10
17.1
 20
27.608
 30
0.0
 11
17.1
 21
27.708
 31
0.0
  0
LINE
  5
177
330
17
100
AcDbEntity
  8
A-VIST
100
AcDbLine
 10
16.95
 20
27.708
 30
0.0
 11
17.1
 21
27.708
 31
0.0
  0
LINE
  5
178
330
17
100
AcDbEntity
  8
A-VIST
100
AcDbLine
 10
16.95
 20
27.708
 30
0.0
 11
16.95
 21
27.608
 31
0.0
  0
LINE
  5
179
330
17
100
AcDbEntity
  8
A-VIST
100
AcDbLine
 10
12.704999999999998
 20
28.5326
 30
0.0
 11
12.704999999999998
 21
28.578
 31
0.0
  0
LINE
  5
17A
330
17
100
AcDbEntity
  8
A-VIST
100
AcDbLine
 10
12.555
 20
28.578
 30
0.0
 11
12.704999999999998
 21
28.578
 31
0.0
  0
LINE
  5
17B
330
17
100
AcDbEntity
  8
A-VIST
100
AcDbLine
 10
12.555
 20
28.578
 30
0.0
 11
12.555
 21
28.5611
 31
0.0
  0
LINE
  5
17C
330
17
100
AcDbEntity
  8
A-VIST
100
AcDbLine
 10
3.53
 20
24.85
 30
0.0
 11
3.4499999999999997
 21
24.85
 31
0.0
  0
LINE
  5
17D
330
17
100
AcDbEntity
  8
A-VIST
100
AcDbLine
 10
3.53
 20
24.85
 30
0.0
 11
3.53
 21
30.003999999999998
 31
0.0
  0
LINE
  5
17E
330
17
100
AcDbEntity
  8
A-VIST
100
AcDbLine
 10
3.4499999999999997
 20
30.003999999999998
 30
0.0
 11
3.53
 21
30.003999999999998
 31
0.0
  0
LINE
  5
17F
330
17
100
AcDbEntity
  8
A-VIST
100
AcDbLine
 10
3.4499999999999997
 20
30.003999999999998
 30
0.0
 11
3.4499999999999997
 21
24.85
 31
0.0
  0
LINE
  5
180
330
17
100
AcDbEntity
  8
A-VIST
100
AcDbLine
 10
3.53
 20
30.003999999999998
 30
0.0
 11
3.11
 21
30.003999999999998
 31
0.0
  0
LINE
  5
181
330
17
100
AcDbEntity
  8
A-VIST
100
AcDbLine
 10
3.53
 20
30.003999999999998
 30
0.0
 11
3.53
 21
30.084
 31
0.0
  0
LINE
  5
182
330
17
100
AcDbEntity
  8
A-VIST
100
AcDbLine
 10
3.11
 20
30.084
 30
0.0
 11
3.53
 21
30.084
 31
0.0
  0
LINE
  5
183
330
17
100
AcDbEntity
  8
A-VIST
100
AcDbLine
 10
3.11
 20
30.084
 30
0.0
 11
3.11
 21
30.003999999999998
 31
0.0
  0
LINE
  5
184
330
17
100
AcDbEntity
  8
A-VIST
100
AcDbLine
 10
12.64
 20
28.578
 30
0.0
 11
12.64
 21
30.003999999999998
 31
0.0
  0
LINE
  5
185
330
17
100
AcDbEntity
  8
A-VIST
100
AcDbLine
 10
12.559999999999999
 20
30.003999999999998
 30
0.0
 11
12.64
 21
30.003999999999998
 31
0.0
  0
LINE
  5
186
330
17
100
AcDbEntity
  8
A-VIST
100
AcDbLine
 10
12.559999999999999
 20
30.003999999999998
 30
0.0
 11
12.559999999999999
 21
28.578
 31
0.0
  0
LINE
  5
187
330
17
100
AcDbEntity
  8
A-VIST
100
AcDbLine
 10
12.989999999999998
 20
30.003999999999998
 30
0.0
 11
12.559999999999999
 21
30.003999999999998
 31
0.0
  0
LINE
  5
188
330
17
100
AcDbEntity
  8
A-VIST
100
AcDbLine
 10
12.989999999999998
 20
30.003999999999998
 30
0.0
 11
12.989999999999998
 21
30.084
 31
0.0
  0
LINE
  5
189
330
17
100
AcDbEntity
  8
A-VIST
100
AcDbLine
 10
12.559999999999999
 20
30.084
 30
0.0
 11
12.989999999999998
 21
30.084
 31
0.0
  0
LINE
  5
18A
330
17
100
AcDbEntity
  8
A-VIST
100
AcDbLine
 10
12.559999999999999
 20
30.084
 30
0.0
 11
12.559999999999999
 21
30.003999999999998
 31
0.0
  0
LINE
  5
18B
330
17
100
AcDbEntity
  8
A-VIST
100
AcDbLine
 10
16.64
 20
24.85
 30
0.0
 11
16.56
 21
24.85
 31
0.0
  0
LINE
  5
18C
330
17
100
AcDbEntity
  8
A-VIST
100
AcDbLine
 10
16.64
 20
24.85
 30
0.0
 11
16.64
 21
27.378
 31
0.0
  0
LINE
  5
18D
330
17
100
AcDbEntity
  8
A-VIST
100
AcDbLine
 10
16.56
 20
27.378
 30
0.0
 11
16.64
 21
27.378
 31
0.0
  0
LINE
  5
18E
330
17
100
AcDbEntity
  8
A-VIST
100
AcDbLine
 10
16.56
 20
27.378
 30
0.0
 11
16.56
 21
24.85
 31
0.0
  0
LINE
  5
18F
330
17
100
AcDbEntity
  8
A-VIST
100
AcDbLine
 10
16.99
 20
27.378
 30
0.0
 11
16.56
 21
27.378
 31
0.0
  0
LINE
  5
190
330
17
100
AcDbEntity
  8
A-VIST
100
AcDbLine
 10
16.99
 20
27.378
 30
0.0
 11
16.99
 21
27.458
 31
0.0
  0
LINE
  5
191
330
17
100
AcDbEntity
  8
A-VIST
100
AcDbLine
 10
16.56
 20
27.458
 30
0.0
 11
16.99
 21
27.458
 31
0.0
  0
LINE
  5
192
330
17
100
AcDbEntity
  8
A-VIST
100
AcDbLine
 10
16.56
 20
27.458
 30
0.0
 11
16.56
 21
27.378
 31
0.0
  0
LINE
  5
193
330
17
100
AcDbEntity
  8
A-TERR
100
AcDbLine
 10
2.2
 20
24.85
 30
0.0
 11
17.900000000000002
 21
24.85
 31
0.0
  0
LINE
  5
194
330
17
100
AcDbEntity
  8
A-NIVEL
100
AcDbLine
 10
17.700000000000003
 20
25.0
 30
0.0
 11
19.1
 21
25.0
 31
0.0
  0
LWPOLYLINE
  5
195
330
17
100
AcDbEntity
  8
A-NIVEL
100
AcDbPolyline
 90
3
 70
1
 10
17.900000000000002
 20
25.0
 10
18.1
 20
25.25
 10
17.700000000000003
 20
25.25
  0
TEXT
  5
196
330
17
100
AcDbEntity
  8
A-NIVEL
100
AcDbText
 10
18.200000000000003
 20
25.08
 30
0.0
 40
0.2
  1
NPT ±0,00
  7
ARQ
 11
18.200000000000003
 21
25.08
 31
0.0
100
AcDbText
  0
LINE
  5
197
330
17
100
AcDbEntity
  8
A-NIVEL
100
AcDbLine
 10
17.700000000000003
 20
27.85
 30
0.0
 11
19.1
 21
27.85
 31
0.0
  0
LWPOLYLINE
  5
198
330
17
100
AcDbEntity
  8
A-NIVEL
100
AcDbPolyline
 90
3
 70
1
 10
17.900000000000002
 20
27.85
 10
18.1
 20
28.1
 10
17.700000000000003
 20
28.1
  0
TEXT
  5
199
330
17
100
AcDbEntity
  8
A-NIVEL
100
AcDbText
 10
18.200000000000003
 20
27.93
 30
0.0
 40
0.2
  1
NPT +2,85
  7
ARQ
 11
18.200000000000003
 21
27.93
 31
0.0
100
AcDbText
  0
LINE
  5
19A
330
17
100
AcDbEntity
  8
A-NIVEL
100
AcDbLine
 10
17.700000000000003
 20
32.1
 30
0.0
 11
19.1
 21
32.1
 31
0.0
  0
LWPOLYLINE
  5
19B
330
17
100
AcDbEntity
  8
A-NIVEL
100
AcDbPolyline
 90
3
 70
1
 10
17.900000000000002
 20
32.1
 10
18.1
 20
32.35
 10
17.700000000000003
 20
32.35
  0
TEXT
  5
19C
330
17
100
AcDbEntity
  8
A-NIVEL
100
AcDbText
 10
18.200000000000003
 20
32.18
 30
0.0
 40
0.2
  1
+7,10
  7
ARQ
 11
18.200000000000003
 21
32.18
 31
0.0
100
AcDbText
  0
TEXT
  5
19D
330
17
100
AcDbEntity
  8
A-TEXT
100
AcDbText
 10
3.0
 20
23.4
 30
0.0
 40
0.4
  1
ELEVACIÓN SUR
  7
ARQ
 11
3.0
 21
23.4
 31
0.0
100
AcDbText
  0
TEXT
  5
19E
330
17
100
AcDbEntity
  8
A-TEXT
 62
8
100
AcDbText
 10
3.0
 20
22.849999999999998
 30
0.0
 40
0.22000000000000003
  1
Escala 1:100
  7
ARQ
 11
3.0
 21
22.849999999999998
 31
0.0
100
AcDbText
  0
LINE
  5
19F
330
17
100
AcDbEntity
  8
A-TERM
100
AcDbLine
 10
3.4
 20
25.6
 30
0.0
 11
16.700000000000003
 21
25.6
 31
0.0
  0
CIRCLE
  5
1A0
330
17
100
AcDbEntity
  8
A-TERM
100
AcDbCircle
 10
2.2
 20
26.6
 30
0.0
 40
0.26
  0
TEXT
  5
1A1
330
17
100
AcDbEntity
  8
A-TERM
100
AcDbText
 10
2.2
 20
26.6
 30
0.0
 40
0.24
  1
1
  7
ARQ
 72
1
 11
2.2
 21
26.6
 31
0.0
100
AcDbText
 73
2
  0
LINE
  5
1A2
330
17
100
AcDbEntity
  8
A-TERM
100
AcDbLine
 10
2.46
 20
26.6
 30
0.0
 11
3.52
 21
26.6
 31
0.0
  0
CIRCLE
  5
1A3
330
17
100
AcDbEntity
  8
A-TERM
100
AcDbCircle
 10
3.52
 20
26.6
 30
0.0
 40
0.05
  0
CIRCLE
  5
1A4
330
17
100
AcDbEntity
  8
A-TERM
100
AcDbCircle
 10
2.2
 20
25.3
 30
0.0
 40
0.26
  0
TEXT
  5
1A5
330
17
100
AcDbEntity
  8
A-TERM
100
AcDbText
 10
2.2
 20
25.3
 30
0.0
 40
0.24
  1
2
  7
ARQ
 72
1
 11
2.2
 21
25.3
 31
0.0
100
AcDbText
 73
2
  0
LINE
  5
1A6
330
17
100
AcDbEntity
  8
A-TERM
100
AcDbLine
 10
2.46
 20
25.3
 30
0.0
 11
3.52
 21
25.3
 31
0.0
  0
CIRCLE
  5
1A7
330
17
100
AcDbEntity
  8
A-TERM
100
AcDbCircle
 10
3.52
 20
25.3
 30
0.0
 40
0.05
  0
CIRCLE
  5
1A8
330
17
100
AcDbEntity
  8
A-TERM
100
AcDbCircle
 10
11.65
 20
33.0
 30
0.0
 40
0.26
  0
TEXT
  5
1A9
330
17
100
AcDbEntity
  8
A-TERM
100
AcDbText
 10
11.65
 20
33.0
 30
0.0
 40
0.24
  1
3
  7
ARQ
 72
1
 11
11.65
 21
33.0
 31
0.0
100
AcDbText
 73
2
  0
LINE
  5
1AA
330
17
100
AcDbEntity
  8
A-TERM
100
AcDbLine
 10
11.455260893752502
 20
32.827730790627214
 30
0.0
 11
10.350000000000001
 21
31.85
 31
0.0
  0
CIRCLE
  5
1AB
330
17
100
AcDbEntity
  8
A-TERM
100
AcDbCircle
 10
10.350000000000001
 20
31.85
 30
0.0
 40
0.05
  0
LINE
  5
1AC
330
17
100
AcDbEntity
  8
A-VIST
100
AcDbLine
 10
32.55
 20
25.0
 30
0.0
 11
32.55
 21
27.622
 31
0.0
  0
LINE
  5
1AD
330
17
100
AcDbEntity
  8
A-VIST
100
AcDbLine
 10
32.55
 20
25.0
 30
0.0
 11
32.75
 21
25.0
 31
0.0
  0
LINE
  5
1AE
330
17
100
AcDbEntity
  8
A-VIST
100
AcDbLine
 10
32.75
 20
25.0
 30
0.0
 11
32.75
 21
27.66
 31
0.0
  0
LINE
  5
1AF
330
17
100
AcDbEntity
  8
A-VIST
100
AcDbLine
 10
36.55
 20
25.0
 30
0.0
 11
36.515
 21
25.0
 31
0.0
  0
LINE
  5
1B0
330
17
100
AcDbEntity
  8
A-VIST
100
AcDbLine
 10
36.434999999999995
 20
25.0
 30
0.0
 11
35.65
 21
25.0
 31
0.0
  0
LINE
  5
1B1
330
17
100
AcDbEntity
  8
A-VIST
100
AcDbLine
 10
35.65
 20
25.0
 30
0.0
 11
35.65
 21
27.36
 31
0.0
  0
LINE
  5
1B2
330
17
100
AcDbEntity
  8
A-VIST
100
AcDbLine
 10
35.65
 20
27.36
 30
0.0
 11
32.949999999999996
 21
27.36
 31
0.0
  0
LINE
  5
1B3
330
17
100
AcDbEntity
  8
A-VIST
100
AcDbLine
 10
32.949999999999996
 20
27.36
 30
0.0
 11
32.949999999999996
 21
25.0
 31
0.0
  0
LINE
  5
1B4
330
17
100
AcDbEntity
  8
A-VIST
100
AcDbLine
 10
32.949999999999996
 20
25.0
 30
0.0
 11
32.75
 21
25.0
 31
0.0
  0
LINE
  5
1B5
330
17
100
AcDbEntity
  8
A-VIST
100
AcDbLine
 10
32.75
 20
25.0
 30
0.0
 11
32.75
 21
27.66
 31
0.0
  0
LINE
  5
1B6
330
17
100
AcDbEntity
  8
A-VIST
100
AcDbLine
 10
36.55
 20
27.802
 30
0.0
 11
36.515
 21
27.802
 31
0.0
  0
LINE
  5
1B7
330
17
100
AcDbEntity
  8
A-VIST
100
AcDbLine
 10
36.434999999999995
 20
27.802
 30
0.0
 11
33.4974
 21
27.802
 31
0.0
  0
LINE
  5
1B8
330
17
100
AcDbEntity
  8
A-VIST
100
AcDbLine
 10
36.55
 20
25.0
 30
0.0
 11
36.55
 21
27.802
 31
0.0
  0
LINE
  5
1B9
330
17
100
AcDbEntity
  8
A-VIST
100
AcDbLine
 10
36.55
 20
28.562
 30
0.0
 11
36.544999999999995
 21
28.562
 31
0.0
  0
LINE
  5
1BA
330
17
100
AcDbEntity
  8
A-VIST
100
AcDbLine
 10
36.394999999999996
 20
28.562
 30
0.0
 11
36.349999999999994
 21
28.562
 31
0.0
  0
LINE
  5
1BB
330
17
100
AcDbEntity
  8
A-VIST
100
AcDbLine
 10
36.349999999999994
 20
28.524
 30
0.0
 11
36.349999999999994
 21
28.562
 31
0.0
  0
LINE
  5
1BC
330
17
100
AcDbEntity
  8
A-VIST
100
AcDbLine
 10
38.15
 20
25.0
 30
0.0
 11
38.14
 21
25.0
 31
0.0
  0
LINE
  5
1BD
330
17
100
AcDbEntity
  8
A-VIST
100
AcDbLine
 10
38.059999999999995
 20
25.0
 30
0.0
 11
36.55
 21
25.0
 31
0.0
  0
LINE
  5
1BE
330
17
100
AcDbEntity
  8
A-VIST
100
AcDbLine
 10
37.949999999999996
 20
25.15
 30
0.0
 11
38.059999999999995
 21
25.15
 31
0.0
  0
LINE
  5
1BF
330
17
100
AcDbEntity
  8
A-VIST
100
AcDbLine
 10
38.14
 20
25.15
 30
0.0
 11
38.15
 21
25.15
 31
0.0
  0
LINE
  5
1C0
330
17
100
AcDbEntity
  8
A-VIST
100
AcDbLine
 10
38.15
 20
27.35
 30
0.0
 11
38.14
 21
27.35
 31
0.0
  0
LINE
  5
1C1
330
17
100
AcDbEntity
  8
A-VIST
100
AcDbLine
 10
38.059999999999995
 20
27.35
 30
0.0
 11
37.949999999999996
 21
27.35
 31
0.0
  0
LINE
  5
1C2
330
17
100
AcDbEntity
  8
A-VIST
100
AcDbLine
 10
37.949999999999996
 20
27.35
 30
0.0
 11
37.949999999999996
 21
25.15
 31
0.0
  0
LINE
  5
1C3
330
17
100
AcDbEntity
  8
A-VIST
100
AcDbLine
 10
38.15
 20
25.0
 30
0.0
 11
38.15
 21
27.6
 31
0.0
  0
LINE
  5
1C4
330
17
100
AcDbEntity
  8
A-VIST
100
AcDbLine
 10
38.15
 20
25.0
 30
0.0
 11
38.349999999999994
 21
25.0
 31
0.0
  0
LINE
  5
1C5
330
17
100
AcDbEntity
  8
A-VIST
100
AcDbLine
 10
38.15
 20
27.6
 30
0.0
 11
38.349999999999994
 21
27.6
 31
0.0
  0
LINE
  5
1C6
330
17
100
AcDbEntity
  8
A-VIST
100
AcDbLine
 10
38.349999999999994
 20
25.0
 30
0.0
 11
38.349999999999994
 21
27.6
 31
0.0
  0
LINE
  5
1C7
330
17
100
AcDbEntity
  8
A-VIST
100
AcDbLine
 10
45.55
 20
25.0
 30
0.0
 11
45.55
 21
27.6
 31
0.0
  0
LINE
  5
1C8
330
17
100
AcDbEntity
  8
A-VIST
100
AcDbLine
 10
45.55
 20
25.0
 30
0.0
 11
38.349999999999994
 21
25.0
 31
0.0
  0
LINE
  5
1C9
330
17
100
AcDbEntity
  8
A-VIST
100
AcDbLine
 10
45.55
 20
27.6
 30
0.0
 11
38.349999999999994
 21
27.6
 31
0.0
  0
LINE
  5
1CA
330
17
100
AcDbEntity
  8
A-VIST
100
AcDbLine
 10
38.349999999999994
 20
25.0
 30
0.0
 11
38.349999999999994
 21
27.6
 31
0.0
  0
LINE
  5
1CB
330
17
100
AcDbEntity
  8
A-VIST
100
AcDbLine
 10
43.849999999999994
 20
26.4
 30
0.0
 11
44.75
 21
26.4
 31
0.0
  0
LINE
  5
1CC
330
17
100
AcDbEntity
  8
A-VIST
100
AcDbLine
 10
43.849999999999994
 20
27.2
 30
0.0
 11
43.849999999999994
 21
26.4
 31
0.0
  0
LINE
  5
1CD
330
17
100
AcDbEntity
  8
A-VIST
100
AcDbLine
 10
44.75
 20
26.4
 30
0.0
 11
44.75
 21
27.2
 31
0.0
  0
LINE
  5
1CE
330
17
100
AcDbEntity
  8
A-VIST
100
AcDbLine
 10
44.75
 20
27.2
 30
0.0
 11
43.849999999999994
 21
27.2
 31
0.0
  0
LINE
  5
1CF
330
17
100
AcDbEntity
  8
A-VIST
100
AcDbLine
 10
39.15
 20
25.95
 30
0.0
 11
42.25
 21
25.95
 31
0.0
  0
LINE
  5
1D0
330
17
100
AcDbEntity
  8
A-VIST
100
AcDbLine
 10
42.25
 20
25.95
 30
0.0
 11
42.25
 21
27.2
 31
0.0
  0
LINE
  5
1D1
330
17
100
AcDbEntity
  8
A-VIST
100
AcDbLine
 10
42.25
 20
27.2
 30
0.0
 11
39.15
 21
27.2
 31
0.0
  0
LINE
  5
1D2
330
17
100
AcDbEntity
  8
A-VIST
100
AcDbLine
 10
39.15
 20
27.2
 30
0.0
 11
39.15
 21
25.95
 31
0.0
  0
LINE
  5
1D3
330
17
100
AcDbEntity
  8
A-VIST
100
AcDbLine
 10
36.55
 20
27.85
 30
0.0
 11
36.55
 21
28.382
 31
0.0
  0
LINE
  5
1D4
330
17
100
AcDbEntity
  8
A-VIST
100
AcDbLine
 10
36.55
 20
28.562
 30
0.0
 11
36.55
 21
30.2729
 31
0.0
  0
LINE
  5
1D5
330
17
100
AcDbEntity
  8
A-VIST
100
AcDbLine
 10
36.55
 20
27.85
 30
0.0
 11
36.75
 21
27.85
 31
0.0
  0
LINE
  5
1D6
330
17
100
AcDbEntity
  8
A-VIST
100
AcDbLine
 10
36.75
 20
27.85
 30
0.0
 11
36.75
 21
28.42
 31
0.0
  0
LINE
  5
1D7
330
17
100
AcDbEntity
  8
A-VIST
100
AcDbLine
 10
36.75
 20
28.6
 30
0.0
 11
36.75
 21
30.3443
 31
0.0
  0
LINE
  5
1D8
330
17
100
AcDbEntity
  8
A-VIST
100
AcDbLine
 10
45.55
 20
27.85
 30
0.0
 11
45.55
 21
30.2729
 31
0.0
  0
LINE
  5
1D9
330
17
100
AcDbEntity
  8
A-VIST
100
AcDbLine
 10
45.55
 20
27.85
 30
0.0
 11
36.75
 21
27.85
 31
0.0
  0
LINE
  5
1DA
330
17
100
AcDbEntity
  8
A-VIST
100
AcDbLine
 10
45.333999999999996
 20
30.35
 30
0.0
 11
36.766
 21
30.35
 31
0.0
  0
LINE
  5
1DB
330
17
100
AcDbEntity
  8
A-VIST
100
AcDbLine
 10
36.75
 20
27.85
 30
0.0
 11
36.75
 21
28.42
 31
0.0
  0
LINE
  5
1DC
330
17
100
AcDbEntity
  8
A-VIST
100
AcDbLine
 10
36.75
 20
28.6
 30
0.0
 11
36.75
 21
30.3443
 31
0.0
  0
LINE
  5
1DD
330
17
100
AcDbEntity
  8
A-VIST
100
AcDbLine
 10
43.849999999999994
 20
29.25
 30
0.0
 11
44.75
 21
29.25
 31
0.0
  0
LINE
  5
1DE
330
17
100
AcDbEntity
  8
A-VIST
100
AcDbLine
 10
43.849999999999994
 20
30.05
 30
0.0
 11
43.849999999999994
 21
29.25
 31
0.0
  0
LINE
  5
1DF
330
17
100
AcDbEntity
  8
A-VIST
100
AcDbLine
 10
44.75
 20
29.25
 30
0.0
 11
44.75
 21
30.05
 31
0.0
  0
LINE
  5
1E0
330
17
100
AcDbEntity
  8
A-VIST
100
AcDbLine
 10
44.75
 20
30.05
 30
0.0
 11
43.849999999999994
 21
30.05
 31
0.0
  0
LINE
  5
1E1
330
17
100
AcDbEntity
  8
A-VIST
100
AcDbLine
 10
39.55
 20
28.8
 30
0.0
 11
42.15
 21
28.8
 31
0.0
  0
LINE
  5
1E2
330
17
100
AcDbEntity
  8
A-VIST
100
AcDbLine
 10
39.55
 20
30.05
 30
0.0
 11
39.55
 21
28.8
 31
0.0
  0
LINE
  5
1E3
330
17
100
AcDbEntity
  8
A-VIST
100
AcDbLine
 10
42.15
 20
28.8
 30
0.0
 11
42.15
 21
30.05
 31
0.0
  0
LINE
  5
1E4
330
17
100
AcDbEntity
  8
A-VIST
100
AcDbLine
 10
42.15
 20
30.05
 30
0.0
 11
39.55
 21
30.05
 31
0.0
  0
LINE
  5
1E5
330
17
100
AcDbEntity
  8
A-VIST
100
AcDbLine
 10
37.15
 20
28.8
 30
0.0
 11
38.55
 21
28.8
 31
0.0
  0
LINE
  5
1E6
330
17
100
AcDbEntity
  8
A-VIST
100
AcDbLine
 10
38.55
 20
28.8
 30
0.0
 11
38.55
 21
30.05
 31
0.0
  0
LINE
  5
1E7
330
17
100
AcDbEntity
  8
A-VIST
100
AcDbLine
 10
38.55
 20
30.05
 30
0.0
 11
37.15
 21
30.05
 31
0.0
  0
LINE
  5
1E8
330
17
100
AcDbEntity
  8
A-VIST
100
AcDbLine
 10
37.15
 20
30.05
 30
0.0
 11
37.15
 21
28.8
 31
0.0
  0
LINE
  5
1E9
330
17
100
AcDbEntity
  8
A-VIST
100
AcDbLine
 10
43.849999999999994
 20
26.4
 30
0.0
 11
44.75
 21
26.4
 31
0.0
  0
LINE
  5
1EA
330
17
100
AcDbEntity
  8
A-VIST
100
AcDbLine
 10
43.849999999999994
 20
27.2
 30
0.0
 11
43.849999999999994
 21
26.4
 31
0.0
  0
LINE
  5
1EB
330
17
100
AcDbEntity
  8
A-VIST
100
AcDbLine
 10
44.75
 20
26.4
 30
0.0
 11
44.75
 21
27.2
 31
0.0
  0
LINE
  5
1EC
330
17
100
AcDbEntity
  8
A-VIST
100
AcDbLine
 10
44.75
 20
27.2
 30
0.0
 11
43.849999999999994
 21
27.2
 31
0.0
  0
LINE
  5
1ED
330
17
100
AcDbEntity
  8
A-VIST
100
AcDbLine
 10
43.9
 20
26.45
 30
0.0
 11
44.699999999999996
 21
26.45
 31
0.0
  0
LINE
  5
1EE
330
17
100
AcDbEntity
  8
A-VIST
100
AcDbLine
 10
44.699999999999996
 20
26.45
 30
0.0
 11
44.699999999999996
 21
27.15
 31
0.0
  0
LINE
  5
1EF
330
17
100
AcDbEntity
  8
A-VIST
100
AcDbLine
 10
44.699999999999996
 20
27.15
 30
0.0
 11
43.9
 21
27.15
 31
0.0
  0
LINE
  5
1F0
330
17
100
AcDbEntity
  8
A-VIST
100
AcDbLine
 10
43.9
 20
27.15
 30
0.0
 11
43.9
 21
26.45
 31
0.0
  0
LINE
  5
1F1
330
17
100
AcDbEntity
  8
A-VIST
100
AcDbLine
 10
43.9
 20
26.45
 30
0.0
 11
44.699999999999996
 21
26.45
 31
0.0
  0
LINE
  5
1F2
330
17
100
AcDbEntity
  8
A-VIST
100
AcDbLine
 10
44.699999999999996
 20
26.45
 30
0.0
 11
44.699999999999996
 21
27.15
 31
0.0
  0
LINE
  5
1F3
330
17
100
AcDbEntity
  8
A-VIST
100
AcDbLine
 10
44.699999999999996
 20
27.15
 30
0.0
 11
43.9
 21
27.15
 31
0.0
  0
LINE
  5
1F4
330
17
100
AcDbEntity
  8
A-VIST
100
AcDbLine
 10
43.9
 20
27.15
 30
0.0
 11
43.9
 21
26.45
 31
0.0
  0
LINE
  5
1F5
330
17
100
AcDbEntity
  8
A-VIST
100
AcDbLine
 10
39.15
 20
25.95
 30
0.0
 11
42.25
 21
25.95
 31
0.0
  0
LINE
  5
1F6
330
17
100
AcDbEntity
  8
A-VIST
100
AcDbLine
 10
39.15
 20
27.2
 30
0.0
 11
39.15
 21
25.95
 31
0.0
  0
LINE
  5
1F7
330
17
100
AcDbEntity
  8
A-VIST
100
AcDbLine
 10
42.25
 20
25.95
 30
0.0
 11
42.25
 21
27.2
 31
0.0
  0
LINE
  5
1F8
330
17
100
AcDbEntity
  8
A-VIST
100
AcDbLine
 10
42.25
 20
27.2
 30
0.0
 11
39.15
 21
27.2
 31
0.0
  0
LINE
  5
1F9
330
17
100
AcDbEntity
  8
A-VIST
100
AcDbLine
 10
39.199999999999996
 20
26.0
 30
0.0
 11
42.199999999999996
 21
26.0
 31
0.0
  0
LINE
  5
1FA
330
17
100
AcDbEntity
  8
A-VIST
100
AcDbLine
 10
42.199999999999996
 20
26.0
 30
0.0
 11
42.199999999999996
 21
27.15
 31
0.0
  0
LINE
  5
1FB
330
17
100
AcDbEntity
  8
A-VIST
100
AcDbLine
 10
42.199999999999996
 20
27.15
 30
0.0
 11
39.199999999999996
 21
27.15
 31
0.0
  0
LINE
  5
1FC
330
17
100
AcDbEntity
  8
A-VIST
100
AcDbLine
 10
39.199999999999996
 20
27.15
 30
0.0
 11
39.199999999999996
 21
26.0
 31
0.0
  0
LINE
  5
1FD
330
17
100
AcDbEntity
  8
A-VIST
100
AcDbLine
 10
39.199999999999996
 20
26.0
 30
0.0
 11
42.199999999999996
 21
26.0
 31
0.0
  0
LINE
  5
1FE
330
17
100
AcDbEntity
  8
A-VIST
100
AcDbLine
 10
42.199999999999996
 20
26.0
 30
0.0
 11
42.199999999999996
 21
27.15
 31
0.0
  0
LINE
  5
1FF
330
17
100
AcDbEntity
  8
A-VIST
100
AcDbLine
 10
42.199999999999996
 20
27.15
 30
0.0
 11
39.199999999999996
 21
27.15
 31
0.0
  0
LINE
  5
200
330
17
100
AcDbEntity
  8
A-VIST
100
AcDbLine
 10
39.199999999999996
 20
27.15
 30
0.0
 11
39.199999999999996
 21
26.0
 31
0.0
  0
LINE
  5
201
330
17
100
AcDbEntity
  8
A-VIST
100
AcDbLine
 10
35.65
 20
27.36
 30
0.0
 11
32.949999999999996
 21
27.36
 31
0.0
  0
LINE
  5
202
330
17
100
AcDbEntity
  8
A-VIST
100
AcDbLine
 10
35.599999999999994
 20
25.0
 30
0.0
 11
35.599999999999994
 21
27.31
 31
0.0
  0
LINE
  5
203
330
17
100
AcDbEntity
  8
A-VIST
100
AcDbLine
 10
35.599999999999994
 20
27.31
 30
0.0
 11
33.0
 21
27.31
 31
0.0
  0
LINE
  5
204
330
17
100
AcDbEntity
  8
A-VIST
100
AcDbLine
 10
33.0
 20
27.31
 30
0.0
 11
33.0
 21
25.0
 31
0.0
  0
LINE
  5
205
330
17
100
AcDbEntity
  8
A-VIST
100
AcDbLine
 10
35.599999999999994
 20
27.31
 30
0.0
 11
33.0
 21
27.31
 31
0.0
  0
LINE
  5
206
330
17
100
AcDbEntity
  8
A-VIST
100
AcDbLine
 10
37.949999999999996
 20
25.15
 30
0.0
 11
38.059999999999995
 21
25.15
 31
0.0
  0
LINE
  5
207
330
17
100
AcDbEntity
  8
A-VIST
100
AcDbLine
 10
38.14
 20
25.15
 30
0.0
 11
38.15
 21
25.15
 31
0.0
  0
LINE
  5
208
330
17
100
AcDbEntity
  8
A-VIST
100
AcDbLine
 10
37.949999999999996
 20
27.35
 30
0.0
 11
37.949999999999996
 21
25.15
 31
0.0
  0
LINE
  5
209
330
17
100
AcDbEntity
  8
A-VIST
100
AcDbLine
 10
38.15
 20
27.35
 30
0.0
 11
38.14
 21
27.35
 31
0.0
  0
LINE
  5
20A
330
17
100
AcDbEntity
  8
A-VIST
100
AcDbLine
 10
38.059999999999995
 20
27.35
 30
0.0
 11
37.949999999999996
 21
27.35
 31
0.0
  0
LINE
  5
20B
330
17
100
AcDbEntity
  8
A-VIST
100
AcDbLine
 10
38.0
 20
25.2
 30
0.0
 11
38.059999999999995
 21
25.2
 31
0.0
  0
LINE
  5
20C
330
17
100
AcDbEntity
  8
A-VIST
100
AcDbLine
 10
38.14
 20
25.2
 30
0.0
 11
38.15
 21
25.2
 31
0.0
  0
LINE
  5
20D
330
17
100
AcDbEntity
  8
A-VIST
100
AcDbLine
 10
38.15
 20
27.3
 30
0.0
 11
38.14
 21
27.3
 31
0.0
  0
LINE
  5
20E
330
17
100
AcDbEntity
  8
A-VIST
100
AcDbLine
 10
38.059999999999995
 20
27.3
 30
0.0
 11
38.0
 21
27.3
 31
0.0
  0
LINE
  5
20F
330
17
100
AcDbEntity
  8
A-VIST
100
AcDbLine
 10
38.0
 20
27.3
 30
0.0
 11
38.0
 21
25.2
 31
0.0
  0
LINE
  5
210
330
17
100
AcDbEntity
  8
A-VIST
100
AcDbLine
 10
38.0
 20
25.2
 30
0.0
 11
38.059999999999995
 21
25.2
 31
0.0
  0
LINE
  5
211
330
17
100
AcDbEntity
  8
A-VIST
100
AcDbLine
 10
38.14
 20
25.2
 30
0.0
 11
38.15
 21
25.2
 31
0.0
  0
LINE
  5
212
330
17
100
AcDbEntity
  8
A-VIST
100
AcDbLine
 10
38.15
 20
27.3
 30
0.0
 11
38.14
 21
27.3
 31
0.0
  0
LINE
  5
213
330
17
100
AcDbEntity
  8
A-VIST
100
AcDbLine
 10
38.059999999999995
 20
27.3
 30
0.0
 11
38.0
 21
27.3
 31
0.0
  0
LINE
  5
214
330
17
100
AcDbEntity
  8
A-VIST
100
AcDbLine
 10
38.0
 20
27.3
 30
0.0
 11
38.0
 21
25.2
 31
0.0
  0
LINE
  5
215
330
17
100
AcDbEntity
  8
A-VIST
100
AcDbLine
 10
43.849999999999994
 20
29.25
 30
0.0
 11
44.75
 21
29.25
 31
0.0
  0
LINE
  5
216
330
17
100
AcDbEntity
  8
A-VIST
100
AcDbLine
 10
43.849999999999994
 20
30.05
 30
0.0
 11
43.849999999999994
 21
29.25
 31
0.0
  0
LINE
  5
217
330
17
100
AcDbEntity
  8
A-VIST
100
AcDbLine
 10
44.75
 20
29.25
 30
0.0
 11
44.75
 21
30.05
 31
0.0
  0
LINE
  5
218
330
17
100
AcDbEntity
  8
A-VIST
100
AcDbLine
 10
44.75
 20
30.05
 30
0.0
 11
43.849999999999994
 21
30.05
 31
0.0
  0
LINE
  5
219
330
17
100
AcDbEntity
  8
A-VIST
100
AcDbLine
 10
43.9
 20
29.3
 30
0.0
 11
44.699999999999996
 21
29.3
 31
0.0
  0
LINE
  5
21A
330
17
100
AcDbEntity
  8
A-VIST
100
AcDbLine
 10
44.699999999999996
 20
29.3
 30
0.0
 11
44.699999999999996
 21
30.0
 31
0.0
  0
LINE
  5
21B
330
17
100
AcDbEntity
  8
A-VIST
100
AcDbLine
 10
44.699999999999996
 20
30.0
 30
0.0
 11
43.9
 21
30.0
 31
0.0
  0
LINE
  5
21C
330
17
100
AcDbEntity
  8
A-VIST
100
AcDbLine
 10
43.9
 20
30.0
 30
0.0
 11
43.9
 21
29.3
 31
0.0
  0
LINE
  5
21D
330
17
100
AcDbEntity
  8
A-VIST
100
AcDbLine
 10
43.9
 20
29.3
 30
0.0
 11
44.699999999999996
 21
29.3
 31
0.0
  0
LINE
  5
21E
330
17
100
AcDbEntity
  8
A-VIST
100
AcDbLine
 10
44.699999999999996
 20
29.3
 30
0.0
 11
44.699999999999996
 21
30.0
 31
0.0
  0
LINE
  5
21F
330
17
100
AcDbEntity
  8
A-VIST
100
AcDbLine
 10
44.699999999999996
 20
30.0
 30
0.0
 11
43.9
 21
30.0
 31
0.0
  0
LINE
  5
220
330
17
100
AcDbEntity
  8
A-VIST
100
AcDbLine
 10
43.9
 20
30.0
 30
0.0
 11
43.9
 21
29.3
 31
0.0
  0
LINE
  5
221
330
17
100
AcDbEntity
  8
A-VIST
100
AcDbLine
 10
39.55
 20
28.8
 30
0.0
 11
42.15
 21
28.8
 31
0.0
  0
LINE
  5
222
330
17
100
AcDbEntity
  8
A-VIST
100
AcDbLine
 10
39.55
 20
30.05
 30
0.0
 11
39.55
 21
28.8
 31
0.0
  0
LINE
  5
223
330
17
100
AcDbEntity
  8
A-VIST
100
AcDbLine
 10
42.15
 20
28.8
 30
0.0
 11
42.15
 21
30.05
 31
0.0
  0
LINE
  5
224
330
17
100
AcDbEntity
  8
A-VIST
100
AcDbLine
 10
42.15
 20
30.05
 30
0.0
 11
39.55
 21
30.05
 31
0.0
  0
LINE
  5
225
330
17
100
AcDbEntity
  8
A-VIST
100
AcDbLine
 10
39.599999999999994
 20
28.85
 30
0.0
 11
42.099999999999994
 21
28.85
 31
0.0
  0
LINE
  5
226
330
17
100
AcDbEntity
  8
A-VIST
100
AcDbLine
 10
42.099999999999994
 20
28.85
 30
0.0
 11
42.099999999999994
 21
30.0
 31
0.0
  0
LINE
  5
227
330
17
100
AcDbEntity
  8
A-VIST
100
AcDbLine
 10
42.099999999999994
 20
30.0
 30
0.0
 11
39.599999999999994
 21
30.0
 31
0.0
  0
LINE
  5
228
330
17
100
AcDbEntity
  8
A-VIST
100
AcDbLine
 10
39.599999999999994
 20
30.0
 30
0.0
 11
39.599999999999994
 21
28.85
 31
0.0
  0
LINE
  5
229
330
17
100
AcDbEntity
  8
A-VIST
100
AcDbLine
 10
39.599999999999994
 20
28.85
 30
0.0
 11
42.099999999999994
 21
28.85
 31
0.0
  0
LINE
  5
22A
330
17
100
AcDbEntity
  8
A-VIST
100
AcDbLine
 10
42.099999999999994
 20
28.85
 30
0.0
 11
42.099999999999994
 21
30.0
 31
0.0
  0
LINE
  5
22B
330
17
100
AcDbEntity
  8
A-VIST
100
AcDbLine
 10
42.099999999999994
 20
30.0
 30
0.0
 11
39.599999999999994
 21
30.0
 31
0.0
  0
LINE
  5
22C
330
17
100
AcDbEntity
  8
A-VIST
100
AcDbLine
 10
39.599999999999994
 20
30.0
 30
0.0
 11
39.599999999999994
 21
28.85
 31
0.0
  0
LINE
  5
22D
330
17
100
AcDbEntity
  8
A-VIST
100
AcDbLine
 10
37.15
 20
28.8
 30
0.0
 11
38.55
 21
28.8
 31
0.0
  0
LINE
  5
22E
330
17
100
AcDbEntity
  8
A-VIST
100
AcDbLine
 10
37.15
 20
30.05
 30
0.0
 11
37.15
 21
28.8
 31
0.0
  0
LINE
  5
22F
330
17
100
AcDbEntity
  8
A-VIST
100
AcDbLine
 10
38.55
 20
28.8
 30
0.0
 11
38.55
 21
30.05
 31
0.0
  0
LINE
  5
230
330
17
100
AcDbEntity
  8
A-VIST
100
AcDbLine
 10
38.55
 20
30.05
 30
0.0
 11
37.15
 21
30.05
 31
0.0
  0
LINE
  5
231
330
17
100
AcDbEntity
  8
A-VIST
100
AcDbLine
 10
37.199999999999996
 20
28.85
 30
0.0
 11
38.5
 21
28.85
 31
0.0
  0
LINE
  5
232
330
17
100
AcDbEntity
  8
A-VIST
100
AcDbLine
 10
38.5
 20
28.85
 30
0.0
 11
38.5
 21
30.0
 31
0.0
  0
LINE
  5
233
330
17
100
AcDbEntity
  8
A-VIST
100
AcDbLine
 10
38.5
 20
30.0
 30
0.0
 11
37.199999999999996
 21
30.0
 31
0.0
  0
LINE
  5
234
330
17
100
AcDbEntity
  8
A-VIST
100
AcDbLine
 10
37.199999999999996
 20
30.0
 30
0.0
 11
37.199999999999996
 21
28.85
 31
0.0
  0
LINE
  5
235
330
17
100
AcDbEntity
  8
A-VIST
100
AcDbLine
 10
37.199999999999996
 20
28.85
 30
0.0
 11
38.5
 21
28.85
 31
0.0
  0
LINE
  5
236
330
17
100
AcDbEntity
  8
A-VIST
100
AcDbLine
 10
38.5
 20
28.85
 30
0.0
 11
38.5
 21
30.0
 31
0.0
  0
LINE
  5
237
330
17
100
AcDbEntity
  8
A-VIST
100
AcDbLine
 10
38.5
 20
30.0
 30
0.0
 11
37.199999999999996
 21
30.0
 31
0.0
  0
LINE
  5
238
330
17
100
AcDbEntity
  8
A-VIST
100
AcDbLine
 10
37.199999999999996
 20
30.0
 30
0.0
 11
37.199999999999996
 21
28.85
 31
0.0
  0
LINE
  5
239
330
17
100
AcDbEntity
  8
A-VIST
100
AcDbLine
 10
45.55
 20
24.65
 30
0.0
 11
38.15
 21
24.65
 31
0.0
  0
LINE
  5
23A
330
17
100
AcDbEntity
  8
A-VIST
100
AcDbLine
 10
38.15
 20
24.65
 30
0.0
 11
36.55
 21
24.65
 31
0.0
  0
LINE
  5
23B
330
17
100
AcDbEntity
  8
A-VIST
100
AcDbLine
 10
36.55
 20
24.65
 30
0.0
 11
32.55
 21
24.65
 31
0.0
  0
LINE
  5
23C
330
17
100
AcDbEntity
  8
A-VIST
100
AcDbLine
 10
45.55
 20
24.65
 30
0.0
 11
45.55
 21
25.0
 31
0.0
  0
LINE
  5
23D
330
17
100
AcDbEntity
  8
A-VIST
100
AcDbLine
 10
38.15
 20
24.65
 30
0.0
 11
38.15
 21
25.0
 31
0.0
  0
LINE
  5
23E
330
17
100
AcDbEntity
  8
A-VIST
100
AcDbLine
 10
45.55
 20
25.0
 30
0.0
 11
38.15
 21
25.0
 31
0.0
  0
LINE
  5
23F
330
17
100
AcDbEntity
  8
A-VIST
100
AcDbLine
 10
38.15
 20
25.0
 30
0.0
 11
38.14
 21
25.0
 31
0.0
  0
LINE
  5
240
330
17
100
AcDbEntity
  8
A-VIST
100
AcDbLine
 10
38.059999999999995
 20
25.0
 30
0.0
 11
36.55
 21
25.0
 31
0.0
  0
LINE
  5
241
330
17
100
AcDbEntity
  8
A-VIST
100
AcDbLine
 10
36.55
 20
24.65
 30
0.0
 11
36.55
 21
25.0
 31
0.0
  0
LINE
  5
242
330
17
100
AcDbEntity
  8
A-VIST
100
AcDbLine
 10
32.55
 20
24.65
 30
0.0
 11
32.55
 21
25.0
 31
0.0
  0
LINE
  5
243
330
17
100
AcDbEntity
  8
A-VIST
100
AcDbLine
 10
36.55
 20
25.0
 30
0.0
 11
36.515
 21
25.0
 31
0.0
  0
LINE
  5
244
330
17
100
AcDbEntity
  8
A-VIST
100
AcDbLine
 10
36.434999999999995
 20
25.0
 30
0.0
 11
32.55
 21
25.0
 31
0.0
  0
LINE
  5
245
330
17
100
AcDbEntity
  8
A-VIST
100
AcDbLine
 10
45.55
 20
27.6
 30
0.0
 11
45.55
 21
27.85
 31
0.0
  0
LINE
  5
246
330
17
100
AcDbEntity
  8
A-VIST
100
AcDbLine
 10
36.55
 20
27.6
 30
0.0
 11
36.55
 21
27.85
 31
0.0
  0
LINE
  5
247
330
17
100
AcDbEntity
  8
A-VIST
100
AcDbLine
 10
45.55
 20
27.6
 30
0.0
 11
36.55
 21
27.6
 31
0.0
  0
LINE
  5
248
330
17
100
AcDbEntity
  8
A-VIST
100
AcDbLine
 10
45.55
 20
27.85
 30
0.0
 11
36.55
 21
27.85
 31
0.0
  0
LINE
  5
249
330
17
100
AcDbEntity
  8
A-VIST
100
AcDbLine
 10
36.766
 20
30.35
 30
0.0
 11
45.333999999999996
 21
30.35
 31
0.0
  0
LINE
  5
24A
330
17
100
AcDbEntity
  8
A-VIST
100
AcDbLine
 10
45.333999999999996
 20
30.35
 30
0.0
 11
41.05
 21
31.88
 31
0.0
  0
LINE
  5
24B
330
17
100
AcDbEntity
  8
A-VIST
100
AcDbLine
 10
41.05
 20
31.88
 30
0.0
 11
36.766
 21
30.35
 31
0.0
  0
LINE
  5
24C
330
17
100
AcDbEntity
  8
A-VIST
100
AcDbLine
 10
36.55
 20
27.802
 30
0.0
 11
36.55
 21
28.382
 31
0.0
  0
LINE
  5
24D
330
17
100
AcDbEntity
  8
A-VIST
100
AcDbLine
 10
33.4974
 20
27.802
 30
0.0
 11
36.434999999999995
 21
27.802
 31
0.0
  0
LINE
  5
24E
330
17
100
AcDbEntity
  8
A-VIST
100
AcDbLine
 10
36.515
 20
27.802
 30
0.0
 11
36.55
 21
27.802
 31
0.0
  0
LINE
  5
24F
330
17
100
AcDbEntity
  8
A-VIST
100
AcDbLine
 10
45.949999999999996
 20
30.13
 30
0.0
 11
41.05
 21
31.88
 31
0.0
  0
LINE
  5
250
330
17
100
AcDbEntity
  8
A-VIST
100
AcDbLine
 10
41.05
 20
32.1
 30
0.0
 11
45.949999999999996
 21
30.35
 31
0.0
  0
LINE
  5
251
330
17
100
AcDbEntity
  8
A-VIST
100
AcDbLine
 10
45.949999999999996
 20
30.13
 30
0.0
 11
45.949999999999996
 21
30.35
 31
0.0
  0
LINE
  5
252
330
17
100
AcDbEntity
  8
A-VIST
100
AcDbLine
 10
36.15
 20
30.35
 30
0.0
 11
41.05
 21
32.1
 31
0.0
  0
LINE
  5
253
330
17
100
AcDbEntity
  8
A-VIST
100
AcDbLine
 10
36.15
 20
30.13
 30
0.0
 11
36.15
 21
30.35
 31
0.0
  0
LINE
  5
254
330
17
100
AcDbEntity
  8
A-VIST
100
AcDbLine
 10
41.05
 20
31.88
 30
0.0
 11
36.15
 21
30.13
 31
0.0
  0
LINE
  5
255
330
17
100
AcDbEntity
  8
A-VIST
100
AcDbLine
 10
36.75
 20
28.42
 30
0.0
 11
32.15
 21
27.546
 31
0.0
  0
LINE
  5
256
330
17
100
AcDbEntity
  8
A-VIST
100
AcDbLine
 10
36.75
 20
28.42
 30
0.0
 11
36.75
 21
28.6
 31
0.0
  0
LINE
  5
257
330
17
100
AcDbEntity
  8
A-VIST
100
AcDbLine
 10
32.15
 20
27.726
 30
0.0
 11
36.75
 21
28.6
 31
0.0
  0
LINE
  5
258
330
17
100
AcDbEntity
  8
A-VIST
100
AcDbLine
 10
32.15
 20
27.546
 30
0.0
 11
32.15
 21
27.726
 31
0.0
  0
LINE
  5
259
330
17
100
AcDbEntity
  8
A-VIST
100
AcDbLine
 10
46.099999999999994
 20
30.234
 30
0.0
 11
45.949999999999996
 21
30.234
 31
0.0
  0
LINE
  5
25A
330
17
100
AcDbEntity
  8
A-VIST
100
AcDbLine
 10
45.949999999999996
 20
30.334
 30
0.0
 11
46.099999999999994
 21
30.334
 31
0.0
  0
LINE
  5
25B
330
17
100
AcDbEntity
  8
A-VIST
100
AcDbLine
 10
46.099999999999994
 20
30.234
 30
0.0
 11
46.099999999999994
 21
30.334
 31
0.0
  0
LINE
  5
25C
330
17
100
AcDbEntity
  8
A-VIST
100
AcDbLine
 10
45.949999999999996
 20
30.334
 30
0.0
 11
45.949999999999996
 21
30.234
 31
0.0
  0
LINE
  5
25D
330
17
100
AcDbEntity
  8
A-VIST
100
AcDbLine
 10
36.15
 20
30.234
 30
0.0
 11
36.0
 21
30.234
 31
0.0
  0
LINE
  5
25E
330
17
100
AcDbEntity
  8
A-VIST
100
AcDbLine
 10
36.0
 20
30.334
 30
0.0
 11
36.15
 21
30.334
 31
0.0
  0
LINE
  5
25F
330
17
100
AcDbEntity
  8
A-VIST
100
AcDbLine
 10
36.15
 20
30.234
 30
0.0
 11
36.15
 21
30.334
 31
0.0
  0
LINE
  5
260
330
17
100
AcDbEntity
  8
A-VIST
100
AcDbLine
 10
36.0
 20
30.334
 30
0.0
 11
36.0
 21
30.234
 31
0.0
  0
LINE
  5
261
330
17
100
AcDbEntity
  8
A-VIST
100
AcDbLine
 10
37.75
 20
30.959
 30
0.0
 11
37.855199999999996
 21
30.959
 31
0.0
  0
LINE
  5
262
330
17
100
AcDbEntity
  8
A-VIST
100
AcDbLine
 10
37.75
 20
30.959
 30
0.0
 11
37.75
 21
30.9214
 31
0.0
  0
LINE
  5
263
330
17
100
AcDbEntity
  8
A-VIST
100
AcDbLine
 10
39.75
 20
31.673000000000002
 30
0.0
 11
39.8544
 21
31.673000000000002
 31
0.0
  0
LINE
  5
264
330
17
100
AcDbEntity
  8
A-VIST
100
AcDbLine
 10
39.75
 20
31.673000000000002
 30
0.0
 11
39.75
 21
31.6357
 31
0.0
  0
LINE
  5
265
330
17
100
AcDbEntity
  8
A-VIST
100
AcDbLine
 10
32.15
 20
27.608
 30
0.0
 11
31.999999999999996
 21
27.608
 31
0.0
  0
LINE
  5
266
330
17
100
AcDbEntity
  8
A-VIST
100
AcDbLine
 10
31.999999999999996
 20
27.708
 30
0.0
 11
32.15
 21
27.708
 31
0.0
  0
LINE
  5
267
330
17
100
AcDbEntity
  8
A-VIST
100
AcDbLine
 10
32.15
 20
27.608
 30
0.0
 11
32.15
 21
27.708
 31
0.0
  0
LINE
  5
268
330
17
100
AcDbEntity
  8
A-VIST
100
AcDbLine
 10
31.999999999999996
 20
27.708
 30
0.0
 11
31.999999999999996
 21
27.608
 31
0.0
  0
LINE
  5
269
330
17
100
AcDbEntity
  8
A-VIST
100
AcDbLine
 10
36.394999999999996
 20
28.578
 30
0.0
 11
36.544999999999995
 21
28.578
 31
0.0
  0
LINE
  5
26A
330
17
100
AcDbEntity
  8
A-VIST
100
AcDbLine
 10
36.544999999999995
 20
28.5611
 30
0.0
 11
36.544999999999995
 21
28.578
 31
0.0
  0
LINE
  5
26B
330
17
100
AcDbEntity
  8
A-VIST
100
AcDbLine
 10
36.394999999999996
 20
28.578
 30
0.0
 11
36.394999999999996
 21
28.5326
 31
0.0
  0
LINE
  5
26C
330
17
100
AcDbEntity
  8
A-VIST
100
AcDbLine
 10
45.65
 20
24.85
 30
0.0
 11
45.57
 21
24.85
 31
0.0
  0
LINE
  5
26D
330
17
100
AcDbEntity
  8
A-VIST
100
AcDbLine
 10
45.57
 20
30.003999999999998
 30
0.0
 11
45.65
 21
30.003999999999998
 31
0.0
  0
LINE
  5
26E
330
17
100
AcDbEntity
  8
A-VIST
100
AcDbLine
 10
45.65
 20
24.85
 30
0.0
 11
45.65
 21
30.003999999999998
 31
0.0
  0
LINE
  5
26F
330
17
100
AcDbEntity
  8
A-VIST
100
AcDbLine
 10
45.57
 20
30.003999999999998
 30
0.0
 11
45.57
 21
24.85
 31
0.0
  0
LINE
  5
270
330
17
100
AcDbEntity
  8
A-VIST
100
AcDbLine
 10
45.989999999999995
 20
30.003999999999998
 30
0.0
 11
45.57
 21
30.003999999999998
 31
0.0
  0
LINE
  5
271
330
17
100
AcDbEntity
  8
A-VIST
100
AcDbLine
 10
45.57
 20
30.084
 30
0.0
 11
45.989999999999995
 21
30.084
 31
0.0
  0
LINE
  5
272
330
17
100
AcDbEntity
  8
A-VIST
100
AcDbLine
 10
45.989999999999995
 20
30.003999999999998
 30
0.0
 11
45.989999999999995
 21
30.084
 31
0.0
  0
LINE
  5
273
330
17
100
AcDbEntity
  8
A-VIST
100
AcDbLine
 10
45.57
 20
30.084
 30
0.0
 11
45.57
 21
30.003999999999998
 31
0.0
  0
LINE
  5
274
330
17
100
AcDbEntity
  8
A-VIST
100
AcDbLine
 10
36.459999999999994
 20
30.003999999999998
 30
0.0
 11
36.54
 21
30.003999999999998
 31
0.0
  0
LINE
  5
275
330
17
100
AcDbEntity
  8
A-VIST
100
AcDbLine
 10
36.54
 20
28.578
 30
0.0
 11
36.54
 21
30.003999999999998
 31
0.0
  0
LINE
  5
276
330
17
100
AcDbEntity
  8
A-VIST
100
AcDbLine
 10
36.459999999999994
 20
30.003999999999998
 30
0.0
 11
36.459999999999994
 21
28.578
 31
0.0
  0
LINE
  5
277
330
17
100
AcDbEntity
  8
A-VIST
100
AcDbLine
 10
36.54
 20
30.003999999999998
 30
0.0
 11
36.11
 21
30.003999999999998
 31
0.0
  0
LINE
  5
278
330
17
100
AcDbEntity
  8
A-VIST
100
AcDbLine
 10
36.11
 20
30.084
 30
0.0
 11
36.54
 21
30.084
 31
0.0
  0
LINE
  5
279
330
17
100
AcDbEntity
  8
A-VIST
100
AcDbLine
 10
36.54
 20
30.003999999999998
 30
0.0
 11
36.54
 21
30.084
 31
0.0
  0
LINE
  5
27A
330
17
100
AcDbEntity
  8
A-VIST
100
AcDbLine
 10
36.11
 20
30.084
 30
0.0
 11
36.11
 21
30.003999999999998
 31
0.0
  0
LINE
  5
27B
330
17
100
AcDbEntity
  8
A-VIST
100
AcDbLine
 10
38.14
 20
24.98
 30
0.0
 11
38.059999999999995
 21
24.98
 31
0.0
  0
LINE
  5
27C
330
17
100
AcDbEntity
  8
A-VIST
100
AcDbLine
 10
38.14
 20
24.98
 30
0.0
 11
38.14
 21
27.6
 31
0.0
  0
LINE
  5
27D
330
17
100
AcDbEntity
  8
A-VIST
100
AcDbLine
 10
38.059999999999995
 20
27.6
 30
0.0
 11
38.059999999999995
 21
24.98
 31
0.0
  0
LINE
  5
27E
330
17
100
AcDbEntity
  8
A-VIST
100
AcDbLine
 10
32.54
 20
24.85
 30
0.0
 11
32.459999999999994
 21
24.85
 31
0.0
  0
LINE
  5
27F
330
17
100
AcDbEntity
  8
A-VIST
100
AcDbLine
 10
32.459999999999994
 20
27.378
 30
0.0
 11
32.54
 21
27.378
 31
0.0
  0
LINE
  5
280
330
17
100
AcDbEntity
  8
A-VIST
100
AcDbLine
 10
32.54
 20
24.85
 30
0.0
 11
32.54
 21
27.378
 31
0.0
  0
LINE
  5
281
330
17
100
AcDbEntity
  8
A-VIST
100
AcDbLine
 10
32.459999999999994
 20
27.378
 30
0.0
 11
32.459999999999994
 21
24.85
 31
0.0
  0
LINE
  5
282
330
17
100
AcDbEntity
  8
A-VIST
100
AcDbLine
 10
32.54
 20
27.378
 30
0.0
 11
32.11
 21
27.378
 31
0.0
  0
LINE
  5
283
330
17
100
AcDbEntity
  8
A-VIST
100
AcDbLine
 10
32.11
 20
27.458
 30
0.0
 11
32.54
 21
27.458
 31
0.0
  0
LINE
  5
284
330
17
100
AcDbEntity
  8
A-VIST
100
AcDbLine
 10
32.54
 20
27.378
 30
0.0
 11
32.54
 21
27.458
 31
0.0
  0
LINE
  5
285
330
17
100
AcDbEntity
  8
A-VIST
100
AcDbLine
 10
32.11
 20
27.458
 30
0.0
 11
32.11
 21
27.378
 31
0.0
  0
LINE
  5
286
330
17
100
AcDbEntity
  8
A-VIST
100
AcDbLine
 10
36.515
 20
24.98
 30
0.0
 11
36.434999999999995
 21
24.98
 31
0.0
  0
LINE
  5
287
330
17
100
AcDbEntity
  8
A-VIST
100
AcDbLine
 10
36.434999999999995
 20
28.248
 30
0.0
 11
36.515
 21
28.248
 31
0.0
  0
LINE
  5
288
330
17
100
AcDbEntity
  8
A-VIST
100
AcDbLine
 10
36.515
 20
24.98
 30
0.0
 11
36.515
 21
28.248
 31
0.0
  0
LINE
  5
289
330
17
100
AcDbEntity
  8
A-VIST
100
AcDbLine
 10
36.434999999999995
 20
28.248
 30
0.0
 11
36.434999999999995
 21
24.98
 31
0.0
  0
LINE
  5
28A
330
17
100
AcDbEntity
  8
A-TERR
100
AcDbLine
 10
31.199999999999996
 20
24.85
 30
0.0
 11
46.89999999999999
 21
24.85
 31
0.0
  0
LINE
  5
28B
330
17
100
AcDbEntity
  8
A-NIVEL
100
AcDbLine
 10
46.699999999999996
 20
25.0
 30
0.0
 11
48.099999999999994
 21
25.0
 31
0.0
  0
LWPOLYLINE
  5
28C
330
17
100
AcDbEntity
  8
A-NIVEL
100
AcDbPolyline
 90
3
 70
1
 10
46.9
 20
25.0
 10
47.099999999999994
 20
25.25
 10
46.699999999999996
 20
25.25
  0
TEXT
  5
28D
330
17
100
AcDbEntity
  8
A-NIVEL
100
AcDbText
 10
47.199999999999996
 20
25.08
 30
0.0
 40
0.2
  1
NPT ±0,00
  7
ARQ
 11
47.199999999999996
 21
25.08
 31
0.0
100
AcDbText
  0
LINE
  5
28E
330
17
100
AcDbEntity
  8
A-NIVEL
100
AcDbLine
 10
46.699999999999996
 20
27.85
 30
0.0
 11
48.099999999999994
 21
27.85
 31
0.0
  0
LWPOLYLINE
  5
28F
330
17
100
AcDbEntity
  8
A-NIVEL
100
AcDbPolyline
 90
3
 70
1
 10
46.9
 20
27.85
 10
47.099999999999994
 20
28.1
 10
46.699999999999996
 20
28.1
  0
TEXT
  5
290
330
17
100
AcDbEntity
  8
A-NIVEL
100
AcDbText
 10
47.199999999999996
 20
27.93
 30
0.0
 40
0.2
  1
NPT +2,85
  7
ARQ
 11
47.199999999999996
 21
27.93
 31
0.0
100
AcDbText
  0
LINE
  5
291
330
17
100
AcDbEntity
  8
A-NIVEL
100
AcDbLine
 10
46.699999999999996
 20
32.1
 30
0.0
 11
48.099999999999994
 21
32.1
 31
0.0
  0
LWPOLYLINE
  5
292
330
17
100
AcDbEntity
  8
A-NIVEL
100
AcDbPolyline
 90
3
 70
1
 10
46.9
 20
32.1
 10
47.099999999999994
 20
32.35
 10
46.699999999999996
 20
32.35
  0
TEXT
  5
293
330
17
100
AcDbEntity
  8
A-NIVEL
100
AcDbText
 10
47.199999999999996
 20
32.18
 30
0.0
 40
0.2
  1
+7,10
  7
ARQ
 11
47.199999999999996
 21
32.18
 31
0.0
100
AcDbText
  0
TEXT
  5
294
330
17
100
AcDbEntity
  8
A-TEXT
100
AcDbText
 10
31.999999999999996
 20
23.4
 30
0.0
 40
0.4
  1
ELEVACIÓN NORTE
  7
ARQ
 11
31.999999999999996
 21
23.4
 31
0.0
100
AcDbText
  0
TEXT
  5
295
330
17
100
AcDbEntity
  8
A-TEXT
 62
8
100
AcDbText
 10
31.999999999999996
 20
22.849999999999998
 30
0.0
 40
0.22000000000000003
  1
Escala 1:100
  7
ARQ
 11
31.999999999999996
 21
22.849999999999998
 31
0.0
100
AcDbText
  0
LINE
  5
296
330
17
100
AcDbEntity
  8
A-TERM
100
AcDbLine
 10
32.4
 20
25.6
 30
0.0
 11
45.699999999999996
 21
25.6
 31
0.0
  0
CIRCLE
  5
297
330
17
100
AcDbEntity
  8
A-TERM
100
AcDbCircle
 10
31.2
 20
26.6
 30
0.0
 40
0.26
  0
TEXT
  5
298
330
17
100
AcDbEntity
  8
A-TERM
100
AcDbText
 10
31.2
 20
26.6
 30
0.0
 40
0.24
  1
1
  7
ARQ
 72
1
 11
31.2
 21
26.6
 31
0.0
100
AcDbText
 73
2
  0
LINE
  5
299
330
17
100
AcDbEntity
  8
A-TERM
100
AcDbLine
 10
31.46
 20
26.6
 30
0.0
 11
32.519999999999996
 21
26.6
 31
0.0
  0
CIRCLE
  5
29A
330
17
100
AcDbEntity
  8
A-TERM
100
AcDbCircle
 10
32.519999999999996
 20
26.6
 30
0.0
 40
0.05
  0
CIRCLE
  5
29B
330
17
100
AcDbEntity
  8
A-TERM
100
AcDbCircle
 10
31.2
 20
25.3
 30
0.0
 40
0.26
  0
TEXT
  5
29C
330
17
100
AcDbEntity
  8
A-TERM
100
AcDbText
 10
31.2
 20
25.3
 30
0.0
 40
0.24
  1
2
  7
ARQ
 72
1
 11
31.2
 21
25.3
 31
0.0
100
AcDbText
 73
2
  0
LINE
  5
29D
330
17
100
AcDbEntity
  8
A-TERM
100
AcDbLine
 10
31.46
 20
25.3
 30
0.0
 11
32.519999999999996
 21
25.3
 31
0.0
  0
CIRCLE
  5
29E
330
17
100
AcDbEntity
  8
A-TERM
100
AcDbCircle
 10
32.519999999999996
 20
25.3
 30
0.0
 40
0.05
  0
CIRCLE
  5
29F
330
17
100
AcDbEntity
  8
A-TERM
100
AcDbCircle
 10
40.65
 20
33.0
 30
0.0
 40
0.26
  0
TEXT
  5
2A0
330
17
100
AcDbEntity
  8
A-TERM
100
AcDbText
 10
40.65
 20
33.0
 30
0.0
 40
0.24
  1
3
  7
ARQ
 72
1
 11
40.65
 21
33.0
 31
0.0
100
AcDbText
 73
2
  0
LINE
  5
2A1
330
17
100
AcDbEntity
  8
A-TERM
100
AcDbLine
 10
40.4552608937525
 20
32.827730790627214
 30
0.0
 11
39.349999999999994
 21
31.85
 31
0.0
  0
CIRCLE
  5
2A2
330
17
100
AcDbEntity
  8
A-TERM
100
AcDbCircle
 10
39.349999999999994
 20
31.85
 30
0.0
 40
0.05
  0
LINE
  5
2A3
330
17
100
AcDbEntity
  8
A-VIST
100
AcDbLine
 10
3.3999999999999986
 20
11.0
 30
0.0
 11
3.3999999999999986
 21
13.546
 31
0.0
  0
LINE
  5
2A4
330
17
100
AcDbEntity
  8
A-VIST
100
AcDbLine
 10
3.3999999999999986
 20
11.0
 30
0.0
 11
3.549999999999999
 21
11.0
 31
0.0
  0
LINE
  5
2A5
330
17
100
AcDbEntity
  8
A-VIST
100
AcDbLine
 10
3.3999999999999986
 20
13.802
 30
0.0
 11
3.599999999999998
 21
13.802
 31
0.0
  0
LINE
  5
2A6
330
17
100
AcDbEntity
  8
A-VIST
100
AcDbLine
 10
3.599999999999998
 20
13.458
 30
0.0
 11
3.599999999999998
 21
13.546
 31
0.0
  0
LINE
  5
2A7
330
17
100
AcDbEntity
  8
A-VIST
100
AcDbLine
 10
3.599999999999998
 20
13.458
 30
0.0
 11
3.599999999999998
 21
13.546
 31
0.0
  0
LINE
  5
2A8
330
17
100
AcDbEntity
  8
A-VIST
100
AcDbLine
 10
3.629999999999999
 20
11.0
 30
0.0
 11
17.169999999999998
 21
11.0
 31
0.0
  0
LINE
  5
2A9
330
17
100
AcDbEntity
  8
A-VIST
100
AcDbLine
 10
17.25
 20
11.0
 30
0.0
 11
17.4
 21
11.0
 31
0.0
  0
LINE
  5
2AA
330
17
100
AcDbEntity
  8
A-VIST
100
AcDbLine
 10
3.599999999999998
 20
13.802
 30
0.0
 11
17.4
 21
13.802
 31
0.0
  0
LINE
  5
2AB
330
17
100
AcDbEntity
  8
A-VIST
100
AcDbLine
 10
17.4
 20
11.0
 30
0.0
 11
17.4
 21
13.546
 31
0.0
  0
LINE
  5
2AC
330
17
100
AcDbEntity
  8
A-VIST
100
AcDbLine
 10
5.999999999999998
 20
12.1
 30
0.0
 11
4.299999999999999
 21
12.1
 31
0.0
  0
LINE
  5
2AD
330
17
100
AcDbEntity
  8
A-VIST
100
AcDbLine
 10
5.999999999999998
 20
13.2
 30
0.0
 11
5.999999999999998
 21
12.1
 31
0.0
  0
LINE
  5
2AE
330
17
100
AcDbEntity
  8
A-VIST
100
AcDbLine
 10
4.299999999999999
 20
12.1
 30
0.0
 11
4.299999999999999
 21
13.2
 31
0.0
  0
LINE
  5
2AF
330
17
100
AcDbEntity
  8
A-VIST
100
AcDbLine
 10
4.299999999999999
 20
13.2
 30
0.0
 11
5.999999999999998
 21
13.2
 31
0.0
  0
LINE
  5
2B0
330
17
100
AcDbEntity
  8
A-VIST
100
AcDbLine
 10
10.299999999999999
 20
11.55
 30
0.0
 11
8.099999999999998
 21
11.55
 31
0.0
  0
LINE
  5
2B1
330
17
100
AcDbEntity
  8
A-VIST
100
AcDbLine
 10
10.299999999999999
 20
13.35
 30
0.0
 11
10.299999999999999
 21
11.55
 31
0.0
  0
LINE
  5
2B2
330
17
100
AcDbEntity
  8
A-VIST
100
AcDbLine
 10
8.099999999999998
 20
11.55
 30
0.0
 11
8.099999999999998
 21
13.35
 31
0.0
  0
LINE
  5
2B3
330
17
100
AcDbEntity
  8
A-VIST
100
AcDbLine
 10
8.099999999999998
 20
13.35
 30
0.0
 11
10.299999999999999
 21
13.35
 31
0.0
  0
LINE
  5
2B4
330
17
100
AcDbEntity
  8
A-VIST
100
AcDbLine
 10
14.899999999999999
 20
11.15
 30
0.0
 11
12.299999999999999
 21
11.15
 31
0.0
  0
LINE
  5
2B5
330
17
100
AcDbEntity
  8
A-VIST
100
AcDbLine
 10
12.299999999999999
 20
11.15
 30
0.0
 11
12.299999999999999
 21
13.35
 31
0.0
  0
LINE
  5
2B6
330
17
100
AcDbEntity
  8
A-VIST
100
AcDbLine
 10
12.299999999999999
 20
13.35
 30
0.0
 11
14.899999999999999
 21
13.35
 31
0.0
  0
LINE
  5
2B7
330
17
100
AcDbEntity
  8
A-VIST
100
AcDbLine
 10
14.899999999999999
 20
13.35
 30
0.0
 11
14.899999999999999
 21
11.15
 31
0.0
  0
LINE
  5
2B8
330
17
100
AcDbEntity
  8
A-VIST
100
AcDbLine
 10
8.799999999999999
 20
14.562
 30
0.0
 11
13.599999999999998
 21
14.562
 31
0.0
  0
LINE
  5
2B9
330
17
100
AcDbEntity
  8
A-VIST
100
AcDbLine
 10
3.3999999999999986
 20
14.578
 30
0.0
 11
3.3999999999999986
 21
16.13
 31
0.0
  0
LINE
  5
2BA
330
17
100
AcDbEntity
  8
A-VIST
100
AcDbLine
 10
3.599999999999998
 20
16.084
 30
0.0
 11
3.599999999999998
 21
16.13
 31
0.0
  0
LINE
  5
2BB
330
17
100
AcDbEntity
  8
A-VIST
100
AcDbLine
 10
3.599999999999998
 20
16.084
 30
0.0
 11
3.599999999999998
 21
16.13
 31
0.0
  0
LINE
  5
2BC
330
17
100
AcDbEntity
  8
A-VIST
100
AcDbLine
 10
8.799999999999999
 20
14.578
 30
0.0
 11
8.799999999999999
 21
16.13
 31
0.0
  0
LINE
  5
2BD
330
17
100
AcDbEntity
  8
A-VIST
100
AcDbLine
 10
6.799999999999999
 20
14.8
 30
0.0
 11
4.599999999999998
 21
14.8
 31
0.0
  0
LINE
  5
2BE
330
17
100
AcDbEntity
  8
A-VIST
100
AcDbLine
 10
4.599999999999998
 20
14.8
 30
0.0
 11
4.599999999999998
 21
16.05
 31
0.0
  0
LINE
  5
2BF
330
17
100
AcDbEntity
  8
A-VIST
100
AcDbLine
 10
4.599999999999998
 20
16.05
 30
0.0
 11
6.799999999999999
 21
16.05
 31
0.0
  0
LINE
  5
2C0
330
17
100
AcDbEntity
  8
A-VIST
100
AcDbLine
 10
6.799999999999999
 20
16.05
 30
0.0
 11
6.799999999999999
 21
14.8
 31
0.0
  0
LINE
  5
2C1
330
17
100
AcDbEntity
  8
A-VIST
100
AcDbLine
 10
9.049999999999999
 20
16.35
 30
0.0
 11
11.869999999999997
 21
16.35
 31
0.0
  0
LINE
  5
2C2
330
17
100
AcDbEntity
  8
A-VIST
100
AcDbLine
 10
11.95
 20
16.35
 30
0.0
 11
12.399999999999999
 21
16.35
 31
0.0
  0
LINE
  5
2C3
330
17
100
AcDbEntity
  8
A-VIST
100
AcDbLine
 10
9.599999999999998
 20
14.6
 30
0.0
 11
9.599999999999998
 21
16.05
 31
0.0
  0
LINE
  5
2C4
330
17
100
AcDbEntity
  8
A-VIST
100
AcDbLine
 10
9.599999999999998
 20
16.05
 30
0.0
 11
11.599999999999998
 21
16.05
 31
0.0
  0
LINE
  5
2C5
330
17
100
AcDbEntity
  8
A-VIST
100
AcDbLine
 10
11.599999999999998
 20
16.05
 30
0.0
 11
11.599999999999998
 21
14.6
 31
0.0
  0
LINE
  5
2C6
330
17
100
AcDbEntity
  8
A-VIST
100
AcDbLine
 10
12.399999999999999
 20
14.6
 30
0.0
 11
12.399999999999999
 21
16.35
 31
0.0
  0
LINE
  5
2C7
330
17
100
AcDbEntity
  8
A-VIST
100
AcDbLine
 10
12.399999999999999
 20
16.35
 30
0.0
 11
12.599999999999998
 21
16.35
 31
0.0
  0
LINE
  5
2C8
330
17
100
AcDbEntity
  8
A-VIST
100
AcDbLine
 10
12.599999999999998
 20
14.6
 30
0.0
 11
12.599999999999998
 21
16.35
 31
0.0
  0
LINE
  5
2C9
330
17
100
AcDbEntity
  8
A-VIST
100
AcDbLine
 10
12.599999999999998
 20
14.6
 30
0.0
 11
12.599999999999998
 21
16.35
 31
0.0
  0
LINE
  5
2CA
330
17
100
AcDbEntity
  8
A-VIST
100
AcDbLine
 10
13.54
 20
14.6
 30
0.0
 11
13.54
 21
16.13
 31
0.0
  0
LINE
  5
2CB
330
17
100
AcDbEntity
  8
A-VIST
100
AcDbLine
 10
12.599999999999998
 20
16.35
 30
0.0
 11
13.069999999999999
 21
16.35
 31
0.0
  0
LINE
  5
2CC
330
17
100
AcDbEntity
  8
A-VIST
100
AcDbLine
 10
13.149999999999999
 20
16.35
 30
0.0
 11
13.349999999999998
 21
16.35
 31
0.0
  0
LINE
  5
2CD
330
17
100
AcDbEntity
  8
A-VIST
100
AcDbLine
 10
13.599999999999998
 20
14.578
 30
0.0
 11
13.599999999999998
 21
16.13
 31
0.0
  0
LINE
  5
2CE
330
17
100
AcDbEntity
  8
A-VIST
100
AcDbLine
 10
13.799999999999999
 20
14.578
 30
0.0
 11
13.799999999999999
 21
16.13
 31
0.0
  0
LINE
  5
2CF
330
17
100
AcDbEntity
  8
A-VIST
100
AcDbLine
 10
13.799999999999999
 20
14.578
 30
0.0
 11
13.799999999999999
 21
16.13
 31
0.0
  0
LINE
  5
2D0
330
17
100
AcDbEntity
  8
A-VIST
100
AcDbLine
 10
17.4
 20
14.578
 30
0.0
 11
17.4
 21
16.13
 31
0.0
  0
LINE
  5
2D1
330
17
100
AcDbEntity
  8
A-VIST
100
AcDbLine
 10
16.299999999999997
 20
14.8
 30
0.0
 11
14.799999999999999
 21
14.8
 31
0.0
  0
LINE
  5
2D2
330
17
100
AcDbEntity
  8
A-VIST
100
AcDbLine
 10
14.799999999999999
 20
14.8
 30
0.0
 11
14.799999999999999
 21
16.05
 31
0.0
  0
LINE
  5
2D3
330
17
100
AcDbEntity
  8
A-VIST
100
AcDbLine
 10
14.799999999999999
 20
16.05
 30
0.0
 11
16.299999999999997
 21
16.05
 31
0.0
  0
LINE
  5
2D4
330
17
100
AcDbEntity
  8
A-VIST
100
AcDbLine
 10
16.299999999999997
 20
16.05
 30
0.0
 11
16.299999999999997
 21
14.8
 31
0.0
  0
LINE
  5
2D5
330
17
100
AcDbEntity
  8
A-VIST
100
AcDbLine
 10
13.54
 20
14.6
 30
0.0
 11
13.54
 21
16.13
 31
0.0
  0
LINE
  5
2D6
330
17
100
AcDbEntity
  8
A-VIST
100
AcDbLine
 10
4.299999999999999
 20
12.1
 30
0.0
 11
5.999999999999998
 21
12.1
 31
0.0
  0
LINE
  5
2D7
330
17
100
AcDbEntity
  8
A-VIST
100
AcDbLine
 10
4.299999999999999
 20
13.2
 30
0.0
 11
4.299999999999999
 21
12.1
 31
0.0
  0
LINE
  5
2D8
330
17
100
AcDbEntity
  8
A-VIST
100
AcDbLine
 10
5.999999999999998
 20
12.1
 30
0.0
 11
5.999999999999998
 21
13.2
 31
0.0
  0
LINE
  5
2D9
330
17
100
AcDbEntity
  8
A-VIST
100
AcDbLine
 10
5.999999999999998
 20
13.2
 30
0.0
 11
4.299999999999999
 21
13.2
 31
0.0
  0
LINE
  5
2DA
330
17
100
AcDbEntity
  8
A-VIST
100
AcDbLine
 10
4.349999999999998
 20
12.15
 30
0.0
 11
5.949999999999999
 21
12.15
 31
0.0
  0
LINE
  5
2DB
330
17
100
AcDbEntity
  8
A-VIST
100
AcDbLine
 10
5.949999999999999
 20
12.15
 30
0.0
 11
5.949999999999999
 21
13.15
 31
0.0
  0
LINE
  5
2DC
330
17
100
AcDbEntity
  8
A-VIST
100
AcDbLine
 10
5.949999999999999
 20
13.15
 30
0.0
 11
4.349999999999998
 21
13.15
 31
0.0
  0
LINE
  5
2DD
330
17
100
AcDbEntity
  8
A-VIST
100
AcDbLine
 10
4.349999999999998
 20
13.15
 30
0.0
 11
4.349999999999998
 21
12.15
 31
0.0
  0
LINE
  5
2DE
330
17
100
AcDbEntity
  8
A-VIST
100
AcDbLine
 10
4.349999999999998
 20
12.15
 30
0.0
 11
5.949999999999999
 21
12.15
 31
0.0
  0
LINE
  5
2DF
330
17
100
AcDbEntity
  8
A-VIST
100
AcDbLine
 10
5.949999999999999
 20
12.15
 30
0.0
 11
5.949999999999999
 21
13.15
 31
0.0
  0
LINE
  5
2E0
330
17
100
AcDbEntity
  8
A-VIST
100
AcDbLine
 10
5.949999999999999
 20
13.15
 30
0.0
 11
4.349999999999998
 21
13.15
 31
0.0
  0
LINE
  5
2E1
330
17
100
AcDbEntity
  8
A-VIST
100
AcDbLine
 10
4.349999999999998
 20
13.15
 30
0.0
 11
4.349999999999998
 21
12.15
 31
0.0
  0
LINE
  5
2E2
330
17
100
AcDbEntity
  8
A-VIST
100
AcDbLine
 10
8.099999999999998
 20
11.55
 30
0.0
 11
10.299999999999999
 21
11.55
 31
0.0
  0
LINE
  5
2E3
330
17
100
AcDbEntity
  8
A-VIST
100
AcDbLine
 10
8.099999999999998
 20
13.35
 30
0.0
 11
8.099999999999998
 21
11.55
 31
0.0
  0
LINE
  5
2E4
330
17
100
AcDbEntity
  8
A-VIST
100
AcDbLine
 10
10.299999999999999
 20
11.55
 30
0.0
 11
10.299999999999999
 21
13.35
 31
0.0
  0
LINE
  5
2E5
330
17
100
AcDbEntity
  8
A-VIST
100
AcDbLine
 10
10.299999999999999
 20
13.35
 30
0.0
 11
8.099999999999998
 21
13.35
 31
0.0
  0
LINE
  5
2E6
330
17
100
AcDbEntity
  8
A-VIST
100
AcDbLine
 10
8.149999999999999
 20
11.6
 30
0.0
 11
10.249999999999998
 21
11.6
 31
0.0
  0
LINE
  5
2E7
330
17
100
AcDbEntity
  8
A-VIST
100
AcDbLine
 10
10.249999999999998
 20
11.6
 30
0.0
 11
10.249999999999998
 21
13.3
 31
0.0
  0
LINE
  5
2E8
330
17
100
AcDbEntity
  8
A-VIST
100
AcDbLine
 10
10.249999999999998
 20
13.3
 30
0.0
 11
8.149999999999999
 21
13.3
 31
0.0
  0
LINE
  5
2E9
330
17
100
AcDbEntity
  8
A-VIST
100
AcDbLine
 10
8.149999999999999
 20
13.3
 30
0.0
 11
8.149999999999999
 21
11.6
 31
0.0
  0
LINE
  5
2EA
330
17
100
AcDbEntity
  8
A-VIST
100
AcDbLine
 10
8.149999999999999
 20
11.6
 30
0.0
 11
10.249999999999998
 21
11.6
 31
0.0
  0
LINE
  5
2EB
330
17
100
AcDbEntity
  8
A-VIST
100
AcDbLine
 10
10.249999999999998
 20
11.6
 30
0.0
 11
10.249999999999998
 21
13.3
 31
0.0
  0
LINE
  5
2EC
330
17
100
AcDbEntity
  8
A-VIST
100
AcDbLine
 10
10.249999999999998
 20
13.3
 30
0.0
 11
8.149999999999999
 21
13.3
 31
0.0
  0
LINE
  5
2ED
330
17
100
AcDbEntity
  8
A-VIST
100
AcDbLine
 10
8.149999999999999
 20
13.3
 30
0.0
 11
8.149999999999999
 21
11.6
 31
0.0
  0
LINE
  5
2EE
330
17
100
AcDbEntity
  8
A-VIST
100
AcDbLine
 10
12.299999999999999
 20
11.15
 30
0.0
 11
14.899999999999999
 21
11.15
 31
0.0
  0
LINE
  5
2EF
330
17
100
AcDbEntity
  8
A-VIST
100
AcDbLine
 10
12.299999999999999
 20
13.35
 30
0.0
 11
12.299999999999999
 21
11.15
 31
0.0
  0
LINE
  5
2F0
330
17
100
AcDbEntity
  8
A-VIST
100
AcDbLine
 10
14.899999999999999
 20
11.15
 30
0.0
 11
14.899999999999999
 21
13.35
 31
0.0
  0
LINE
  5
2F1
330
17
100
AcDbEntity
  8
A-VIST
100
AcDbLine
 10
14.899999999999999
 20
13.35
 30
0.0
 11
12.299999999999999
 21
13.35
 31
0.0
  0
LINE
  5
2F2
330
17
100
AcDbEntity
  8
A-VIST
100
AcDbLine
 10
12.349999999999998
 20
11.2
 30
0.0
 11
14.849999999999998
 21
11.2
 31
0.0
  0
LINE
  5
2F3
330
17
100
AcDbEntity
  8
A-VIST
100
AcDbLine
 10
14.849999999999998
 20
11.2
 30
0.0
 11
14.849999999999998
 21
13.3
 31
0.0
  0
LINE
  5
2F4
330
17
100
AcDbEntity
  8
A-VIST
100
AcDbLine
 10
14.849999999999998
 20
13.3
 30
0.0
 11
12.349999999999998
 21
13.3
 31
0.0
  0
LINE
  5
2F5
330
17
100
AcDbEntity
  8
A-VIST
100
AcDbLine
 10
12.349999999999998
 20
13.3
 30
0.0
 11
12.349999999999998
 21
11.2
 31
0.0
  0
LINE
  5
2F6
330
17
100
AcDbEntity
  8
A-VIST
100
AcDbLine
 10
12.349999999999998
 20
11.2
 30
0.0
 11
14.849999999999998
 21
11.2
 31
0.0
  0
LINE
  5
2F7
330
17
100
AcDbEntity
  8
A-VIST
100
AcDbLine
 10
14.849999999999998
 20
11.2
 30
0.0
 11
14.849999999999998
 21
13.3
 31
0.0
  0
LINE
  5
2F8
330
17
100
AcDbEntity
  8
A-VIST
100
AcDbLine
 10
14.849999999999998
 20
13.3
 30
0.0
 11
12.349999999999998
 21
13.3
 31
0.0
  0
LINE
  5
2F9
330
17
100
AcDbEntity
  8
A-VIST
100
AcDbLine
 10
12.349999999999998
 20
13.3
 30
0.0
 11
12.349999999999998
 21
11.2
 31
0.0
  0
LINE
  5
2FA
330
17
100
AcDbEntity
  8
A-VIST
100
AcDbLine
 10
14.799999999999999
 20
14.8
 30
0.0
 11
16.299999999999997
 21
14.8
 31
0.0
  0
LINE
  5
2FB
330
17
100
AcDbEntity
  8
A-VIST
100
AcDbLine
 10
14.799999999999999
 20
16.05
 30
0.0
 11
14.799999999999999
 21
14.8
 31
0.0
  0
LINE
  5
2FC
330
17
100
AcDbEntity
  8
A-VIST
100
AcDbLine
 10
16.299999999999997
 20
14.8
 30
0.0
 11
16.299999999999997
 21
16.05
 31
0.0
  0
LINE
  5
2FD
330
17
100
AcDbEntity
  8
A-VIST
100
AcDbLine
 10
16.299999999999997
 20
16.05
 30
0.0
 11
14.799999999999999
 21
16.05
 31
0.0
  0
LINE
  5
2FE
330
17
100
AcDbEntity
  8
A-VIST
100
AcDbLine
 10
14.849999999999998
 20
14.85
 30
0.0
 11
16.25
 21
14.85
 31
0.0
  0
LINE
  5
2FF
330
17
100
AcDbEntity
  8
A-VIST
100
AcDbLine
 10
16.25
 20
14.85
 30
0.0
 11
16.25
 21
16.0
 31
0.0
  0
LINE
  5
300
330
17
100
AcDbEntity
  8
A-VIST
100
AcDbLine
 10
16.25
 20
16.0
 30
0.0
 11
14.849999999999998
 21
16.0
 31
0.0
  0
LINE
  5
301
330
17
100
AcDbEntity
  8
A-VIST
100
AcDbLine
 10
14.849999999999998
 20
16.0
 30
0.0
 11
14.849999999999998
 21
14.85
 31
0.0
  0
LINE
  5
302
330
17
100
AcDbEntity
  8
A-VIST
100
AcDbLine
 10
14.849999999999998
 20
14.85
 30
0.0
 11
16.25
 21
14.85
 31
0.0
  0
LINE
  5
303
330
17
100
AcDbEntity
  8
A-VIST
100
AcDbLine
 10
16.25
 20
14.85
 30
0.0
 11
16.25
 21
16.0
 31
0.0
  0
LINE
  5
304
330
17
100
AcDbEntity
  8
A-VIST
100
AcDbLine
 10
16.25
 20
16.0
 30
0.0
 11
14.849999999999998
 21
16.0
 31
0.0
  0
LINE
  5
305
330
17
100
AcDbEntity
  8
A-VIST
100
AcDbLine
 10
14.849999999999998
 20
16.0
 30
0.0
 11
14.849999999999998
 21
14.85
 31
0.0
  0
LINE
  5
306
330
17
100
AcDbEntity
  8
A-VIST
100
AcDbLine
 10
4.599999999999998
 20
14.8
 30
0.0
 11
6.799999999999999
 21
14.8
 31
0.0
  0
LINE
  5
307
330
17
100
AcDbEntity
  8
A-VIST
100
AcDbLine
 10
4.599999999999998
 20
16.05
 30
0.0
 11
4.599999999999998
 21
14.8
 31
0.0
  0
LINE
  5
308
330
17
100
AcDbEntity
  8
A-VIST
100
AcDbLine
 10
6.799999999999999
 20
14.8
 30
0.0
 11
6.799999999999999
 21
16.05
 31
0.0
  0
LINE
  5
309
330
17
100
AcDbEntity
  8
A-VIST
100
AcDbLine
 10
6.799999999999999
 20
16.05
 30
0.0
 11
4.599999999999998
 21
16.05
 31
0.0
  0
LINE
  5
30A
330
17
100
AcDbEntity
  8
A-VIST
100
AcDbLine
 10
4.649999999999999
 20
14.85
 30
0.0
 11
6.749999999999998
 21
14.85
 31
0.0
  0
LINE
  5
30B
330
17
100
AcDbEntity
  8
A-VIST
100
AcDbLine
 10
6.749999999999998
 20
14.85
 30
0.0
 11
6.749999999999998
 21
16.0
 31
0.0
  0
LINE
  5
30C
330
17
100
AcDbEntity
  8
A-VIST
100
AcDbLine
 10
6.749999999999998
 20
16.0
 30
0.0
 11
4.649999999999999
 21
16.0
 31
0.0
  0
LINE
  5
30D
330
17
100
AcDbEntity
  8
A-VIST
100
AcDbLine
 10
4.649999999999999
 20
16.0
 30
0.0
 11
4.649999999999999
 21
14.85
 31
0.0
  0
LINE
  5
30E
330
17
100
AcDbEntity
  8
A-VIST
100
AcDbLine
 10
4.649999999999999
 20
14.85
 30
0.0
 11
6.749999999999998
 21
14.85
 31
0.0
  0
LINE
  5
30F
330
17
100
AcDbEntity
  8
A-VIST
100
AcDbLine
 10
6.749999999999998
 20
14.85
 30
0.0
 11
6.749999999999998
 21
16.0
 31
0.0
  0
LINE
  5
310
330
17
100
AcDbEntity
  8
A-VIST
100
AcDbLine
 10
6.749999999999998
 20
16.0
 30
0.0
 11
4.649999999999999
 21
16.0
 31
0.0
  0
LINE
  5
311
330
17
100
AcDbEntity
  8
A-VIST
100
AcDbLine
 10
4.649999999999999
 20
16.0
 30
0.0
 11
4.649999999999999
 21
14.85
 31
0.0
  0
LINE
  5
312
330
17
100
AcDbEntity
  8
A-VIST
100
AcDbLine
 10
9.599999999999998
 20
16.05
 30
0.0
 11
9.599999999999998
 21
14.6
 31
0.0
  0
LINE
  5
313
330
17
100
AcDbEntity
  8
A-VIST
100
AcDbLine
 10
11.599999999999998
 20
14.6
 30
0.0
 11
11.599999999999998
 21
16.05
 31
0.0
  0
LINE
  5
314
330
17
100
AcDbEntity
  8
A-VIST
100
AcDbLine
 10
11.599999999999998
 20
16.05
 30
0.0
 11
9.599999999999998
 21
16.05
 31
0.0
  0
LINE
  5
315
330
17
100
AcDbEntity
  8
A-VIST
100
AcDbLine
 10
11.549999999999999
 20
14.6
 30
0.0
 11
11.549999999999999
 21
16.0
 31
0.0
  0
LINE
  5
316
330
17
100
AcDbEntity
  8
A-VIST
100
AcDbLine
 10
11.549999999999999
 20
16.0
 30
0.0
 11
9.649999999999999
 21
16.0
 31
0.0
  0
LINE
  5
317
330
17
100
AcDbEntity
  8
A-VIST
100
AcDbLine
 10
9.649999999999999
 20
16.0
 30
0.0
 11
9.649999999999999
 21
14.6
 31
0.0
  0
LINE
  5
318
330
17
100
AcDbEntity
  8
A-VIST
100
AcDbLine
 10
11.549999999999999
 20
14.6
 30
0.0
 11
11.549999999999999
 21
16.0
 31
0.0
  0
LINE
  5
319
330
17
100
AcDbEntity
  8
A-VIST
100
AcDbLine
 10
11.549999999999999
 20
16.0
 30
0.0
 11
9.649999999999999
 21
16.0
 31
0.0
  0
LINE
  5
31A
330
17
100
AcDbEntity
  8
A-VIST
100
AcDbLine
 10
9.649999999999999
 20
16.0
 30
0.0
 11
9.649999999999999
 21
14.6
 31
0.0
  0
LINE
  5
31B
330
17
100
AcDbEntity
  8
A-VIST
100
AcDbLine
 10
3.3999999999999986
 20
10.65
 30
0.0
 11
3.3999999999999986
 21
11.0
 31
0.0
  0
LINE
  5
31C
330
17
100
AcDbEntity
  8
A-VIST
100
AcDbLine
 10
17.4
 20
10.65
 30
0.0
 11
3.3999999999999986
 21
10.65
 31
0.0
  0
LINE
  5
31D
330
17
100
AcDbEntity
  8
A-VIST
100
AcDbLine
 10
17.4
 20
10.65
 30
0.0
 11
17.4
 21
11.0
 31
0.0
  0
LINE
  5
31E
330
17
100
AcDbEntity
  8
A-VIST
100
AcDbLine
 10
17.4
 20
11.0
 30
0.0
 11
17.25
 21
11.0
 31
0.0
  0
LINE
  5
31F
330
17
100
AcDbEntity
  8
A-VIST
100
AcDbLine
 10
17.169999999999998
 20
11.0
 30
0.0
 11
3.629999999999999
 21
11.0
 31
0.0
  0
LINE
  5
320
330
17
100
AcDbEntity
  8
A-VIST
100
AcDbLine
 10
3.549999999999999
 20
11.0
 30
0.0
 11
3.3999999999999986
 21
11.0
 31
0.0
  0
LINE
  5
321
330
17
100
AcDbEntity
  8
A-VIST
100
AcDbLine
 10
2.9999999999999982
 20
16.13
 30
0.0
 11
2.9999999999999982
 21
16.234
 31
0.0
  0
LINE
  5
322
330
17
100
AcDbEntity
  8
A-VIST
100
AcDbLine
 10
2.9999999999999982
 20
16.334
 30
0.0
 11
2.9999999999999982
 21
16.35
 31
0.0
  0
LINE
  5
323
330
17
100
AcDbEntity
  8
A-VIST
100
AcDbLine
 10
2.9999999999999982
 20
18.1
 30
0.0
 11
2.9999999999999982
 21
16.35
 31
0.0
  0
LINE
  5
324
330
17
100
AcDbEntity
  8
A-VIST
100
AcDbLine
 10
9.049999999999999
 20
16.13
 30
0.0
 11
2.9999999999999982
 21
16.13
 31
0.0
  0
LINE
  5
325
330
17
100
AcDbEntity
  8
A-VIST
100
AcDbLine
 10
9.049999999999999
 20
16.13
 30
0.0
 11
9.049999999999999
 21
16.234
 31
0.0
  0
LINE
  5
326
330
17
100
AcDbEntity
  8
A-VIST
100
AcDbLine
 10
9.049999999999999
 20
16.334
 30
0.0
 11
9.049999999999999
 21
16.35
 31
0.0
  0
LINE
  5
327
330
17
100
AcDbEntity
  8
A-VIST
100
AcDbLine
 10
2.9999999999999982
 20
16.35
 30
0.0
 11
9.049999999999999
 21
16.35
 31
0.0
  0
LINE
  5
328
330
17
100
AcDbEntity
  8
A-VIST
100
AcDbLine
 10
2.9999999999999982
 20
18.1
 30
0.0
 11
17.799999999999997
 21
18.1
 31
0.0
  0
LINE
  5
329
330
17
100
AcDbEntity
  8
A-VIST
100
AcDbLine
 10
17.799999999999997
 20
16.35
 30
0.0
 11
17.799999999999997
 21
18.1
 31
0.0
  0
LINE
  5
32A
330
17
100
AcDbEntity
  8
A-VIST
100
AcDbLine
 10
17.799999999999997
 20
16.13
 30
0.0
 11
17.799999999999997
 21
16.234
 31
0.0
  0
LINE
  5
32B
330
17
100
AcDbEntity
  8
A-VIST
100
AcDbLine
 10
17.799999999999997
 20
16.334
 30
0.0
 11
17.799999999999997
 21
16.35
 31
0.0
  0
LINE
  5
32C
330
17
100
AcDbEntity
  8
A-VIST
100
AcDbLine
 10
12.149999999999999
 20
17.4693
 30
0.0
 11
9.049999999999999
 21
17.4693
 31
0.0
  0
LINE
  5
32D
330
17
100
AcDbEntity
  8
A-VIST
100
AcDbLine
 10
9.049999999999999
 20
17.6893
 30
0.0
 11
12.149999999999999
 21
17.6893
 31
0.0
  0
LINE
  5
32E
330
17
100
AcDbEntity
  8
A-VIST
100
AcDbLine
 10
12.149999999999999
 20
16.755
 30
0.0
 11
12.149999999999999
 21
16.859
 31
0.0
  0
LINE
  5
32F
330
17
100
AcDbEntity
  8
A-VIST
100
AcDbLine
 10
12.149999999999999
 20
16.959
 30
0.0
 11
12.149999999999999
 21
16.975
 31
0.0
  0
LINE
  5
330
330
17
100
AcDbEntity
  8
A-VIST
100
AcDbLine
 10
12.149999999999999
 20
17.6893
 30
0.0
 11
12.149999999999999
 21
16.975
 31
0.0
  0
LINE
  5
331
330
17
100
AcDbEntity
  8
A-VIST
100
AcDbLine
 10
13.349999999999998
 20
16.755
 30
0.0
 11
12.149999999999999
 21
16.755
 31
0.0
  0
LINE
  5
332
330
17
100
AcDbEntity
  8
A-VIST
100
AcDbLine
 10
12.149999999999999
 20
16.975
 30
0.0
 11
13.349999999999998
 21
16.975
 31
0.0
  0
LINE
  5
333
330
17
100
AcDbEntity
  8
A-VIST
100
AcDbLine
 10
13.349999999999998
 20
16.13
 30
0.0
 11
13.349999999999998
 21
16.234
 31
0.0
  0
LINE
  5
334
330
17
100
AcDbEntity
  8
A-VIST
100
AcDbLine
 10
13.349999999999998
 20
16.334
 30
0.0
 11
13.349999999999998
 21
16.35
 31
0.0
  0
LINE
  5
335
330
17
100
AcDbEntity
  8
A-VIST
100
AcDbLine
 10
13.349999999999998
 20
16.975
 30
0.0
 11
13.349999999999998
 21
16.35
 31
0.0
  0
LINE
  5
336
330
17
100
AcDbEntity
  8
A-VIST
100
AcDbLine
 10
17.799999999999997
 20
16.13
 30
0.0
 11
13.349999999999998
 21
16.13
 31
0.0
  0
LINE
  5
337
330
17
100
AcDbEntity
  8
A-VIST
100
AcDbLine
 10
13.349999999999998
 20
16.35
 30
0.0
 11
17.799999999999997
 21
16.35
 31
0.0
  0
LINE
  5
338
330
17
100
AcDbEntity
  8
A-VIST
100
AcDbLine
 10
9.049999999999999
 20
16.35
 30
0.0
 11
9.049999999999999
 21
17.6893
 31
0.0
  0
LINE
  5
339
330
17
100
AcDbEntity
  8
A-VIST
100
AcDbLine
 10
3.3999999999999986
 20
14.6
 30
0.0
 11
2.9999999999999982
 21
14.6
 31
0.0
  0
LINE
  5
33A
330
17
100
AcDbEntity
  8
A-VIST
100
AcDbLine
 10
17.799999999999997
 20
13.546
 30
0.0
 11
2.9999999999999982
 21
13.546
 31
0.0
  0
LINE
  5
33B
330
17
100
AcDbEntity
  8
A-VIST
100
AcDbLine
 10
13.599999999999998
 20
14.6
 30
0.0
 11
8.799999999999999
 21
14.6
 31
0.0
  0
LINE
  5
33C
330
17
100
AcDbEntity
  8
A-VIST
100
AcDbLine
 10
17.799999999999997
 20
14.6
 30
0.0
 11
17.4
 21
14.6
 31
0.0
  0
LINE
  5
33D
330
17
100
AcDbEntity
  8
A-VIST
100
AcDbLine
 10
2.9999999999999982
 20
13.546
 30
0.0
 11
2.9999999999999982
 21
13.608
 31
0.0
  0
LINE
  5
33E
330
17
100
AcDbEntity
  8
A-VIST
100
AcDbLine
 10
2.9999999999999982
 20
13.708
 30
0.0
 11
2.9999999999999982
 21
13.725999999999999
 31
0.0
  0
LINE
  5
33F
330
17
100
AcDbEntity
  8
A-VIST
100
AcDbLine
 10
2.9999999999999982
 20
14.6
 30
0.0
 11
2.9999999999999982
 21
13.725999999999999
 31
0.0
  0
LINE
  5
340
330
17
100
AcDbEntity
  8
A-VIST
100
AcDbLine
 10
2.9999999999999982
 20
13.725999999999999
 30
0.0
 11
17.799999999999997
 21
13.725999999999999
 31
0.0
  0
LINE
  5
341
330
17
100
AcDbEntity
  8
A-VIST
100
AcDbLine
 10
17.799999999999997
 20
13.725999999999999
 30
0.0
 11
17.799999999999997
 21
14.6
 31
0.0
  0
LINE
  5
342
330
17
100
AcDbEntity
  8
A-VIST
100
AcDbLine
 10
17.799999999999997
 20
13.546
 30
0.0
 11
17.799999999999997
 21
13.608
 31
0.0
  0
LINE
  5
343
330
17
100
AcDbEntity
  8
A-VIST
100
AcDbLine
 10
17.799999999999997
 20
13.708
 30
0.0
 11
17.799999999999997
 21
13.725999999999999
 31
0.0
  0
LINE
  5
344
330
17
100
AcDbEntity
  8
A-VIST
100
AcDbLine
 10
12.399999999999999
 20
16.35
 30
0.0
 11
11.95
 21
16.35
 31
0.0
  0
LINE
  5
345
330
17
100
AcDbEntity
  8
A-VIST
100
AcDbLine
 10
11.869999999999997
 20
16.35
 30
0.0
 11
9.049999999999999
 21
16.35
 31
0.0
  0
LINE
  5
346
330
17
100
AcDbEntity
  8
A-VIST
100
AcDbLine
 10
12.599999999999998
 20
16.35
 30
0.0
 11
12.399999999999999
 21
16.35
 31
0.0
  0
LINE
  5
347
330
17
100
AcDbEntity
  8
A-VIST
100
AcDbLine
 10
12.399999999999999
 20
16.35
 30
0.0
 11
12.399999999999999
 21
16.755
 31
0.0
  0
LINE
  5
348
330
17
100
AcDbEntity
  8
A-VIST
100
AcDbLine
 10
12.599999999999998
 20
16.35
 30
0.0
 11
12.599999999999998
 21
16.755
 31
0.0
  0
LINE
  5
349
330
17
100
AcDbEntity
  8
A-VIST
100
AcDbLine
 10
13.349999999999998
 20
16.35
 30
0.0
 11
13.149999999999999
 21
16.35
 31
0.0
  0
LINE
  5
34A
330
17
100
AcDbEntity
  8
A-VIST
100
AcDbLine
 10
13.069999999999999
 20
16.35
 30
0.0
 11
12.599999999999998
 21
16.35
 31
0.0
  0
LINE
  5
34B
330
17
100
AcDbEntity
  8
A-VIST
100
AcDbLine
 10
12.599999999999998
 20
16.755
 30
0.0
 11
12.599999999999998
 21
16.35
 31
0.0
  0
LINE
  5
34C
330
17
100
AcDbEntity
  8
A-VIST
100
AcDbLine
 10
17.799999999999997
 20
16.234
 30
0.0
 11
13.349999999999998
 21
16.234
 31
0.0
  0
LINE
  5
34D
330
17
100
AcDbEntity
  8
A-VIST
100
AcDbLine
 10
13.349999999999998
 20
16.234
 30
0.0
 11
13.349999999999998
 21
16.334
 31
0.0
  0
LINE
  5
34E
330
17
100
AcDbEntity
  8
A-VIST
100
AcDbLine
 10
13.349999999999998
 20
16.334
 30
0.0
 11
17.799999999999997
 21
16.334
 31
0.0
  0
LINE
  5
34F
330
17
100
AcDbEntity
  8
A-VIST
100
AcDbLine
 10
17.799999999999997
 20
16.334
 30
0.0
 11
17.799999999999997
 21
16.234
 31
0.0
  0
LINE
  5
350
330
17
100
AcDbEntity
  8
A-VIST
100
AcDbLine
 10
13.349999999999998
 20
16.859
 30
0.0
 11
12.149999999999999
 21
16.859
 31
0.0
  0
LINE
  5
351
330
17
100
AcDbEntity
  8
A-VIST
100
AcDbLine
 10
12.149999999999999
 20
16.859
 30
0.0
 11
12.149999999999999
 21
16.959
 31
0.0
  0
LINE
  5
352
330
17
100
AcDbEntity
  8
A-VIST
100
AcDbLine
 10
12.149999999999999
 20
16.959
 30
0.0
 11
13.349999999999998
 21
16.959
 31
0.0
  0
LINE
  5
353
330
17
100
AcDbEntity
  8
A-VIST
100
AcDbLine
 10
13.349999999999998
 20
16.959
 30
0.0
 11
13.349999999999998
 21
16.859
 31
0.0
  0
LINE
  5
354
330
17
100
AcDbEntity
  8
A-VIST
100
AcDbLine
 10
12.149999999999999
 20
17.573
 30
0.0
 11
9.049999999999999
 21
17.573
 31
0.0
  0
LINE
  5
355
330
17
100
AcDbEntity
  8
A-VIST
100
AcDbLine
 10
9.049999999999999
 20
17.573
 30
0.0
 11
9.049999999999999
 21
17.673000000000002
 31
0.0
  0
LINE
  5
356
330
17
100
AcDbEntity
  8
A-VIST
100
AcDbLine
 10
9.049999999999999
 20
17.673000000000002
 30
0.0
 11
12.149999999999999
 21
17.673000000000002
 31
0.0
  0
LINE
  5
357
330
17
100
AcDbEntity
  8
A-VIST
100
AcDbLine
 10
12.149999999999999
 20
17.673000000000002
 30
0.0
 11
12.149999999999999
 21
17.573
 31
0.0
  0
LINE
  5
358
330
17
100
AcDbEntity
  8
A-VIST
100
AcDbLine
 10
9.049999999999999
 20
16.234
 30
0.0
 11
2.9999999999999982
 21
16.234
 31
0.0
  0
LINE
  5
359
330
17
100
AcDbEntity
  8
A-VIST
100
AcDbLine
 10
2.9999999999999982
 20
16.234
 30
0.0
 11
2.9999999999999982
 21
16.334
 31
0.0
  0
LINE
  5
35A
330
17
100
AcDbEntity
  8
A-VIST
100
AcDbLine
 10
2.9999999999999982
 20
16.334
 30
0.0
 11
9.049999999999999
 21
16.334
 31
0.0
  0
LINE
  5
35B
330
17
100
AcDbEntity
  8
A-VIST
100
AcDbLine
 10
9.049999999999999
 20
16.334
 30
0.0
 11
9.049999999999999
 21
16.234
 31
0.0
  0
LINE
  5
35C
330
17
100
AcDbEntity
  8
A-VIST
100
AcDbLine
 10
17.799999999999997
 20
13.608
 30
0.0
 11
2.9999999999999982
 21
13.608
 31
0.0
  0
LINE
  5
35D
330
17
100
AcDbEntity
  8
A-VIST
100
AcDbLine
 10
2.9999999999999982
 20
13.608
 30
0.0
 11
2.9999999999999982
 21
13.708
 31
0.0
  0
LINE
  5
35E
330
17
100
AcDbEntity
  8
A-VIST
100
AcDbLine
 10
2.9999999999999982
 20
13.708
 30
0.0
 11
17.799999999999997
 21
13.708
 31
0.0
  0
LINE
  5
35F
330
17
100
AcDbEntity
  8
A-VIST
100
AcDbLine
 10
17.799999999999997
 20
13.708
 30
0.0
 11
17.799999999999997
 21
13.608
 31
0.0
  0
LINE
  5
360
330
17
100
AcDbEntity
  8
A-VIST
100
AcDbLine
 10
13.599999999999998
 20
14.562
 30
0.0
 11
13.599999999999998
 21
14.578
 31
0.0
  0
LINE
  5
361
330
17
100
AcDbEntity
  8
A-VIST
100
AcDbLine
 10
13.599999999999998
 20
14.578
 30
0.0
 11
17.4
 21
14.578
 31
0.0
  0
LINE
  5
362
330
17
100
AcDbEntity
  8
A-VIST
100
AcDbLine
 10
3.3999999999999986
 20
14.478
 30
0.0
 11
3.3999999999999986
 21
14.578
 31
0.0
  0
LINE
  5
363
330
17
100
AcDbEntity
  8
A-VIST
100
AcDbLine
 10
3.3999999999999986
 20
14.578
 30
0.0
 11
8.799999999999999
 21
14.578
 31
0.0
  0
LINE
  5
364
330
17
100
AcDbEntity
  8
A-VIST
100
AcDbLine
 10
8.799999999999999
 20
14.578
 30
0.0
 11
8.799999999999999
 21
14.562
 31
0.0
  0
LINE
  5
365
330
17
100
AcDbEntity
  8
A-VIST
100
AcDbLine
 10
17.169999999999998
 20
14.578
 30
0.0
 11
17.169999999999998
 21
16.003999999999998
 31
0.0
  0
LINE
  5
366
330
17
100
AcDbEntity
  8
A-VIST
100
AcDbLine
 10
17.25
 20
16.003999999999998
 30
0.0
 11
17.25
 21
14.578
 31
0.0
  0
LINE
  5
367
330
17
100
AcDbEntity
  8
A-VIST
100
AcDbLine
 10
17.25
 20
16.003999999999998
 30
0.0
 11
17.169999999999998
 21
16.003999999999998
 31
0.0
  0
LINE
  5
368
330
17
100
AcDbEntity
  8
A-VIST
100
AcDbLine
 10
17.169999999999998
 20
16.003999999999998
 30
0.0
 11
17.169999999999998
 21
16.084
 31
0.0
  0
LINE
  5
369
330
17
100
AcDbEntity
  8
A-VIST
100
AcDbLine
 10
17.169999999999998
 20
16.084
 30
0.0
 11
17.25
 21
16.084
 31
0.0
  0
LINE
  5
36A
330
17
100
AcDbEntity
  8
A-VIST
100
AcDbLine
 10
17.25
 20
16.084
 30
0.0
 11
17.25
 21
16.003999999999998
 31
0.0
  0
LINE
  5
36B
330
17
100
AcDbEntity
  8
A-VIST
100
AcDbLine
 10
13.069999999999999
 20
14.6
 30
0.0
 11
13.069999999999999
 21
16.628999999999998
 31
0.0
  0
LINE
  5
36C
330
17
100
AcDbEntity
  8
A-VIST
100
AcDbLine
 10
13.149999999999999
 20
16.628999999999998
 30
0.0
 11
13.149999999999999
 21
14.6
 31
0.0
  0
LINE
  5
36D
330
17
100
AcDbEntity
  8
A-VIST
100
AcDbLine
 10
13.149999999999999
 20
16.628999999999998
 30
0.0
 11
13.069999999999999
 21
16.628999999999998
 31
0.0
  0
LINE
  5
36E
330
17
100
AcDbEntity
  8
A-VIST
100
AcDbLine
 10
13.069999999999999
 20
16.628999999999998
 30
0.0
 11
13.069999999999999
 21
16.709
 31
0.0
  0
LINE
  5
36F
330
17
100
AcDbEntity
  8
A-VIST
100
AcDbLine
 10
13.069999999999999
 20
16.709
 30
0.0
 11
13.149999999999999
 21
16.709
 31
0.0
  0
LINE
  5
370
330
17
100
AcDbEntity
  8
A-VIST
100
AcDbLine
 10
13.149999999999999
 20
16.709
 30
0.0
 11
13.149999999999999
 21
16.628999999999998
 31
0.0
  0
LINE
  5
371
330
17
100
AcDbEntity
  8
A-VIST
100
AcDbLine
 10
11.869999999999997
 20
14.6
 30
0.0
 11
11.869999999999997
 21
17.343
 31
0.0
  0
LINE
  5
372
330
17
100
AcDbEntity
  8
A-VIST
100
AcDbLine
 10
11.95
 20
17.343
 30
0.0
 11
11.95
 21
14.6
 31
0.0
  0
LINE
  5
373
330
17
100
AcDbEntity
  8
A-VIST
100
AcDbLine
 10
11.95
 20
17.343
 30
0.0
 11
11.869999999999997
 21
17.343
 31
0.0
  0
LINE
  5
374
330
17
100
AcDbEntity
  8
A-VIST
100
AcDbLine
 10
11.869999999999997
 20
17.343
 30
0.0
 11
11.869999999999997
 21
17.423000000000002
 31
0.0
  0
LINE
  5
375
330
17
100
AcDbEntity
  8
A-VIST
100
AcDbLine
 10
11.869999999999997
 20
17.423000000000002
 30
0.0
 11
11.95
 21
17.423000000000002
 31
0.0
  0
LINE
  5
376
330
17
100
AcDbEntity
  8
A-VIST
100
AcDbLine
 10
11.95
 20
17.423000000000002
 30
0.0
 11
11.95
 21
17.343
 31
0.0
  0
LINE
  5
377
330
17
100
AcDbEntity
  8
A-VIST
100
AcDbLine
 10
3.549999999999999
 20
14.578
 30
0.0
 11
3.549999999999999
 21
16.003999999999998
 31
0.0
  0
LINE
  5
378
330
17
100
AcDbEntity
  8
A-VIST
100
AcDbLine
 10
3.629999999999999
 20
16.003999999999998
 30
0.0
 11
3.629999999999999
 21
14.578
 31
0.0
  0
LINE
  5
379
330
17
100
AcDbEntity
  8
A-VIST
100
AcDbLine
 10
3.629999999999999
 20
16.003999999999998
 30
0.0
 11
3.549999999999999
 21
16.003999999999998
 31
0.0
  0
LINE
  5
37A
330
17
100
AcDbEntity
  8
A-VIST
100
AcDbLine
 10
3.549999999999999
 20
16.003999999999998
 30
0.0
 11
3.549999999999999
 21
16.084
 31
0.0
  0
LINE
  5
37B
330
17
100
AcDbEntity
  8
A-VIST
100
AcDbLine
 10
3.549999999999999
 20
16.084
 30
0.0
 11
3.629999999999999
 21
16.084
 31
0.0
  0
LINE
  5
37C
330
17
100
AcDbEntity
  8
A-VIST
100
AcDbLine
 10
3.629999999999999
 20
16.084
 30
0.0
 11
3.629999999999999
 21
16.003999999999998
 31
0.0
  0
LINE
  5
37D
330
17
100
AcDbEntity
  8
A-VIST
100
AcDbLine
 10
3.629999999999999
 20
10.85
 30
0.0
 11
3.549999999999999
 21
10.85
 31
0.0
  0
LINE
  5
37E
330
17
100
AcDbEntity
  8
A-VIST
100
AcDbLine
 10
3.549999999999999
 20
10.85
 30
0.0
 11
3.549999999999999
 21
13.378
 31
0.0
  0
LINE
  5
37F
330
17
100
AcDbEntity
  8
A-VIST
100
AcDbLine
 10
3.629999999999999
 20
13.378
 30
0.0
 11
3.629999999999999
 21
10.85
 31
0.0
  0
LINE
  5
380
330
17
100
AcDbEntity
  8
A-VIST
100
AcDbLine
 10
3.629999999999999
 20
13.378
 30
0.0
 11
3.549999999999999
 21
13.378
 31
0.0
  0
LINE
  5
381
330
17
100
AcDbEntity
  8
A-VIST
100
AcDbLine
 10
3.549999999999999
 20
13.378
 30
0.0
 11
3.549999999999999
 21
13.458
 31
0.0
  0
LINE
  5
382
330
17
100
AcDbEntity
  8
A-VIST
100
AcDbLine
 10
3.549999999999999
 20
13.458
 30
0.0
 11
3.629999999999999
 21
13.458
 31
0.0
  0
LINE
  5
383
330
17
100
AcDbEntity
  8
A-VIST
100
AcDbLine
 10
3.629999999999999
 20
13.458
 30
0.0
 11
3.629999999999999
 21
13.378
 31
0.0
  0
LINE
  5
384
330
17
100
AcDbEntity
  8
A-VIST
100
AcDbLine
 10
17.25
 20
10.85
 30
0.0
 11
17.169999999999998
 21
10.85
 31
0.0
  0
LINE
  5
385
330
17
100
AcDbEntity
  8
A-VIST
100
AcDbLine
 10
17.169999999999998
 20
10.85
 30
0.0
 11
17.169999999999998
 21
13.378
 31
0.0
  0
LINE
  5
386
330
17
100
AcDbEntity
  8
A-VIST
100
AcDbLine
 10
17.25
 20
13.378
 30
0.0
 11
17.25
 21
10.85
 31
0.0
  0
LINE
  5
387
330
17
100
AcDbEntity
  8
A-VIST
100
AcDbLine
 10
17.25
 20
13.378
 30
0.0
 11
17.169999999999998
 21
13.378
 31
0.0
  0
LINE
  5
388
330
17
100
AcDbEntity
  8
A-VIST
100
AcDbLine
 10
17.169999999999998
 20
13.378
 30
0.0
 11
17.169999999999998
 21
13.458
 31
0.0
  0
LINE
  5
389
330
17
100
AcDbEntity
  8
A-VIST
100
AcDbLine
 10
17.169999999999998
 20
13.458
 30
0.0
 11
17.25
 21
13.458
 31
0.0
  0
LINE
  5
38A
330
17
100
AcDbEntity
  8
A-VIST
100
AcDbLine
 10
17.25
 20
13.458
 30
0.0
 11
17.25
 21
13.378
 31
0.0
  0
LINE
  5
38B
330
17
100
AcDbEntity
  8
A-VIST
100
AcDbLine
 10
17.5
 20
10.98
 30
0.0
 11
17.419999999999998
 21
10.98
 31
0.0
  0
LINE
  5
38C
330
17
100
AcDbEntity
  8
A-VIST
100
AcDbLine
 10
17.419999999999998
 20
10.98
 30
0.0
 11
17.419999999999998
 21
13.546
 31
0.0
  0
LINE
  5
38D
330
17
100
AcDbEntity
  8
A-VIST
100
AcDbLine
 10
17.5
 20
13.546
 30
0.0
 11
17.5
 21
10.98
 31
0.0
  0
LINE
  5
38E
330
17
100
AcDbEntity
  8
A-TERR
100
AcDbLine
 10
2.1999999999999984
 20
10.85
 30
0.0
 11
18.599999999999998
 21
10.85
 31
0.0
  0
LINE
  5
38F
330
17
100
AcDbEntity
  8
A-NIVEL
100
AcDbLine
 10
18.4
 20
11.0
 30
0.0
 11
19.799999999999997
 21
11.0
 31
0.0
  0
LWPOLYLINE
  5
390
330
17
100
AcDbEntity
  8
A-NIVEL
100
AcDbPolyline
 90
3
 70
1
 10
18.599999999999998
 20
11.0
 10
18.799999999999997
 20
11.25
 10
18.4
 20
11.25
  0
TEXT
  5
391
330
17
100
AcDbEntity
  8
A-NIVEL
100
AcDbText
 10
18.9
 20
11.08
 30
0.0
 40
0.2
  1
NPT ±0,00
  7
ARQ
 11
18.9
 21
11.08
 31
0.0
100
AcDbText
  0
LINE
  5
392
330
17
100
AcDbEntity
  8
A-NIVEL
100
AcDbLine
 10
18.4
 20
13.85
 30
0.0
 11
19.799999999999997
 21
13.85
 31
0.0
  0
LWPOLYLINE
  5
393
330
17
100
AcDbEntity
  8
A-NIVEL
100
AcDbPolyline
 90
3
 70
1
 10
18.599999999999998
 20
13.85
 10
18.799999999999997
 20
14.1
 10
18.4
 20
14.1
  0
TEXT
  5
394
330
17
100
AcDbEntity
  8
A-NIVEL
100
AcDbText
 10
18.9
 20
13.93
 30
0.0
 40
0.2
  1
NPT +2,85
  7
ARQ
 11
18.9
 21
13.93
 31
0.0
100
AcDbText
  0
LINE
  5
395
330
17
100
AcDbEntity
  8
A-NIVEL
100
AcDbLine
 10
18.4
 20
18.1
 30
0.0
 11
19.799999999999997
 21
18.1
 31
0.0
  0
LWPOLYLINE
  5
396
330
17
100
AcDbEntity
  8
A-NIVEL
100
AcDbPolyline
 90
3
 70
1
 10
18.599999999999998
 20
18.1
 10
18.799999999999997
 20
18.35
 10
18.4
 20
18.35
  0
TEXT
  5
397
330
17
100
AcDbEntity
  8
A-NIVEL
100
AcDbText
 10
18.9
 20
18.18
 30
0.0
 40
0.2
  1
+7,10
  7
ARQ
 11
18.9
 21
18.18
 31
0.0
100
AcDbText
  0
TEXT
  5
398
330
17
100
AcDbEntity
  8
A-TEXT
100
AcDbText
 10
2.9999999999999982
 20
9.4
 30
0.0
 40
0.4
  1
ELEVACIÓN ORIENTE
  7
ARQ
 11
2.9999999999999982
 21
9.4
 31
0.0
100
AcDbText
  0
TEXT
  5
399
330
17
100
AcDbEntity
  8
A-TEXT
 62
8
100
AcDbText
 10
2.9999999999999982
 20
8.85
 30
0.0
 40
0.22000000000000003
  1
Escala 1:100
  7
ARQ
 11
2.9999999999999982
 21
8.85
 31
0.0
100
AcDbText
  0
LINE
  5
39A
330
17
100
AcDbEntity
  8
A-TERM
100
AcDbLine
 10
3.399999999999998
 20
11.6
 30
0.0
 11
17.4
 21
11.6
 31
0.0
  0
CIRCLE
  5
39B
330
17
100
AcDbEntity
  8
A-TERM
100
AcDbCircle
 10
2.1999999999999984
 20
12.6
 30
0.0
 40
0.26
  0
TEXT
  5
39C
330
17
100
AcDbEntity
  8
A-TERM
100
AcDbText
 10
2.1999999999999984
 20
12.6
 30
0.0
 40
0.24
  1
1
  7
ARQ
 72
1
 11
2.1999999999999984
 21
12.6
 31
0.0
100
AcDbText
 73
2
  0
LINE
  5
39D
330
17
100
AcDbEntity
  8
A-TERM
100
AcDbLine
 10
2.459999999999998
 20
12.6
 30
0.0
 11
3.5199999999999982
 21
12.6
 31
0.0
  0
CIRCLE
  5
39E
330
17
100
AcDbEntity
  8
A-TERM
100
AcDbCircle
 10
3.5199999999999982
 20
12.6
 30
0.0
 40
0.05
  0
CIRCLE
  5
39F
330
17
100
AcDbEntity
  8
A-TERM
100
AcDbCircle
 10
2.1999999999999984
 20
11.3
 30
0.0
 40
0.26
  0
TEXT
  5
3A0
330
17
100
AcDbEntity
  8
A-TERM
100
AcDbText
 10
2.1999999999999984
 20
11.3
 30
0.0
 40
0.24
  1
2
  7
ARQ
 72
1
 11
2.1999999999999984
 21
11.3
 31
0.0
100
AcDbText
 73
2
  0
LINE
  5
3A1
330
17
100
AcDbEntity
  8
A-TERM
100
AcDbLine
 10
2.459999999999998
 20
11.3
 30
0.0
 11
3.5199999999999982
 21
11.3
 31
0.0
  0
CIRCLE
  5
3A2
330
17
100
AcDbEntity
  8
A-TERM
100
AcDbCircle
 10
3.5199999999999982
 20
11.3
 30
0.0
 40
0.05
  0
CIRCLE
  5
3A3
330
17
100
AcDbEntity
  8
A-TERM
100
AcDbCircle
 10
11.999999999999998
 20
19.0
 30
0.0
 40
0.26
  0
TEXT
  5
3A4
330
17
100
AcDbEntity
  8
A-TERM
100
AcDbText
 10
11.999999999999998
 20
19.0
 30
0.0
 40
0.24
  1
3
  7
ARQ
 72
1
 11
11.999999999999998
 21
19.0
 31
0.0
100
AcDbText
 73
2
  0
LINE
  5
3A5
330
17
100
AcDbEntity
  8
A-TERM
100
AcDbLine
 10
11.8052608937525
 20
18.827730790627214
 30
0.0
 11
10.7
 21
17.85
 31
0.0
  0
CIRCLE
  5
3A6
330
17
100
AcDbEntity
  8
A-TERM
100
AcDbCircle
 10
10.7
 20
17.85
 30
0.0
 40
0.05
  0
LINE
  5
3A7
330
17
100
AcDbEntity
  8
A-VIST
100
AcDbLine
 10
46.4
 20
11.0
 30
0.0
 11
46.4
 21
13.6
 31
0.0
  0
LINE
  5
3A8
330
17
100
AcDbEntity
  8
A-VIST
100
AcDbLine
 10
46.4
 20
11.0
 30
0.0
 11
46.25
 21
11.0
 31
0.0
  0
LINE
  5
3A9
330
17
100
AcDbEntity
  8
A-VIST
100
AcDbLine
 10
46.4
 20
13.6
 30
0.0
 11
46.25
 21
13.6
 31
0.0
  0
LINE
  5
3AA
330
17
100
AcDbEntity
  8
A-VIST
100
AcDbLine
 10
32.4
 20
11.0
 30
0.0
 11
32.4
 21
13.6
 31
0.0
  0
LINE
  5
3AB
330
17
100
AcDbEntity
  8
A-VIST
100
AcDbLine
 10
32.4
 20
11.0
 30
0.0
 11
32.55
 21
11.0
 31
0.0
  0
LINE
  5
3AC
330
17
100
AcDbEntity
  8
A-VIST
100
AcDbLine
 10
32.4
 20
13.6
 30
0.0
 11
32.55
 21
13.6
 31
0.0
  0
LINE
  5
3AD
330
17
100
AcDbEntity
  8
A-VIST
100
AcDbLine
 10
46.17
 20
11.0
 30
0.0
 11
32.629999999999995
 21
11.0
 31
0.0
  0
LINE
  5
3AE
330
17
100
AcDbEntity
  8
A-VIST
100
AcDbLine
 10
46.17
 20
13.6
 30
0.0
 11
32.629999999999995
 21
13.6
 31
0.0
  0
LINE
  5
3AF
330
17
100
AcDbEntity
  8
A-VIST
100
AcDbLine
 10
43.2
 20
11.95
 30
0.0
 11
44.8
 21
11.95
 31
0.0
  0
LINE
  5
3B0
330
17
100
AcDbEntity
  8
A-VIST
100
AcDbLine
 10
43.2
 20
13.3
 30
0.0
 11
43.2
 21
11.95
 31
0.0
  0
LINE
  5
3B1
330
17
100
AcDbEntity
  8
A-VIST
100
AcDbLine
 10
44.8
 20
11.95
 30
0.0
 11
44.8
 21
13.3
 31
0.0
  0
LINE
  5
3B2
330
17
100
AcDbEntity
  8
A-VIST
100
AcDbLine
 10
44.8
 20
13.3
 30
0.0
 11
43.2
 21
13.3
 31
0.0
  0
LINE
  5
3B3
330
17
100
AcDbEntity
  8
A-VIST
100
AcDbLine
 10
33.199999999999996
 20
12.4
 30
0.0
 11
34.1
 21
12.4
 31
0.0
  0
LINE
  5
3B4
330
17
100
AcDbEntity
  8
A-VIST
100
AcDbLine
 10
34.1
 20
12.4
 30
0.0
 11
34.1
 21
13.2
 31
0.0
  0
LINE
  5
3B5
330
17
100
AcDbEntity
  8
A-VIST
100
AcDbLine
 10
34.1
 20
13.2
 30
0.0
 11
33.199999999999996
 21
13.2
 31
0.0
  0
LINE
  5
3B6
330
17
100
AcDbEntity
  8
A-VIST
100
AcDbLine
 10
33.199999999999996
 20
13.2
 30
0.0
 11
33.199999999999996
 21
12.4
 31
0.0
  0
LINE
  5
3B7
330
17
100
AcDbEntity
  8
A-VIST
100
AcDbLine
 10
39.6
 20
11.95
 30
0.0
 11
41.4
 21
11.95
 31
0.0
  0
LINE
  5
3B8
330
17
100
AcDbEntity
  8
A-VIST
100
AcDbLine
 10
39.6
 20
13.2
 30
0.0
 11
39.6
 21
11.95
 31
0.0
  0
LINE
  5
3B9
330
17
100
AcDbEntity
  8
A-VIST
100
AcDbLine
 10
41.4
 20
11.95
 30
0.0
 11
41.4
 21
13.2
 31
0.0
  0
LINE
  5
3BA
330
17
100
AcDbEntity
  8
A-VIST
100
AcDbLine
 10
41.4
 20
13.2
 30
0.0
 11
39.6
 21
13.2
 31
0.0
  0
LINE
  5
3BB
330
17
100
AcDbEntity
  8
A-VIST
100
AcDbLine
 10
36.8
 20
11.95
 30
0.0
 11
38.6
 21
11.95
 31
0.0
  0
LINE
  5
3BC
330
17
100
AcDbEntity
  8
A-VIST
100
AcDbLine
 10
36.8
 20
13.2
 30
0.0
 11
36.8
 21
11.95
 31
0.0
  0
LINE
  5
3BD
330
17
100
AcDbEntity
  8
A-VIST
100
AcDbLine
 10
38.6
 20
11.95
 30
0.0
 11
38.6
 21
13.2
 31
0.0
  0
LINE
  5
3BE
330
17
100
AcDbEntity
  8
A-VIST
100
AcDbLine
 10
38.6
 20
13.2
 30
0.0
 11
36.8
 21
13.2
 31
0.0
  0
LINE
  5
3BF
330
17
100
AcDbEntity
  8
A-VIST
100
AcDbLine
 10
46.4
 20
13.85
 30
0.0
 11
46.4
 21
16.13
 31
0.0
  0
LINE
  5
3C0
330
17
100
AcDbEntity
  8
A-VIST
100
AcDbLine
 10
46.2
 20
16.084
 30
0.0
 11
46.2
 21
16.13
 31
0.0
  0
LINE
  5
3C1
330
17
100
AcDbEntity
  8
A-VIST
100
AcDbLine
 10
46.4
 20
13.85
 30
0.0
 11
46.25
 21
13.85
 31
0.0
  0
LINE
  5
3C2
330
17
100
AcDbEntity
  8
A-VIST
100
AcDbLine
 10
32.4
 20
13.85
 30
0.0
 11
32.4
 21
16.13
 31
0.0
  0
LINE
  5
3C3
330
17
100
AcDbEntity
  8
A-VIST
100
AcDbLine
 10
32.6
 20
16.084
 30
0.0
 11
32.6
 21
16.13
 31
0.0
  0
LINE
  5
3C4
330
17
100
AcDbEntity
  8
A-VIST
100
AcDbLine
 10
32.4
 20
13.85
 30
0.0
 11
32.55
 21
13.85
 31
0.0
  0
LINE
  5
3C5
330
17
100
AcDbEntity
  8
A-VIST
100
AcDbLine
 10
46.2
 20
16.084
 30
0.0
 11
46.2
 21
16.13
 31
0.0
  0
LINE
  5
3C6
330
17
100
AcDbEntity
  8
A-VIST
100
AcDbLine
 10
46.17
 20
13.85
 30
0.0
 11
32.629999999999995
 21
13.85
 31
0.0
  0
LINE
  5
3C7
330
17
100
AcDbEntity
  8
A-VIST
100
AcDbLine
 10
32.6
 20
16.084
 30
0.0
 11
32.6
 21
16.13
 31
0.0
  0
LINE
  5
3C8
330
17
100
AcDbEntity
  8
A-VIST
100
AcDbLine
 10
33.1
 20
15.25
 30
0.0
 11
33.9
 21
15.25
 31
0.0
  0
LINE
  5
3C9
330
17
100
AcDbEntity
  8
A-VIST
100
AcDbLine
 10
33.9
 20
15.25
 30
0.0
 11
33.9
 21
16.05
 31
0.0
  0
LINE
  5
3CA
330
17
100
AcDbEntity
  8
A-VIST
100
AcDbLine
 10
33.9
 20
16.05
 30
0.0
 11
33.1
 21
16.05
 31
0.0
  0
LINE
  5
3CB
330
17
100
AcDbEntity
  8
A-VIST
100
AcDbLine
 10
33.1
 20
16.05
 30
0.0
 11
33.1
 21
15.25
 31
0.0
  0
LINE
  5
3CC
330
17
100
AcDbEntity
  8
A-VIST
100
AcDbLine
 10
44.95
 20
14.8
 30
0.0
 11
46.05
 21
14.8
 31
0.0
  0
LINE
  5
3CD
330
17
100
AcDbEntity
  8
A-VIST
100
AcDbLine
 10
44.95
 20
16.05
 30
0.0
 11
44.95
 21
14.8
 31
0.0
  0
LINE
  5
3CE
330
17
100
AcDbEntity
  8
A-VIST
100
AcDbLine
 10
46.05
 20
14.8
 30
0.0
 11
46.05
 21
16.05
 31
0.0
  0
LINE
  5
3CF
330
17
100
AcDbEntity
  8
A-VIST
100
AcDbLine
 10
46.05
 20
16.05
 30
0.0
 11
44.95
 21
16.05
 31
0.0
  0
LINE
  5
3D0
330
17
100
AcDbEntity
  8
A-VIST
100
AcDbLine
 10
40.1
 20
14.8
 30
0.0
 11
41.7
 21
14.8
 31
0.0
  0
LINE
  5
3D1
330
17
100
AcDbEntity
  8
A-VIST
100
AcDbLine
 10
40.1
 20
16.05
 30
0.0
 11
40.1
 21
14.8
 31
0.0
  0
LINE
  5
3D2
330
17
100
AcDbEntity
  8
A-VIST
100
AcDbLine
 10
41.7
 20
14.8
 30
0.0
 11
41.7
 21
16.05
 31
0.0
  0
LINE
  5
3D3
330
17
100
AcDbEntity
  8
A-VIST
100
AcDbLine
 10
41.7
 20
16.05
 30
0.0
 11
40.1
 21
16.05
 31
0.0
  0
LINE
  5
3D4
330
17
100
AcDbEntity
  8
A-VIST
100
AcDbLine
 10
37.0
 20
14.8
 30
0.0
 11
39.0
 21
14.8
 31
0.0
  0
LINE
  5
3D5
330
17
100
AcDbEntity
  8
A-VIST
100
AcDbLine
 10
37.0
 20
16.05
 30
0.0
 11
37.0
 21
14.8
 31
0.0
  0
LINE
  5
3D6
330
17
100
AcDbEntity
  8
A-VIST
100
AcDbLine
 10
39.0
 20
14.8
 30
0.0
 11
39.0
 21
16.05
 31
0.0
  0
LINE
  5
3D7
330
17
100
AcDbEntity
  8
A-VIST
100
AcDbLine
 10
39.0
 20
16.05
 30
0.0
 11
37.0
 21
16.05
 31
0.0
  0
LINE
  5
3D8
330
17
100
AcDbEntity
  8
A-VIST
100
AcDbLine
 10
43.2
 20
11.95
 30
0.0
 11
44.8
 21
11.95
 31
0.0
  0
LINE
  5
3D9
330
17
100
AcDbEntity
  8
A-VIST
100
AcDbLine
 10
43.2
 20
13.3
 30
0.0
 11
43.2
 21
11.95
 31
0.0
  0
LINE
  5
3DA
330
17
100
AcDbEntity
  8
A-VIST
100
AcDbLine
 10
44.8
 20
11.95
 30
0.0
 11
44.8
 21
13.3
 31
0.0
  0
LINE
  5
3DB
330
17
100
AcDbEntity
  8
A-VIST
100
AcDbLine
 10
44.8
 20
13.3
 30
0.0
 11
43.2
 21
13.3
 31
0.0
  0
LINE
  5
3DC
330
17
100
AcDbEntity
  8
A-VIST
100
AcDbLine
 10
43.25
 20
12.0
 30
0.0
 11
44.75
 21
12.0
 31
0.0
  0
LINE
  5
3DD
330
17
100
AcDbEntity
  8
A-VIST
100
AcDbLine
 10
44.75
 20
12.0
 30
0.0
 11
44.75
 21
13.25
 31
0.0
  0
LINE
  5
3DE
330
17
100
AcDbEntity
  8
A-VIST
100
AcDbLine
 10
44.75
 20
13.25
 30
0.0
 11
43.25
 21
13.25
 31
0.0
  0
LINE
  5
3DF
330
17
100
AcDbEntity
  8
A-VIST
100
AcDbLine
 10
43.25
 20
13.25
 30
0.0
 11
43.25
 21
12.0
 31
0.0
  0
LINE
  5
3E0
330
17
100
AcDbEntity
  8
A-VIST
100
AcDbLine
 10
43.25
 20
12.0
 30
0.0
 11
44.75
 21
12.0
 31
0.0
  0
LINE
  5
3E1
330
17
100
AcDbEntity
  8
A-VIST
100
AcDbLine
 10
44.75
 20
12.0
 30
0.0
 11
44.75
 21
13.25
 31
0.0
  0
LINE
  5
3E2
330
17
100
AcDbEntity
  8
A-VIST
100
AcDbLine
 10
44.75
 20
13.25
 30
0.0
 11
43.25
 21
13.25
 31
0.0
  0
LINE
  5
3E3
330
17
100
AcDbEntity
  8
A-VIST
100
AcDbLine
 10
43.25
 20
13.25
 30
0.0
 11
43.25
 21
12.0
 31
0.0
  0
LINE
  5
3E4
330
17
100
AcDbEntity
  8
A-VIST
100
AcDbLine
 10
39.6
 20
11.95
 30
0.0
 11
41.4
 21
11.95
 31
0.0
  0
LINE
  5
3E5
330
17
100
AcDbEntity
  8
A-VIST
100
AcDbLine
 10
39.6
 20
13.2
 30
0.0
 11
39.6
 21
11.95
 31
0.0
  0
LINE
  5
3E6
330
17
100
AcDbEntity
  8
A-VIST
100
AcDbLine
 10
41.4
 20
11.95
 30
0.0
 11
41.4
 21
13.2
 31
0.0
  0
LINE
  5
3E7
330
17
100
AcDbEntity
  8
A-VIST
100
AcDbLine
 10
41.4
 20
13.2
 30
0.0
 11
39.6
 21
13.2
 31
0.0
  0
LINE
  5
3E8
330
17
100
AcDbEntity
  8
A-VIST
100
AcDbLine
 10
39.65
 20
12.0
 30
0.0
 11
41.349999999999994
 21
12.0
 31
0.0
  0
LINE
  5
3E9
330
17
100
AcDbEntity
  8
A-VIST
100
AcDbLine
 10
41.349999999999994
 20
12.0
 30
0.0
 11
41.349999999999994
 21
13.15
 31
0.0
  0
LINE
  5
3EA
330
17
100
AcDbEntity
  8
A-VIST
100
AcDbLine
 10
41.349999999999994
 20
13.15
 30
0.0
 11
39.65
 21
13.15
 31
0.0
  0
LINE
  5
3EB
330
17
100
AcDbEntity
  8
A-VIST
100
AcDbLine
 10
39.65
 20
13.15
 30
0.0
 11
39.65
 21
12.0
 31
0.0
  0
LINE
  5
3EC
330
17
100
AcDbEntity
  8
A-VIST
100
AcDbLine
 10
39.65
 20
12.0
 30
0.0
 11
41.349999999999994
 21
12.0
 31
0.0
  0
LINE
  5
3ED
330
17
100
AcDbEntity
  8
A-VIST
100
AcDbLine
 10
41.349999999999994
 20
12.0
 30
0.0
 11
41.349999999999994
 21
13.15
 31
0.0
  0
LINE
  5
3EE
330
17
100
AcDbEntity
  8
A-VIST
100
AcDbLine
 10
41.349999999999994
 20
13.15
 30
0.0
 11
39.65
 21
13.15
 31
0.0
  0
LINE
  5
3EF
330
17
100
AcDbEntity
  8
A-VIST
100
AcDbLine
 10
39.65
 20
13.15
 30
0.0
 11
39.65
 21
12.0
 31
0.0
  0
LINE
  5
3F0
330
17
100
AcDbEntity
  8
A-VIST
100
AcDbLine
 10
36.8
 20
11.95
 30
0.0
 11
38.6
 21
11.95
 31
0.0
  0
LINE
  5
3F1
330
17
100
AcDbEntity
  8
A-VIST
100
AcDbLine
 10
36.8
 20
13.2
 30
0.0
 11
36.8
 21
11.95
 31
0.0
  0
LINE
  5
3F2
330
17
100
AcDbEntity
  8
A-VIST
100
AcDbLine
 10
38.6
 20
11.95
 30
0.0
 11
38.6
 21
13.2
 31
0.0
  0
LINE
  5
3F3
330
17
100
AcDbEntity
  8
A-VIST
100
AcDbLine
 10
38.6
 20
13.2
 30
0.0
 11
36.8
 21
13.2
 31
0.0
  0
LINE
  5
3F4
330
17
100
AcDbEntity
  8
A-VIST
100
AcDbLine
 10
36.85
 20
12.0
 30
0.0
 11
38.55
 21
12.0
 31
0.0
  0
LINE
  5
3F5
330
17
100
AcDbEntity
  8
A-VIST
100
AcDbLine
 10
38.55
 20
12.0
 30
0.0
 11
38.55
 21
13.15
 31
0.0
  0
LINE
  5
3F6
330
17
100
AcDbEntity
  8
A-VIST
100
AcDbLine
 10
38.55
 20
13.15
 30
0.0
 11
36.85
 21
13.15
 31
0.0
  0
LINE
  5
3F7
330
17
100
AcDbEntity
  8
A-VIST
100
AcDbLine
 10
36.85
 20
13.15
 30
0.0
 11
36.85
 21
12.0
 31
0.0
  0
LINE
  5
3F8
330
17
100
AcDbEntity
  8
A-VIST
100
AcDbLine
 10
36.85
 20
12.0
 30
0.0
 11
38.55
 21
12.0
 31
0.0
  0
LINE
  5
3F9
330
17
100
AcDbEntity
  8
A-VIST
100
AcDbLine
 10
38.55
 20
12.0
 30
0.0
 11
38.55
 21
13.15
 31
0.0
  0
LINE
  5
3FA
330
17
100
AcDbEntity
  8
A-VIST
100
AcDbLine
 10
38.55
 20
13.15
 30
0.0
 11
36.85
 21
13.15
 31
0.0
  0
LINE
  5
3FB
330
17
100
AcDbEntity
  8
A-VIST
100
AcDbLine
 10
36.85
 20
13.15
 30
0.0
 11
36.85
 21
12.0
 31
0.0
  0
LINE
  5
3FC
330
17
100
AcDbEntity
  8
A-VIST
100
AcDbLine
 10
33.199999999999996
 20
12.4
 30
0.0
 11
34.1
 21
12.4
 31
0.0
  0
LINE
  5
3FD
330
17
100
AcDbEntity
  8
A-VIST
100
AcDbLine
 10
33.199999999999996
 20
13.2
 30
0.0
 11
33.199999999999996
 21
12.4
 31
0.0
  0
LINE
  5
3FE
330
17
100
AcDbEntity
  8
A-VIST
100
AcDbLine
 10
34.1
 20
12.4
 30
0.0
 11
34.1
 21
13.2
 31
0.0
  0
LINE
  5
3FF
330
17
100
AcDbEntity
  8
A-VIST
100
AcDbLine
 10
34.1
 20
13.2
 30
0.0
 11
33.199999999999996
 21
13.2
 31
0.0
  0
LINE
  5
400
330
17
100
AcDbEntity
  8
A-VIST
100
AcDbLine
 10
33.25
 20
12.45
 30
0.0
 11
34.05
 21
12.45
 31
0.0
  0
LINE
  5
401
330
17
100
AcDbEntity
  8
A-VIST
100
AcDbLine
 10
34.05
 20
12.45
 30
0.0
 11
34.05
 21
13.15
 31
0.0
  0
LINE
  5
402
330
17
100
AcDbEntity
  8
A-VIST
100
AcDbLine
 10
34.05
 20
13.15
 30
0.0
 11
33.25
 21
13.15
 31
0.0
  0
LINE
  5
403
330
17
100
AcDbEntity
  8
A-VIST
100
AcDbLine
 10
33.25
 20
13.15
 30
0.0
 11
33.25
 21
12.45
 31
0.0
  0
LINE
  5
404
330
17
100
AcDbEntity
  8
A-VIST
100
AcDbLine
 10
33.25
 20
12.45
 30
0.0
 11
34.05
 21
12.45
 31
0.0
  0
LINE
  5
405
330
17
100
AcDbEntity
  8
A-VIST
100
AcDbLine
 10
34.05
 20
12.45
 30
0.0
 11
34.05
 21
13.15
 31
0.0
  0
LINE
  5
406
330
17
100
AcDbEntity
  8
A-VIST
100
AcDbLine
 10
34.05
 20
13.15
 30
0.0
 11
33.25
 21
13.15
 31
0.0
  0
LINE
  5
407
330
17
100
AcDbEntity
  8
A-VIST
100
AcDbLine
 10
33.25
 20
13.15
 30
0.0
 11
33.25
 21
12.45
 31
0.0
  0
LINE
  5
408
330
17
100
AcDbEntity
  8
A-VIST
100
AcDbLine
 10
44.95
 20
14.8
 30
0.0
 11
46.05
 21
14.8
 31
0.0
  0
LINE
  5
409
330
17
100
AcDbEntity
  8
A-VIST
100
AcDbLine
 10
44.95
 20
16.05
 30
0.0
 11
44.95
 21
14.8
 31
0.0
  0
LINE
  5
40A
330
17
100
AcDbEntity
  8
A-VIST
100
AcDbLine
 10
46.05
 20
14.8
 30
0.0
 11
46.05
 21
16.05
 31
0.0
  0
LINE
  5
40B
330
17
100
AcDbEntity
  8
A-VIST
100
AcDbLine
 10
46.05
 20
16.05
 30
0.0
 11
44.95
 21
16.05
 31
0.0
  0
LINE
  5
40C
330
17
100
AcDbEntity
  8
A-VIST
100
AcDbLine
 10
45.0
 20
14.85
 30
0.0
 11
46.0
 21
14.85
 31
0.0
  0
LINE
  5
40D
330
17
100
AcDbEntity
  8
A-VIST
100
AcDbLine
 10
46.0
 20
14.85
 30
0.0
 11
46.0
 21
16.0
 31
0.0
  0
LINE
  5
40E
330
17
100
AcDbEntity
  8
A-VIST
100
AcDbLine
 10
46.0
 20
16.0
 30
0.0
 11
45.0
 21
16.0
 31
0.0
  0
LINE
  5
40F
330
17
100
AcDbEntity
  8
A-VIST
100
AcDbLine
 10
45.0
 20
16.0
 30
0.0
 11
45.0
 21
14.85
 31
0.0
  0
LINE
  5
410
330
17
100
AcDbEntity
  8
A-VIST
100
AcDbLine
 10
45.0
 20
14.85
 30
0.0
 11
46.0
 21
14.85
 31
0.0
  0
LINE
  5
411
330
17
100
AcDbEntity
  8
A-VIST
100
AcDbLine
 10
46.0
 20
14.85
 30
0.0
 11
46.0
 21
16.0
 31
0.0
  0
LINE
  5
412
330
17
100
AcDbEntity
  8
A-VIST
100
AcDbLine
 10
46.0
 20
16.0
 30
0.0
 11
45.0
 21
16.0
 31
0.0
  0
LINE
  5
413
330
17
100
AcDbEntity
  8
A-VIST
100
AcDbLine
 10
45.0
 20
16.0
 30
0.0
 11
45.0
 21
14.85
 31
0.0
  0
LINE
  5
414
330
17
100
AcDbEntity
  8
A-VIST
100
AcDbLine
 10
40.1
 20
14.8
 30
0.0
 11
41.7
 21
14.8
 31
0.0
  0
LINE
  5
415
330
17
100
AcDbEntity
  8
A-VIST
100
AcDbLine
 10
40.1
 20
16.05
 30
0.0
 11
40.1
 21
14.8
 31
0.0
  0
LINE
  5
416
330
17
100
AcDbEntity
  8
A-VIST
100
AcDbLine
 10
41.7
 20
14.8
 30
0.0
 11
41.7
 21
16.05
 31
0.0
  0
LINE
  5
417
330
17
100
AcDbEntity
  8
A-VIST
100
AcDbLine
 10
41.7
 20
16.05
 30
0.0
 11
40.1
 21
16.05
 31
0.0
  0
LINE
  5
418
330
17
100
AcDbEntity
  8
A-VIST
100
AcDbLine
 10
40.15
 20
14.85
 30
0.0
 11
41.65
 21
14.85
 31
0.0
  0
LINE
  5
419
330
17
100
AcDbEntity
  8
A-VIST
100
AcDbLine
 10
41.65
 20
14.85
 30
0.0
 11
41.65
 21
16.0
 31
0.0
  0
LINE
  5
41A
330
17
100
AcDbEntity
  8
A-VIST
100
AcDbLine
 10
41.65
 20
16.0
 30
0.0
 11
40.15
 21
16.0
 31
0.0
  0
LINE
  5
41B
330
17
100
AcDbEntity
  8
A-VIST
100
AcDbLine
 10
40.15
 20
16.0
 30
0.0
 11
40.15
 21
14.85
 31
0.0
  0
LINE
  5
41C
330
17
100
AcDbEntity
  8
A-VIST
100
AcDbLine
 10
40.15
 20
14.85
 30
0.0
 11
41.65
 21
14.85
 31
0.0
  0
LINE
  5
41D
330
17
100
AcDbEntity
  8
A-VIST
100
AcDbLine
 10
41.65
 20
14.85
 30
0.0
 11
41.65
 21
16.0
 31
0.0
  0
LINE
  5
41E
330
17
100
AcDbEntity
  8
A-VIST
100
AcDbLine
 10
41.65
 20
16.0
 30
0.0
 11
40.15
 21
16.0
 31
0.0
  0
LINE
  5
41F
330
17
100
AcDbEntity
  8
A-VIST
100
AcDbLine
 10
40.15
 20
16.0
 30
0.0
 11
40.15
 21
14.85
 31
0.0
  0
LINE
  5
420
330
17
100
AcDbEntity
  8
A-VIST
100
AcDbLine
 10
37.0
 20
14.8
 30
0.0
 11
39.0
 21
14.8
 31
0.0
  0
LINE
  5
421
330
17
100
AcDbEntity
  8
A-VIST
100
AcDbLine
 10
37.0
 20
16.05
 30
0.0
 11
37.0
 21
14.8
 31
0.0
  0
LINE
  5
422
330
17
100
AcDbEntity
  8
A-VIST
100
AcDbLine
 10
39.0
 20
14.8
 30
0.0
 11
39.0
 21
16.05
 31
0.0
  0
LINE
  5
423
330
17
100
AcDbEntity
  8
A-VIST
100
AcDbLine
 10
39.0
 20
16.05
 30
0.0
 11
37.0
 21
16.05
 31
0.0
  0
LINE
  5
424
330
17
100
AcDbEntity
  8
A-VIST
100
AcDbLine
 10
37.05
 20
14.85
 30
0.0
 11
38.949999999999996
 21
14.85
 31
0.0
  0
LINE
  5
425
330
17
100
AcDbEntity
  8
A-VIST
100
AcDbLine
 10
38.949999999999996
 20
14.85
 30
0.0
 11
38.949999999999996
 21
16.0
 31
0.0
  0
LINE
  5
426
330
17
100
AcDbEntity
  8
A-VIST
100
AcDbLine
 10
38.949999999999996
 20
16.0
 30
0.0
 11
37.05
 21
16.0
 31
0.0
  0
LINE
  5
427
330
17
100
AcDbEntity
  8
A-VIST
100
AcDbLine
 10
37.05
 20
16.0
 30
0.0
 11
37.05
 21
14.85
 31
0.0
  0
LINE
  5
428
330
17
100
AcDbEntity
  8
A-VIST
100
AcDbLine
 10
37.05
 20
14.85
 30
0.0
 11
38.949999999999996
 21
14.85
 31
0.0
  0
LINE
  5
429
330
17
100
AcDbEntity
  8
A-VIST
100
AcDbLine
 10
38.949999999999996
 20
14.85
 30
0.0
 11
38.949999999999996
 21
16.0
 31
0.0
  0
LINE
  5
42A
330
17
100
AcDbEntity
  8
A-VIST
100
AcDbLine
 10
38.949999999999996
 20
16.0
 30
0.0
 11
37.05
 21
16.0
 31
0.0
  0
LINE
  5
42B
330
17
100
AcDbEntity
  8
A-VIST
100
AcDbLine
 10
37.05
 20
16.0
 30
0.0
 11
37.05
 21
14.85
 31
0.0
  0
LINE
  5
42C
330
17
100
AcDbEntity
  8
A-VIST
100
AcDbLine
 10
33.1
 20
15.25
 30
0.0
 11
33.9
 21
15.25
 31
0.0
  0
LINE
  5
42D
330
17
100
AcDbEntity
  8
A-VIST
100
AcDbLine
 10
33.1
 20
16.05
 30
0.0
 11
33.1
 21
15.25
 31
0.0
  0
LINE
  5
42E
330
17
100
AcDbEntity
  8
A-VIST
100
AcDbLine
 10
33.9
 20
15.25
 30
0.0
 11
33.9
 21
16.05
 31
0.0
  0
LINE
  5
42F
330
17
100
AcDbEntity
  8
A-VIST
100
AcDbLine
 10
33.9
 20
16.05
 30
0.0
 11
33.1
 21
16.05
 31
0.0
  0
LINE
  5
430
330
17
100
AcDbEntity
  8
A-VIST
100
AcDbLine
 10
33.15
 20
15.3
 30
0.0
 11
33.85
 21
15.3
 31
0.0
  0
LINE
  5
431
330
17
100
AcDbEntity
  8
A-VIST
100
AcDbLine
 10
33.85
 20
15.3
 30
0.0
 11
33.85
 21
16.0
 31
0.0
  0
LINE
  5
432
330
17
100
AcDbEntity
  8
A-VIST
100
AcDbLine
 10
33.85
 20
16.0
 30
0.0
 11
33.15
 21
16.0
 31
0.0
  0
LINE
  5
433
330
17
100
AcDbEntity
  8
A-VIST
100
AcDbLine
 10
33.15
 20
16.0
 30
0.0
 11
33.15
 21
15.3
 31
0.0
  0
LINE
  5
434
330
17
100
AcDbEntity
  8
A-VIST
100
AcDbLine
 10
33.15
 20
15.3
 30
0.0
 11
33.85
 21
15.3
 31
0.0
  0
LINE
  5
435
330
17
100
AcDbEntity
  8
A-VIST
100
AcDbLine
 10
33.85
 20
15.3
 30
0.0
 11
33.85
 21
16.0
 31
0.0
  0
LINE
  5
436
330
17
100
AcDbEntity
  8
A-VIST
100
AcDbLine
 10
33.85
 20
16.0
 30
0.0
 11
33.15
 21
16.0
 31
0.0
  0
LINE
  5
437
330
17
100
AcDbEntity
  8
A-VIST
100
AcDbLine
 10
33.15
 20
16.0
 30
0.0
 11
33.15
 21
15.3
 31
0.0
  0
LINE
  5
438
330
17
100
AcDbEntity
  8
A-VIST
100
AcDbLine
 10
46.4
 20
10.65
 30
0.0
 11
46.4
 21
11.0
 31
0.0
  0
LINE
  5
439
330
17
100
AcDbEntity
  8
A-VIST
100
AcDbLine
 10
46.4
 20
10.65
 30
0.0
 11
32.4
 21
10.65
 31
0.0
  0
LINE
  5
43A
330
17
100
AcDbEntity
  8
A-VIST
100
AcDbLine
 10
32.4
 20
10.65
 30
0.0
 11
32.4
 21
11.0
 31
0.0
  0
LINE
  5
43B
330
17
100
AcDbEntity
  8
A-VIST
100
AcDbLine
 10
46.4
 20
11.0
 30
0.0
 11
46.25
 21
11.0
 31
0.0
  0
LINE
  5
43C
330
17
100
AcDbEntity
  8
A-VIST
100
AcDbLine
 10
46.17
 20
11.0
 30
0.0
 11
32.629999999999995
 21
11.0
 31
0.0
  0
LINE
  5
43D
330
17
100
AcDbEntity
  8
A-VIST
100
AcDbLine
 10
32.55
 20
11.0
 30
0.0
 11
32.4
 21
11.0
 31
0.0
  0
LINE
  5
43E
330
17
100
AcDbEntity
  8
A-VIST
100
AcDbLine
 10
32.4
 20
13.6
 30
0.0
 11
32.4
 21
13.85
 31
0.0
  0
LINE
  5
43F
330
17
100
AcDbEntity
  8
A-VIST
100
AcDbLine
 10
46.4
 20
13.6
 30
0.0
 11
46.25
 21
13.6
 31
0.0
  0
LINE
  5
440
330
17
100
AcDbEntity
  8
A-VIST
100
AcDbLine
 10
46.17
 20
13.6
 30
0.0
 11
32.629999999999995
 21
13.6
 31
0.0
  0
LINE
  5
441
330
17
100
AcDbEntity
  8
A-VIST
100
AcDbLine
 10
32.55
 20
13.6
 30
0.0
 11
32.4
 21
13.6
 31
0.0
  0
LINE
  5
442
330
17
100
AcDbEntity
  8
A-VIST
100
AcDbLine
 10
46.4
 20
13.6
 30
0.0
 11
46.4
 21
13.85
 31
0.0
  0
LINE
  5
443
330
17
100
AcDbEntity
  8
A-VIST
100
AcDbLine
 10
46.4
 20
13.85
 30
0.0
 11
46.25
 21
13.85
 31
0.0
  0
LINE
  5
444
330
17
100
AcDbEntity
  8
A-VIST
100
AcDbLine
 10
46.17
 20
13.85
 30
0.0
 11
32.629999999999995
 21
13.85
 31
0.0
  0
LINE
  5
445
330
17
100
AcDbEntity
  8
A-VIST
100
AcDbLine
 10
32.55
 20
13.85
 30
0.0
 11
32.4
 21
13.85
 31
0.0
  0
LINE
  5
446
330
17
100
AcDbEntity
  8
A-VIST
100
AcDbLine
 10
46.8
 20
16.13
 30
0.0
 11
32.0
 21
16.13
 31
0.0
  0
LINE
  5
447
330
17
100
AcDbEntity
  8
A-VIST
100
AcDbLine
 10
46.8
 20
16.35
 30
0.0
 11
46.8
 21
18.1
 31
0.0
  0
LINE
  5
448
330
17
100
AcDbEntity
  8
A-VIST
100
AcDbLine
 10
46.8
 20
16.35
 30
0.0
 11
46.8
 21
16.334
 31
0.0
  0
LINE
  5
449
330
17
100
AcDbEntity
  8
A-VIST
100
AcDbLine
 10
46.8
 20
16.234
 30
0.0
 11
46.8
 21
16.13
 31
0.0
  0
LINE
  5
44A
330
17
100
AcDbEntity
  8
A-VIST
100
AcDbLine
 10
46.8
 20
18.1
 30
0.0
 11
32.0
 21
18.1
 31
0.0
  0
LINE
  5
44B
330
17
100
AcDbEntity
  8
A-VIST
100
AcDbLine
 10
32.0
 20
18.1
 30
0.0
 11
32.0
 21
16.35
 31
0.0
  0
LINE
  5
44C
330
17
100
AcDbEntity
  8
A-VIST
100
AcDbLine
 10
32.0
 20
16.35
 30
0.0
 11
46.8
 21
16.35
 31
0.0
  0
LINE
  5
44D
330
17
100
AcDbEntity
  8
A-VIST
100
AcDbLine
 10
32.0
 20
16.13
 30
0.0
 11
32.0
 21
16.234
 31
0.0
  0
LINE
  5
44E
330
17
100
AcDbEntity
  8
A-VIST
100
AcDbLine
 10
32.0
 20
16.334
 30
0.0
 11
32.0
 21
16.35
 31
0.0
  0
LINE
  5
44F
330
17
100
AcDbEntity
  8
A-VIST
100
AcDbLine
 10
46.8
 20
14.42
 30
0.0
 11
46.4
 21
14.42
 31
0.0
  0
LINE
  5
450
330
17
100
AcDbEntity
  8
A-VIST
100
AcDbLine
 10
46.8
 20
14.6
 30
0.0
 11
46.8
 21
14.42
 31
0.0
  0
LINE
  5
451
330
17
100
AcDbEntity
  8
A-VIST
100
AcDbLine
 10
46.4
 20
14.6
 30
0.0
 11
46.8
 21
14.6
 31
0.0
  0
LINE
  5
452
330
17
100
AcDbEntity
  8
A-VIST
100
AcDbLine
 10
32.4
 20
14.42
 30
0.0
 11
32.0
 21
14.42
 31
0.0
  0
LINE
  5
453
330
17
100
AcDbEntity
  8
A-VIST
100
AcDbLine
 10
32.0
 20
14.42
 30
0.0
 11
32.0
 21
13.546
 31
0.0
  0
LINE
  5
454
330
17
100
AcDbEntity
  8
A-VIST
100
AcDbLine
 10
32.0
 20
13.546
 30
0.0
 11
32.3
 21
13.546
 31
0.0
  0
LINE
  5
455
330
17
100
AcDbEntity
  8
A-VIST
100
AcDbLine
 10
32.379999999999995
 20
13.546
 30
0.0
 11
32.4
 21
13.546
 31
0.0
  0
LINE
  5
456
330
17
100
AcDbEntity
  8
A-VIST
100
AcDbLine
 10
46.4
 20
13.546
 30
0.0
 11
46.8
 21
13.546
 31
0.0
  0
LINE
  5
457
330
17
100
AcDbEntity
  8
A-VIST
100
AcDbLine
 10
46.8
 20
13.546
 30
0.0
 11
46.8
 21
14.42
 31
0.0
  0
LINE
  5
458
330
17
100
AcDbEntity
  8
A-VIST
100
AcDbLine
 10
32.0
 20
14.6
 30
0.0
 11
32.4
 21
14.6
 31
0.0
  0
LINE
  5
459
330
17
100
AcDbEntity
  8
A-VIST
100
AcDbLine
 10
32.0
 20
14.42
 30
0.0
 11
32.0
 21
14.6
 31
0.0
  0
LINE
  5
45A
330
17
100
AcDbEntity
  8
A-VIST
100
AcDbLine
 10
46.8
 20
16.234
 30
0.0
 11
32.0
 21
16.234
 31
0.0
  0
LINE
  5
45B
330
17
100
AcDbEntity
  8
A-VIST
100
AcDbLine
 10
46.8
 20
16.334
 30
0.0
 11
46.8
 21
16.234
 31
0.0
  0
LINE
  5
45C
330
17
100
AcDbEntity
  8
A-VIST
100
AcDbLine
 10
32.0
 20
16.334
 30
0.0
 11
46.8
 21
16.334
 31
0.0
  0
LINE
  5
45D
330
17
100
AcDbEntity
  8
A-VIST
100
AcDbLine
 10
32.0
 20
16.234
 30
0.0
 11
32.0
 21
16.334
 31
0.0
  0
LINE
  5
45E
330
17
100
AcDbEntity
  8
A-VIST
100
AcDbLine
 10
46.25
 20
10.85
 30
0.0
 11
46.17
 21
10.85
 31
0.0
  0
LINE
  5
45F
330
17
100
AcDbEntity
  8
A-VIST
100
AcDbLine
 10
46.25
 20
16.003999999999998
 30
0.0
 11
46.25
 21
10.85
 31
0.0
  0
LINE
  5
460
330
17
100
AcDbEntity
  8
A-VIST
100
AcDbLine
 10
46.17
 20
10.85
 30
0.0
 11
46.17
 21
16.003999999999998
 31
0.0
  0
LINE
  5
461
330
17
100
AcDbEntity
  8
A-VIST
100
AcDbLine
 10
46.25
 20
16.003999999999998
 30
0.0
 11
46.17
 21
16.003999999999998
 31
0.0
  0
LINE
  5
462
330
17
100
AcDbEntity
  8
A-VIST
100
AcDbLine
 10
46.25
 20
16.084
 30
0.0
 11
46.25
 21
16.003999999999998
 31
0.0
  0
LINE
  5
463
330
17
100
AcDbEntity
  8
A-VIST
100
AcDbLine
 10
46.17
 20
16.084
 30
0.0
 11
46.25
 21
16.084
 31
0.0
  0
LINE
  5
464
330
17
100
AcDbEntity
  8
A-VIST
100
AcDbLine
 10
46.17
 20
16.003999999999998
 30
0.0
 11
46.17
 21
16.084
 31
0.0
  0
LINE
  5
465
330
17
100
AcDbEntity
  8
A-VIST
100
AcDbLine
 10
32.629999999999995
 20
10.85
 30
0.0
 11
32.55
 21
10.85
 31
0.0
  0
LINE
  5
466
330
17
100
AcDbEntity
  8
A-VIST
100
AcDbLine
 10
32.629999999999995
 20
16.003999999999998
 30
0.0
 11
32.629999999999995
 21
10.85
 31
0.0
  0
LINE
  5
467
330
17
100
AcDbEntity
  8
A-VIST
100
AcDbLine
 10
32.55
 20
10.85
 30
0.0
 11
32.55
 21
16.003999999999998
 31
0.0
  0
LINE
  5
468
330
17
100
AcDbEntity
  8
A-VIST
100
AcDbLine
 10
32.629999999999995
 20
16.003999999999998
 30
0.0
 11
32.55
 21
16.003999999999998
 31
0.0
  0
LINE
  5
469
330
17
100
AcDbEntity
  8
A-VIST
100
AcDbLine
 10
32.629999999999995
 20
16.084
 30
0.0
 11
32.629999999999995
 21
16.003999999999998
 31
0.0
  0
LINE
  5
46A
330
17
100
AcDbEntity
  8
A-VIST
100
AcDbLine
 10
32.55
 20
16.084
 30
0.0
 11
32.629999999999995
 21
16.084
 31
0.0
  0
LINE
  5
46B
330
17
100
AcDbEntity
  8
A-VIST
100
AcDbLine
 10
32.55
 20
16.003999999999998
 30
0.0
 11
32.55
 21
16.084
 31
0.0
  0
LINE
  5
46C
330
17
100
AcDbEntity
  8
A-VIST
100
AcDbLine
 10
32.379999999999995
 20
10.98
 30
0.0
 11
32.3
 21
10.98
 31
0.0
  0
LINE
  5
46D
330
17
100
AcDbEntity
  8
A-VIST
100
AcDbLine
 10
32.379999999999995
 20
14.248000000000001
 30
0.0
 11
32.379999999999995
 21
10.98
 31
0.0
  0
LINE
  5
46E
330
17
100
AcDbEntity
  8
A-VIST
100
AcDbLine
 10
32.3
 20
14.248000000000001
 30
0.0
 11
32.379999999999995
 21
14.248000000000001
 31
0.0
  0
LINE
  5
46F
330
17
100
AcDbEntity
  8
A-VIST
100
AcDbLine
 10
32.3
 20
10.98
 30
0.0
 11
32.3
 21
14.248000000000001
 31
0.0
  0
LINE
  5
470
330
17
100
AcDbEntity
  8
A-TERR
100
AcDbLine
 10
31.2
 20
10.85
 30
0.0
 11
47.599999999999994
 21
10.85
 31
0.0
  0
LINE
  5
471
330
17
100
AcDbEntity
  8
A-NIVEL
100
AcDbLine
 10
47.4
 20
11.0
 30
0.0
 11
48.8
 21
11.0
 31
0.0
  0
LWPOLYLINE
  5
472
330
17
100
AcDbEntity
  8
A-NIVEL
100
AcDbPolyline
 90
3
 70
1
 10
47.6
 20
11.0
 10
47.8
 20
11.25
 10
47.4
 20
11.25
  0
TEXT
  5
473
330
17
100
AcDbEntity
  8
A-NIVEL
100
AcDbText
 10
47.9
 20
11.08
 30
0.0
 40
0.2
  1
NPT ±0,00
  7
ARQ
 11
47.9
 21
11.08
 31
0.0
100
AcDbText
  0
LINE
  5
474
330
17
100
AcDbEntity
  8
A-NIVEL
100
AcDbLine
 10
47.4
 20
13.85
 30
0.0
 11
48.8
 21
13.85
 31
0.0
  0
LWPOLYLINE
  5
475
330
17
100
AcDbEntity
  8
A-NIVEL
100
AcDbPolyline
 90
3
 70
1
 10
47.6
 20
13.85
 10
47.8
 20
14.1
 10
47.4
 20
14.1
  0
TEXT
  5
476
330
17
100
AcDbEntity
  8
A-NIVEL
100
AcDbText
 10
47.9
 20
13.93
 30
0.0
 40
0.2
  1
NPT +2,85
  7
ARQ
 11
47.9
 21
13.93
 31
0.0
100
AcDbText
  0
LINE
  5
477
330
17
100
AcDbEntity
  8
A-NIVEL
100
AcDbLine
 10
47.4
 20
18.1
 30
0.0
 11
48.8
 21
18.1
 31
0.0
  0
LWPOLYLINE
  5
478
330
17
100
AcDbEntity
  8
A-NIVEL
100
AcDbPolyline
 90
3
 70
1
 10
47.6
 20
18.1
 10
47.8
 20
18.35
 10
47.4
 20
18.35
  0
TEXT
  5
479
330
17
100
AcDbEntity
  8
A-NIVEL
100
AcDbText
 10
47.9
 20
18.18
 30
0.0
 40
0.2
  1
+7,10
  7
ARQ
 11
47.9
 21
18.18
 31
0.0
100
AcDbText
  0
TEXT
  5
47A
330
17
100
AcDbEntity
  8
A-TEXT
100
AcDbText
 10
32.0
 20
9.4
 30
0.0
 40
0.4
  1
ELEVACIÓN PONIENTE
  7
ARQ
 11
32.0
 21
9.4
 31
0.0
100
AcDbText
  0
TEXT
  5
47B
330
17
100
AcDbEntity
  8
A-TEXT
 62
8
100
AcDbText
 10
32.0
 20
8.85
 30
0.0
 40
0.22000000000000003
  1
Escala 1:100
  7
ARQ
 11
32.0
 21
8.85
 31
0.0
100
AcDbText
  0
LINE
  5
47C
330
17
100
AcDbEntity
  8
A-TERM
100
AcDbLine
 10
32.4
 20
11.6
 30
0.0
 11
46.4
 21
11.6
 31
0.0
  0
CIRCLE
  5
47D
330
17
100
AcDbEntity
  8
A-TERM
100
AcDbCircle
 10
31.2
 20
12.6
 30
0.0
 40
0.26
  0
TEXT
  5
47E
330
17
100
AcDbEntity
  8
A-TERM
100
AcDbText
 10
31.2
 20
12.6
 30
0.0
 40
0.24
  1
1
  7
ARQ
 72
1
 11
31.2
 21
12.6
 31
0.0
100
AcDbText
 73
2
  0
LINE
  5
47F
330
17
100
AcDbEntity
  8
A-TERM
100
AcDbLine
 10
31.46
 20
12.6
 30
0.0
 11
32.519999999999996
 21
12.6
 31
0.0
  0
CIRCLE
  5
480
330
17
100
AcDbEntity
  8
A-TERM
100
AcDbCircle
 10
32.519999999999996
 20
12.6
 30
0.0
 40
0.05
  0
CIRCLE
  5
481
330
17
100
AcDbEntity
  8
A-TERM
100
AcDbCircle
 10
31.2
 20
11.3
 30
0.0
 40
0.26
  0
TEXT
  5
482
330
17
100
AcDbEntity
  8
A-TERM
100
AcDbText
 10
31.2
 20
11.3
 30
0.0
 40
0.24
  1
2
  7
ARQ
 72
1
 11
31.2
 21
11.3
 31
0.0
100
AcDbText
 73
2
  0
LINE
  5
483
330
17
100
AcDbEntity
  8
A-TERM
100
AcDbLine
 10
31.46
 20
11.3
 30
0.0
 11
32.519999999999996
 21
11.3
 31
0.0
  0
CIRCLE
  5
484
330
17
100
AcDbEntity
  8
A-TERM
100
AcDbCircle
 10
32.519999999999996
 20
11.3
 30
0.0
 40
0.05
  0
CIRCLE
  5
485
330
17
100
AcDbEntity
  8
A-TERM
100
AcDbCircle
 10
41.0
 20
19.0
 30
0.0
 40
0.26
  0
TEXT
  5
486
330
17
100
AcDbEntity
  8
A-TERM
100
AcDbText
 10
41.0
 20
19.0
 30
0.0
 40
0.24
  1
3
  7
ARQ
 72
1
 11
41.0
 21
19.0
 31
0.0
100
AcDbText
 73
2
  0
LINE
  5
487
330
17
100
AcDbEntity
  8
A-TERM
100
AcDbLine
 10
40.805260893752504
 20
18.827730790627214
 30
0.0
 11
39.699999999999996
 21
17.85
 31
0.0
  0
CIRCLE
  5
488
330
17
100
AcDbEntity
  8
A-TERM
100
AcDbCircle
 10
39.699999999999996
 20
17.85
 30
0.0
 40
0.05
  0
TEXT
  5
489
330
17
100
AcDbEntity
  8
A-TEXT
100
AcDbText
 10
2.0
 20
7.6
 30
0.0
 40
0.3
  1
TERMINACIONES DE FACHADA — PROPUESTA, A CONFIRMAR
  7
ARQ
 11
2.0
 21
7.6
 31
0.0
100
AcDbText
  0
TEXT
  5
48A
330
17
100
AcDbEntity
  8
A-TEXT
100
AcDbText
 10
2.0
 20
7.05
 30
0.0
 40
0.2
  1
1
  7
ARQ
 11
2.0
 21
7.05
 31
0.0
100
AcDbText
  0
TEXT
  5
48B
330
17
100
AcDbEntity
  8
A-TEXT
100
AcDbText
 10
2.5
 20
7.05
 30
0.0
 40
0.18
  1
Muros exteriores: Estuco de mortero de cemento afinado, pintura elastomérica exterior. Color blanco hueso. [propuesta]
  7
ARQ
 11
2.5
 21
7.05
 31
0.0
100
AcDbText
  0
TEXT
  5
48C
330
17
100
AcDbEntity
  8
A-TEXT
100
AcDbText
 10
2.0
 20
6.6899999999999995
 30
0.0
 40
0.2
  1
2
  7
ARQ
 11
2.0
 21
6.6899999999999995
 31
0.0
100
AcDbText
  0
TEXT
  5
48D
330
17
100
AcDbEntity
  8
A-TEXT
100
AcDbText
 10
2.5
 20
6.6899999999999995
 30
0.0
 40
0.18
  1
Zócalo: Estuco de mortero con hidrófugo, pintura de alto tráfico. Color gris medio. [propuesta]
  7
ARQ
 11
2.5
 21
6.6899999999999995
 31
0.0
100
AcDbText
  0
TEXT
  5
48E
330
17
100
AcDbEntity
  8
A-TEXT
100
AcDbText
 10
2.0
 20
6.329999999999999
 30
0.0
 40
0.2
  1
3
  7
ARQ
 11
2.0
 21
6.329999999999999
 31
0.0
100
AcDbText
  0
TEXT
  5
48F
330
17
100
AcDbEntity
  8
A-TEXT
100
AcDbText
 10
2.5
 20
6.329999999999999
 30
0.0
 40
0.18
  1
Cubiertas: Plancha de acero prepintado ondulada o trapezoidal sobre fieltro asfáltico y costaneras. Color gris grafito. [propuesta]
  7
ARQ
 11
2.5
 21
6.329999999999999
 31
0.0
100
AcDbText
  0
TEXT
  5
490
330
17
100
AcDbEntity
  8
A-TEXT
100
AcDbText
 10
2.0
 20
5.969999999999999
 30
0.0
 40
0.2
  1
4
  7
ARQ
 11
2.0
 21
5.969999999999999
 31
0.0
100
AcDbText
  0
TEXT
  5
491
330
17
100
AcDbEntity
  8
A-TEXT
100
AcDbText
 10
2.5
 20
5.969999999999999
 30
0.0
 40
0.18
  1
Aleros y tapacanes: Tapacán y forro de alero en fibrocemento pintado. Color blanco hueso. [propuesta]
  7
ARQ
 11
2.5
 21
5.969999999999999
 31
0.0
100
AcDbText
  0
TEXT
  5
492
330
17
100
AcDbEntity
  8
A-TEXT
100
AcDbText
 10
2.0
 20
5.6099999999999985
 30
0.0
 40
0.2
  1
5
  7
ARQ
 11
2.0
 21
5.6099999999999985
 31
0.0
100
AcDbText
  0
TEXT
  5
493
330
17
100
AcDbEntity
  8
A-TEXT
100
AcDbText
 10
2.5
 20
5.6099999999999985
 30
0.0
 40
0.18
  1
Canales, bajadas, forros y babetas: Acero prepintado, uniones remachadas y selladas. Color gris grafito. [propuesta]
  7
ARQ
 11
2.5
 21
5.6099999999999985
 31
0.0
100
AcDbText
  0
TEXT
  5
494
330
17
100
AcDbEntity
  8
A-TEXT
100
AcDbText
 10
2.0
 20
5.249999999999998
 30
0.0
 40
0.2
  1
6
  7
ARQ
 11
2.0
 21
5.249999999999998
 31
0.0
100
AcDbText
  0
TEXT
  5
495
330
17
100
AcDbEntity
  8
A-TEXT
100
AcDbText
 10
2.5
 20
5.249999999999998
 30
0.0
 40
0.18
  1
Ventanas y puertas exteriores vidriadas: Perfil de PVC con doble vidriado hermético (termopanel). Color blanco. [propuesta]
  7
ARQ
 11
2.5
 21
5.249999999999998
 31
0.0
100
AcDbText
  0
TEXT
  5
496
330
17
100
AcDbEntity
  8
A-TEXT
100
AcDbText
 10
2.0
 20
4.889999999999998
 30
0.0
 40
0.2
  1
7
  7
ARQ
 11
2.0
 21
4.889999999999998
 31
0.0
100
AcDbText
  0
TEXT
  5
497
330
17
100
AcDbEntity
  8
A-TEXT
100
AcDbText
 10
2.5
 20
4.889999999999998
 30
0.0
 40
0.18
  1
Puerta de acceso: Puerta de madera sólida con barniz exterior. Color natural. [propuesta]
  7
ARQ
 11
2.5
 21
4.889999999999998
 31
0.0
100
AcDbText
  0
TEXT
  5
498
330
17
100
AcDbEntity
  8
A-TEXT
100
AcDbText
 10
2.0
 20
4.529999999999998
 30
0.0
 40
0.2
  1
8
  7
ARQ
 11
2.0
 21
4.529999999999998
 31
0.0
100
AcDbText
  0
TEXT
  5
499
330
17
100
AcDbEntity
  8
A-TEXT
100
AcDbText
 10
2.5
 20
4.529999999999998
 30
0.0
 40
0.18
  1
Pavimentos exteriores: Baldosa microvibrada antideslizante sobre radier. Color gris. [propuesta]
  7
ARQ
 11
2.5
 21
4.529999999999998
 31
0.0
100
AcDbText
  0
TEXT
  5
49A
330
17
100
AcDbEntity
  8
A-TEXT
 62
8
100
AcDbText
 10
2.5
 20
4.169999999999997
 30
0.0
 40
0.18
  1
Zócalo: línea a +0,60 m sobre NPT en todas las fachadas.
  7
ARQ
 11
2.5
 21
4.169999999999997
 31
0.0
100
AcDbText
  0
LWPOLYLINE
  5
49B
330
17
100
AcDbEntity
  8
A-CUAD
100
AcDbPolyline
 90
4
 70
1
 10
0.0
 20
0.0
 10
59.4
 20
0.0
 10
59.4
 20
42.0
 10
0.0
 20
42.0
  0
LWPOLYLINE
  5
49C
330
17
100
AcDbEntity
  8
A-CUAD
100
AcDbPolyline
 90
4
 70
1
 10
1.0
 20
1.0
 10
58.4
 20
1.0
 10
58.4
 20
41.0
 10
1.0
 20
41.0
  0
LWPOLYLINE
  5
49D
330
17
100
AcDbEntity
  8
A-CUAD
100
AcDbPolyline
 90
4
 70
1
 10
37.4
 20
1.0
 10
58.4
 20
1.0
 10
58.4
 20
7.4
 10
37.4
 20
7.4
  0
LINE
  5
49E
330
17
100
AcDbEntity
  8
A-CUAD
100
AcDbLine
 10
37.4
 20
5.0
 30
0.0
 11
58.4
 21
5.0
 31
0.0
  0
LINE
  5
49F
330
17
100
AcDbEntity
  8
A-CUAD
100
AcDbLine
 10
52.9
 20
1.0
 30
0.0
 11
52.9
 21
5.0
 31
0.0
  0
TEXT
  5
4A0
330
17
100
AcDbEntity
  8
A-TEXT
100
AcDbText
 10
37.699999999999996
 20
7.0
 30
0.0
 40
0.16
  1
Elevaciones proyectadas del modelo FreeCAD, sin líneas ocultas.
  7
ARQ
 11
37.699999999999996
 21
7.0
 31
0.0
100
AcDbText
  0
TEXT
  5
4A1
330
17
100
AcDbEntity
  8
A-TEXT
100
AcDbText
 10
37.699999999999996
 20
6.7
 30
0.0
 40
0.16
  1
Terreno a -0,15 (dato del JSON); sin levantamiento del sitio.
  7
ARQ
 11
37.699999999999996
 21
6.7
 31
0.0
100
AcDbText
  0
TEXT
  5
4A2
330
17
100
AcDbEntity
  8
A-TEXT
100
AcDbText
 10
37.699999999999996
 20
6.4
 30
0.0
 40
0.16
  1
Terminaciones: PROPUESTA de facade-designer, a confirmar (source/terminaciones.json).
  7
ARQ
 11
37.699999999999996
 21
6.4
 31
0.0
100
AcDbText
  0
TEXT
  5
4A3
330
17
100
AcDbEntity
  8
A-TEXT
100
AcDbText
 10
37.699999999999996
 20
6.1000000000000005
 30
0.0
 40
0.16
  1
Cotas y niveles en metros. NPT ±0,00.
  7
ARQ
 11
37.699999999999996
 21
6.1000000000000005
 31
0.0
100
AcDbText
  0
TEXT
  5
4A4
330
17
100
AcDbEntity
  8
A-TEXT
100
AcDbText
 10
37.699999999999996
 20
5.800000000000001
 30
0.0
 40
0.16
  1
Sin veredicto normativo: umbrales OGUC sin transcribir (INCONCLUSO).
  7
ARQ
 11
37.699999999999996
 21
5.800000000000001
 31
0.0
100
AcDbText
  0
TEXT
  5
4A5
330
17
100
AcDbEntity
  8
A-TEXT
100
AcDbText
 10
37.699999999999996
 20
5.500000000000001
 30
0.0
 40
0.16
  1
Norte según el documento rev. G; no hay levantamiento del sitio.
  7
ARQ
 11
37.699999999999996
 21
5.500000000000001
 31
0.0
100
AcDbText
  0
TEXT
  5
4A6
330
17
100
AcDbEntity
  8
A-TEXT
100
AcDbText
 10
37.699999999999996
 20
4.4
 30
0.0
 40
0.36
  1
ELEVACIONES
  7
ARQ
 11
37.699999999999996
 21
4.4
 31
0.0
100
AcDbText
  0
TEXT
  5
4A7
330
17
100
AcDbEntity
  8
A-TEXT
100
AcDbText
 10
37.699999999999996
 20
3.7
 30
0.0
 40
0.19
  1
Vivienda unifamiliar 2 pisos con patio interior — anteproyecto, versión v5
  7
ARQ
 11
37.699999999999996
 21
3.7
 31
0.0
100
AcDbText
  0
TEXT
  5
4A8
330
17
100
AcDbEntity
  8
A-TEXT
100
AcDbText
 10
37.699999999999996
 20
3.14
 30
0.0
 40
0.19
  1
Propietario: por definir
  7
ARQ
 11
37.699999999999996
 21
3.14
 31
0.0
100
AcDbText
  0
TEXT
  5
4A9
330
17
100
AcDbEntity
  8
A-TEXT
100
AcDbText
 10
37.699999999999996
 20
2.58
 30
0.0
 40
0.19
  1
Arquitecto: por definir   Registro: por definir
  7
ARQ
 11
37.699999999999996
 21
2.58
 31
0.0
100
AcDbText
  0
TEXT
  5
4AA
330
17
100
AcDbEntity
  8
A-TEXT
100
AcDbText
 10
37.699999999999996
 20
2.02
 30
0.0
 40
0.19
  1
Dirección: por definir
  7
ARQ
 11
37.699999999999996
 21
2.02
 31
0.0
100
AcDbText
  0
TEXT
  5
4AB
330
17
100
AcDbEntity
  8
A-TEXT
100
AcDbText
 10
37.699999999999996
 20
1.46
 30
0.0
 40
0.19
  1
Rol: por definir   ·   Comuna: por definir
  7
ARQ
 11
37.699999999999996
 21
1.46
 31
0.0
100
AcDbText
  0
TEXT
  5
4AC
330
17
100
AcDbEntity
  8
A-TEXT
100
AcDbText
 10
53.199999999999996
 20
4.4
 30
0.0
 40
0.26
  1
Escala 1:100
  7
ARQ
 11
53.199999999999996
 21
4.4
 31
0.0
100
AcDbText
  0
TEXT
  5
4AD
330
17
100
AcDbEntity
  8
A-TEXT
100
AcDbText
 10
53.199999999999996
 20
3.9
 30
0.0
 40
0.16
  1
Papel A2 (594 x 420 mm)
  7
ARQ
 11
53.199999999999996
 21
3.9
 31
0.0
100
AcDbText
  0
TEXT
  5
4AE
330
17
100
AcDbEntity
  8
A-TEXT
100
AcDbText
 10
53.199999999999996
 20
3.4
 30
0.0
 40
0.17
  1
Fecha 2026-10-04   Rev. v5-A
  7
ARQ
 11
53.199999999999996
 21
3.4
 31
0.0
100
AcDbText
  0
TEXT
  5
4AF
330
17
100
AcDbEntity
  8
A-TEXT
100
AcDbText
 10
53.199999999999996
 20
2.7
 30
0.0
 40
0.18
  1
LÁMINA
  7
ARQ
 11
53.199999999999996
 21
2.7
 31
0.0
100
AcDbText
  0
TEXT
  5
4B0
330
17
100
AcDbEntity
  8
A-TEXT
100
AcDbText
 10
53.199999999999996
 20
1.5
 30
0.0
 40
0.7
  1
4 / 6
  7
ARQ
 11
53.199999999999996
 21
1.5
 31
0.0
100
AcDbText
  0
VIEWPORT
  5
4B5
330
4B1
100
AcDbEntity
 67
1
  8
VIEWPORTS
100
AcDbViewport
 10
297.0
 20
210.0
 30
0.0
 40
653.4000000000001
 41
462.00000000000006
 68
1
 69
1
 12
297.0
 22
210.0
 13
0.0
 23
0.0
 14
10.0
 24
10.0
 15
10.0
 25
10.0
 16
0.0
 26
0.0
 36
1.0
 17
0.0
 27
0.0
 37
0.0
 42
50.0
 43
0.0
 44
0.0
 45
462.00000000000006
 50
0.0
 51
0.0
 72
100
 90
557088
  1

281
0
 71
0
 74
0
110
0.0
120
0.0
130
0.0
111
1.0
121
0.0
131
0.0
112
0.0
122
1.0
132
0.0
 79
0
146
0.0
282
0
  0
VIEWPORT
  5
4B6
330
4B1
100
AcDbEntity
 67
1
  8
VIEWPORTS
100
AcDbViewport
 10
297.0
 20
210.0
 30
0.0
 40
594.0
 41
420.0
 68
2
 69
3
 12
29.7
 22
21.0
 13
0.0
 23
0.0
 14
10.0
 24
10.0
 15
10.0
 25
10.0
 16
0.0
 26
0.0
 36
1.0
 17
0.0
 27
0.0
 37
0.0
 42
50.0
 43
0.0
 44
0.0
 45
42.0
 50
0.0
 51
0.0
 72
100
 90
0
  1

281
0
 71
0
 74
0
110
0.0
120
0.0
130
0.0
111
1.0
121
0.0
131
0.0
112
0.0
122
1.0
132
0.0
 79
0
146
0.0
282
0
  0
ENDSEC
  0
SECTION
  2
OBJECTS
  0
DICTIONARY
  5
A
330
0
100
AcDbDictionary
281
1
  3
ACAD_COLOR
350
B
  3
ACAD_GROUP
350
C
  3
ACAD_LAYOUT
350
D
  3
ACAD_MATERIAL
350
E
  3
ACAD_MLEADERSTYLE
350
F
  3
ACAD_MLINESTYLE
350
10
  3
ACAD_PLOTSETTINGS
350
11
  3
ACAD_PLOTSTYLENAME
350
12
  3
ACAD_SCALELIST
350
14
  3
ACAD_TABLESTYLE
350
15
  3
ACAD_VISUALSTYLE
350
16
  3
EZDXF_META
350
2D
  0
DICTIONARY
  5
B
330
A
100
AcDbDictionary
281
1
  0
DICTIONARY
  5
C
330
A
100
AcDbDictionary
281
1
  0
DICTIONARY
  5
D
330
A
100
AcDbDictionary
281
1
  3
Model
350
1A
  3
A2 1-100
350
4B4
  0
DICTIONARY
  5
E
330
A
100
AcDbDictionary
281
1
  3
ByBlock
350
1F
  3
ByLayer
350
20
  3
Global
350
21
  0
DICTIONARY
  5
F
330
A
100
AcDbDictionary
281
1
  3
Standard
350
2C
  0
DICTIONARY
  5
10
330
A
100
AcDbDictionary
281
1
  3
Standard
350
22
  0
DICTIONARY
  5
11
330
A
100
AcDbDictionary
281
1
  0
ACDBDICTIONARYWDFLT
  5
12
330
A
100
AcDbDictionary
281
1
  3
Normal
350
13
100
AcDbDictionaryWithDefault
340
13
  0
ACDBPLACEHOLDER
  5
13
330
12
  0
DICTIONARY
  5
14
330
A
100
AcDbDictionary
281
1
  0
DICTIONARY
  5
15
330
A
100
AcDbDictionary
281
1
  0
DICTIONARY
  5
16
330
A
100
AcDbDictionary
281
1
  3
2dWireframe
350
5A
  3
Basic
350
5B
  3
Brighten
350
5C
  3
ColorChange
350
5D
  3
Conceptual
350
5E
  3
Dim
350
5F
  3
EdgeColorOff
350
60
  3
Facepattern
350
61
  3
Flat
350
62
  3
FlatWithEdges
350
63
  3
Gouraud
350
64
  3
GouraudWithEdges
350
65
  3
Hidden
350
66
  3
JitterOff
350
67
  3
Linepattern
350
68
  3
Modeling
350
69
  3
OverhangOff
350
6A
  3
Realistic
350
6B
  3
Shaded
350
6C
  3
Shaded with edges
350
6D
  3
Shades of Gray
350
6E
  3
Sketchy
350
6F
  3
Thicken
350
70
  3
Wireframe
350
71
  3
X-Ray
350
72
  0
LAYOUT
  5
1A
330
D
100
AcDbPlotSettings
  1

  4
A3
  6

 40
7.5
 41
20.0
 42
7.5
 43
20.0
 44
420.0
 45
297.0
 46
0.0
 47
0.0
 48
0.0
 49
0.0
140
0.0
141
0.0
142
1.0
143
1.0
 70
1024
 72
1
 73
0
 74
5
  7

 75
16
 76
0
 77
2
 78
300
147
1.0
148
0.0
149
0.0
100
AcDbLayout
  1
Model
 70
1
 71
0
 10
0.0
 20
0.0
 11
420.0
 21
297.0
 12
0.0
 22
0.0
 32
0.0
 14
1e+20
 24
1e+20
 34
1e+20
 15
-1e+20
 25
-1e+20
 35
-1e+20
146
0.0
 13
0.0
 23
0.0
 33
0.0
 16
1.0
 26
0.0
 36
0.0
 17
0.0
 27
1.0
 37
0.0
 76
1
330
17
  0
MATERIAL
  5
1F
102
{ACAD_REACTORS
330
E
102
}
330
E
100
AcDbMaterial
  1
ByBlock
  2

 70
0
 40
1.0
 71
1
 41
1.0
 91
-1023410177
 42
1.0
 72
1
  3

 73
1
 74
1
 75
1
 44
0.5
 73
0
 45
1.0
 46
1.0
 77
1
  4

 78
1
 79
1
170
1
 48
1.0
171
1
  6

172
1
173
1
174
1
140
1.0
141
1.0
175
1
  7

176
1
177
1
178
1
143
1.0
179
1
  8

270
1
271
1
272
1
145
1.0
146
1.0
273
1
  9

274
1
275
1
276
1
 42
1.0
 72
1
  3

 73
1
 74
1
 75
1
 94
63
  0
MATERIAL
  5
20
102
{ACAD_REACTORS
330
E
102
}
330
E
100
AcDbMaterial
  1
ByLayer
  2

 70
0
 40
1.0
 71
1
 41
1.0
 91
-1023410177
 42
1.0
 72
1
  3

 73
1
 74
1
 75
1
 44
0.5
 73
0
 45
1.0
 46
1.0
 77
1
  4

 78
1
 79
1
170
1
 48
1.0
171
1
  6

172
1
173
1
174
1
140
1.0
141
1.0
175
1
  7

176
1
177
1
178
1
143
1.0
179
1
  8

270
1
271
1
272
1
145
1.0
146
1.0
273
1
  9

274
1
275
1
276
1
 42
1.0
 72
1
  3

 73
1
 74
1
 75
1
 94
63
  0
MATERIAL
  5
21
102
{ACAD_REACTORS
330
E
102
}
330
E
100
AcDbMaterial
  1
Global
  2

 70
0
 40
1.0
 71
1
 41
1.0
 91
-1023410177
 42
1.0
 72
1
  3

 73
1
 74
1
 75
1
 44
0.5
 73
0
 45
1.0
 46
1.0
 77
1
  4

 78
1
 79
1
170
1
 48
1.0
171
1
  6

172
1
173
1
174
1
140
1.0
141
1.0
175
1
  7

176
1
177
1
178
1
143
1.0
179
1
  8

270
1
271
1
272
1
145
1.0
146
1.0
273
1
  9

274
1
275
1
276
1
 42
1.0
 72
1
  3

 73
1
 74
1
 75
1
 94
63
  0
MLINESTYLE
  5
22
102
{ACAD_REACTORS
330
10
102
}
330
10
100
AcDbMlineStyle
  2
Standard
 70
0
  3

 62
256
 51
90.0
 52
90.0
 71
2
 49
0.5
 62
256
  6
BYLAYER
 49
-0.5
 62
256
  6
BYLAYER
  0
MLEADERSTYLE
  5
2C
102
{ACAD_REACTORS
330
F
102
}
330
F
100
AcDbMLeaderStyle
179
2
170
2
171
1
172
0
 90
2
 40
0.0
 41
0.0
173
1
 91
-1056964608
 92
-2
290
1
 42
2.0
291
1
 43
8.0
  3
Standard
 44
4.0
300

342
29
174
1
175
1
176
0
178
1
 93
-1056964608
 45
4.0
292
0
297
0
 46
4.0
 94
-1056964608
 47
1.0
 49
1.0
140
1.0
294
1
141
0.0
177
0
142
1.0
295
0
296
0
143
3.75
271
0
272
9
273
9
  0
DICTIONARY
  5
2D
330
A
100
AcDbDictionary
280
1
281
1
  3
CREATED_BY_EZDXF
350
2E
  3
WRITTEN_BY_EZDXF
350
4B9
  0
DICTIONARYVAR
  5
2E
330
2D
100
DictionaryVariables
280
0
  1
1.4.4 @ 2026-10-04T20:59:26.803875+00:00
  0
VISUALSTYLE
  5
5A
102
{ACAD_REACTORS
330
16
102
}
330
16
100
AcDbVisualStyle
  2
2dWireframe
 70
4
177
3
291
0
 70
58
 90
2
176
1
 90
2
176
1
 90
0
176
1
 90
0
176
1
 40
0.6
176
1
 40
30.0
176
1
 62
7
420
16777215
176
1
 90
1
176
1
 90
4
176
1
 62
7
176
1
 62
257
176
1
 90
1
176
1
 90
1
176
1
 40
1.0
176
1
 90
8
176
1
 62
7
176
1
 40
1.0
176
1
 90
1
176
1
 90
6
176
1
 90
2
176
1
 62
7
176
1
 90
5
176
1
 90
0
176
1
 90
0
176
1
290
0
176
1
 90
1
176
1
 40
0.0
176
1
 90
0
176
1
290
1
176
1
290
1
176
1
290
0
176
1
290
0
176
1
290
0
176
1
290
0
176
1
290
0
176
1
290
0
176
1
290
0
176
1
 90
50
176
1
 40
0.0
176
1
 40
1.0
176
1
 90
0
176
1
 62
18
420
0
176
1
 90
50
176
1
 90
3
176
1
 62
5
420
255
176
1
290
0
176
1
 90
50
176
1
 90
50
176
1
 90
50
176
1
290
0
176
1
 90
50
176
1
 62
256
176
0
 40
1.0
176
0
 90
2
176
1
  1
strokes_ogs.tif
176
1
290
0
176
1
 40
1.0
176
1
 40
1.0
176
1
  0
VISUALSTYLE
  5
5B
102
{ACAD_REACTORS
330
16
102
}
330
16
100
AcDbVisualStyle
  2
Basic
 70
7
177
3
291
1
 70
58
 90
2
176
1
 90
2
176
1
 90
0
176
1
 90
1
176
1
 40
0.6
176
1
 40
30.0
176
1
 62
7
420
16777215
176
1
 90
1
176
1
 90
4
176
1
 62
7
176
1
 62
257
176
1
 90
1
176
1
 90
1
176
1
 40
1.0
176
1
 90
8
176
1
 62
7
176
1
 40
1.0
176
1
 90
1
176
1
 90
6
176
1
 90
2
176
1
 62
7
176
1
 90
5
176
1
 90
0
176
1
 90
0
176
1
290
0
176
1
 90
1
176
1
 40
0.0
176
1
 90
0
176
1
290
0
176
1
290
1
176
1
290
1
176
1
290
0
176
1
290
0
176
1
290
0
176
1
290
0
176
1
290
0
176
1
290
0
176
1
 90
50
176
1
 40
0.0
176
1
 40
1.0
176
1
 90
0
176
1
 62
18
420
0
176
1
 90
50
176
1
 90
3
176
1
 62
5
420
255
176
1
290
0
176
1
 90
50
176
1
 90
50
176
1
 90
50
176
1
290
0
176
1
 90
50
176
1
 62
256
176
0
 40
1.0
176
0
 90
2
176
1
  1
strokes_ogs.tif
176
1
290
0
176
1
 40
1.0
176
1
 40
1.0
176
1
  0
VISUALSTYLE
  5
5C
102
{ACAD_REACTORS
330
16
102
}
330
16
100
AcDbVisualStyle
  2
Brighten
 70
12
177
3
291
1
 70
58
 90
2
176
1
 90
2
176
1
 90
0
176
1
 90
2
176
1
 40
0.6
176
1
 40
30.0
176
1
 62
7
420
16777215
176
1
 90
1
176
1
 90
4
176
1
 62
7
176
1
 62
257
176
1
 90
1
176
1
 90
1
176
1
 40
1.0
176
1
 90
8
176
1
 62
7
176
1
 40
1.0
176
1
 90
1
176
1
 90
6
176
1
 90
2
176
1
 62
7
176
1
 90
5
176
1
 90
0
176
1
 90
0
176
1
290
0
176
1
 90
1
176
1
 40
0.0
176
1
 90
0
176
1
290
0
176
1
290
1
176
1
290
1
176
1
290
0
176
1
290
0
176
1
290
0
176
1
290
0
176
1
290
0
176
1
290
0
176
1
 90
50
176
1
 40
0.0
176
1
 40
1.0
176
1
 90
0
176
1
 62
18
420
0
176
1
 90
50
176
1
 90
3
176
1
 62
5
420
255
176
1
290
0
176
1
 90
50
176
1
 90
50
176
1
 90
50
176
1
290
0
176
1
 90
50
176
1
 62
256
176
0
 40
1.0
176
0
 90
2
176
1
  1
strokes_ogs.tif
176
1
290
0
176
1
 40
1.0
176
1
 40
1.0
176
1
  0
VISUALSTYLE
  5
5D
102
{ACAD_REACTORS
330
16
102
}
330
16
100
AcDbVisualStyle
  2
ColorChange
 70
16
177
3
291
1
 70
58
 90
2
176
1
 90
2
176
1
 90
0
176
1
 90
2
176
1
 40
0.6
176
1
 40
30.0
176
1
 62
7
420
16777215
176
1
 90
1
176
1
 90
4
176
1
 62
7
176
1
 62
257
176
1
 90
1
176
1
 90
1
176
1
 40
1.0
176
1
 90
8
176
1
 62
7
176
1
 40
1.0
176
1
 90
1
176
1
 90
6
176
1
 90
2
176
1
 62
7
176
1
 90
5
176
1
 90
0
176
1
 90
0
176
1
290
0
176
1
 90
1
176
1
 40
0.0
176
1
 90
0
176
1
290
0
176
1
290
1
176
1
290
1
176
1
290
0
176
1
290
0
176
1
290
0
176
1
290
0
176
1
290
0
176
1
290
0
176
1
 90
50
176
1
 40
0.0
176
1
 40
1.0
176
1
 90
0
176
1
 62
18
420
0
176
1
 90
50
176
1
 90
3
176
1
 62
5
420
255
176
1
290
0
176
1
 90
50
176
1
 90
50
176
1
 90
50
176
1
290
0
176
1
 90
50
176
1
 62
256
176
0
 40
1.0
176
0
 90
2
176
1
  1
strokes_ogs.tif
176
1
290
0
176
1
 40
1.0
176
1
 40
1.0
176
1
  0
VISUALSTYLE
  5
5E
102
{ACAD_REACTORS
330
16
102
}
330
16
100
AcDbVisualStyle
  2
Conceptual
 70
9
177
3
291
0
 70
58
 90
2
176
1
 90
2
176
1
 90
0
176
1
 90
3
176
1
 40
0.6
176
1
 40
30.0
176
1
 62
7
420
16777215
176
1
 90
1
176
1
 90
4
176
1
 62
7
176
1
 62
257
176
1
 90
1
176
1
 90
1
176
1
 40
1.0
176
1
 90
8
176
1
 62
7
176
1
 40
1.0
176
1
 90
1
176
1
 90
6
176
1
 90
2
176
1
 62
7
176
1
 90
5
176
1
 90
0
176
1
 90
0
176
1
290
0
176
1
 90
1
176
1
 40
0.0
176
1
 90
0
176
1
290
0
176
1
290
1
176
1
290
1
176
1
290
0
176
1
290
0
176
1
290
0
176
1
290
0
176
1
290
0
176
1
290
0
176
1
 90
50
176
1
 40
0.0
176
1
 40
1.0
176
1
 90
0
176
1
 62
18
420
0
176
1
 90
50
176
1
 90
3
176
1
 62
5
420
255
176
1
290
0
176
1
 90
50
176
1
 90
50
176
1
 90
50
176
1
290
0
176
1
 90
50
176
1
 62
256
176
0
 40
1.0
176
0
 90
2
176
1
  1
strokes_ogs.tif
176
1
290
0
176
1
 40
1.0
176
1
 40
1.0
176
1
  0
VISUALSTYLE
  5
5F
102
{ACAD_REACTORS
330
16
102
}
330
16
100
AcDbVisualStyle
  2
Dim
 70
11
177
3
291
1
 70
58
 90
2
176
1
 90
2
176
1
 90
0
176
1
 90
2
176
1
 40
0.6
176
1
 40
30.0
176
1
 62
7
420
16777215
176
1
 90
1
176
1
 90
4
176
1
 62
7
176
1
 62
257
176
1
 90
1
176
1
 90
1
176
1
 40
1.0
176
1
 90
8
176
1
 62
7
176
1
 40
1.0
176
1
 90
1
176
1
 90
6
176
1
 90
2
176
1
 62
7
176
1
 90
5
176
1
 90
0
176
1
 90
0
176
1
290
0
176
1
 90
1
176
1
 40
0.0
176
1
 90
0
176
1
290
0
176
1
290
1
176
1
290
1
176
1
290
0
176
1
290
0
176
1
290
0
176
1
290
0
176
1
290
0
176
1
290
0
176
1
 90
50
176
1
 40
0.0
176
1
 40
1.0
176
1
 90
0
176
1
 62
18
420
0
176
1
 90
50
176
1
 90
3
176
1
 62
5
420
255
176
1
290
0
176
1
 90
50
176
1
 90
50
176
1
 90
50
176
1
290
0
176
1
 90
50
176
1
 62
256
176
0
 40
1.0
176
0
 90
2
176
1
  1
strokes_ogs.tif
176
1
290
0
176
1
 40
1.0
176
1
 40
1.0
176
1
  0
VISUALSTYLE
  5
60
102
{ACAD_REACTORS
330
16
102
}
330
16
100
AcDbVisualStyle
  2
EdgeColorOff
 70
22
177
3
291
1
 70
58
 90
2
176
1
 90
2
176
1
 90
0
176
1
 90
2
176
1
 40
0.6
176
1
 40
30.0
176
1
 62
7
420
16777215
176
1
 90
1
176
1
 90
4
176
1
 62
7
176
1
 62
257
176
1
 90
1
176
1
 90
1
176
1
 40
1.0
176
1
 90
8
176
1
 62
7
176
1
 40
1.0
176
1
 90
1
176
1
 90
6
176
1
 90
2
176
1
 62
7
176
1
 90
5
176
1
 90
0
176
1
 90
0
176
1
290
0
176
1
 90
1
176
1
 40
0.0
176
1
 90
0
176
1
290
0
176
1
290
1
176
1
290
1
176
1
290
0
176
1
290
0
176
1
290
0
176
1
290
0
176
1
290
0
176
1
290
0
176
1
 90
50
176
1
 40
0.0
176
1
 40
1.0
176
1
 90
0
176
1
 62
18
420
0
176
1
 90
50
176
1
 90
3
176
1
 62
5
420
255
176
1
290
0
176
1
 90
50
176
1
 90
50
176
1
 90
50
176
1
290
0
176
1
 90
50
176
1
 62
256
176
0
 40
1.0
176
0
 90
2
176
1
  1
strokes_ogs.tif
176
1
290
0
176
1
 40
1.0
176
1
 40
1.0
176
1
  0
VISUALSTYLE
  5
61
102
{ACAD_REACTORS
330
16
102
}
330
16
100
AcDbVisualStyle
  2
Facepattern
 70
15
177
3
291
1
 70
58
 90
2
176
1
 90
2
176
1
 90
0
176
1
 90
2
176
1
 40
0.6
176
1
 40
30.0
176
1
 62
7
420
16777215
176
1
 90
1
176
1
 90
4
176
1
 62
7
176
1
 62
257
176
1
 90
1
176
1
 90
1
176
1
 40
1.0
176
1
 90
8
176
1
 62
7
176
1
 40
1.0
176
1
 90
1
176
1
 90
6
176
1
 90
2
176
1
 62
7
176
1
 90
5
176
1
 90
0
176
1
 90
0
176
1
290
0
176
1
 90
1
176
1
 40
0.0
176
1
 90
0
176
1
290
0
176
1
290
1
176
1
290
1
176
1
290
0
176
1
290
0
176
1
290
0
176
1
290
0
176
1
290
0
176
1
290
0
176
1
 90
50
176
1
 40
0.0
176
1
 40
1.0
176
1
 90
0
176
1
 62
18
420
0
176
1
 90
50
176
1
 90
3
176
1
 62
5
420
255
176
1
290
0
176
1
 90
50
176
1
 90
50
176
1
 90
50
176
1
290
0
176
1
 90
50
176
1
 62
256
176
0
 40
1.0
176
0
 90
2
176
1
  1
strokes_ogs.tif
176
1
290
0
176
1
 40
1.0
176
1
 40
1.0
176
1
  0
VISUALSTYLE
  5
62
102
{ACAD_REACTORS
330
16
102
}
330
16
100
AcDbVisualStyle
  2
Flat
 70
0
177
3
291
1
 70
58
 90
2
176
1
 90
2
176
1
 90
0
176
1
 90
2
176
1
 40
0.6
176
1
 40
30.0
176
1
 62
7
420
16777215
176
1
 90
1
176
1
 90
4
176
1
 62
7
176
1
 62
257
176
1
 90
1
176
1
 90
1
176
1
 40
1.0
176
1
 90
8
176
1
 62
7
176
1
 40
1.0
176
1
 90
1
176
1
 90
6
176
1
 90
2
176
1
 62
7
176
1
 90
5
176
1
 90
0
176
1
 90
0
176
1
290
0
176
1
 90
1
176
1
 40
0.0
176
1
 90
0
176
1
290
0
176
1
290
1
176
1
290
1
176
1
290
0
176
1
290
0
176
1
290
0
176
1
290
0
176
1
290
0
176
1
290
0
176
1
 90
50
176
1
 40
0.0
176
1
 40
1.0
176
1
 90
0
176
1
 62
18
420
0
176
1
 90
50
176
1
 90
3
176
1
 62
5
420
255
176
1
290
0
176
1
 90
50
176
1
 90
50
176
1
 90
50
176
1
290
0
176
1
 90
50
176
1
 62
256
176
0
 40
1.0
176
0
 90
2
176
1
  1
strokes_ogs.tif
176
1
290
0
176
1
 40
1.0
176
1
 40
1.0
176
1
  0
VISUALSTYLE
  5
63
102
{ACAD_REACTORS
330
16
102
}
330
16
100
AcDbVisualStyle
  2
FlatWithEdges
 70
1
177
3
291
1
 70
58
 90
2
176
1
 90
2
176
1
 90
0
176
1
 90
2
176
1
 40
0.6
176
1
 40
30.0
176
1
 62
7
420
16777215
176
1
 90
1
176
1
 90
4
176
1
 62
7
176
1
 62
257
176
1
 90
1
176
1
 90
1
176
1
 40
1.0
176
1
 90
8
176
1
 62
7
176
1
 40
1.0
176
1
 90
1
176
1
 90
6
176
1
 90
2
176
1
 62
7
176
1
 90
5
176
1
 90
0
176
1
 90
0
176
1
290
0
176
1
 90
1
176
1
 40
0.0
176
1
 90
0
176
1
290
0
176
1
290
1
176
1
290
1
176
1
290
0
176
1
290
0
176
1
290
0
176
1
290
0
176
1
290
0
176
1
290
0
176
1
 90
50
176
1
 40
0.0
176
1
 40
1.0
176
1
 90
0
176
1
 62
18
420
0
176
1
 90
50
176
1
 90
3
176
1
 62
5
420
255
176
1
290
0
176
1
 90
50
176
1
 90
50
176
1
 90
50
176
1
290
0
176
1
 90
50
176
1
 62
256
176
0
 40
1.0
176
0
 90
2
176
1
  1
strokes_ogs.tif
176
1
290
0
176
1
 40
1.0
176
1
 40
1.0
176
1
  0
VISUALSTYLE
  5
64
102
{ACAD_REACTORS
330
16
102
}
330
16
100
AcDbVisualStyle
  2
Gouraud
 70
2
177
3
291
1
 70
58
 90
2
176
1
 90
2
176
1
 90
0
176
1
 90
2
176
1
 40
0.6
176
1
 40
30.0
176
1
 62
7
420
16777215
176
1
 90
1
176
1
 90
4
176
1
 62
7
176
1
 62
257
176
1
 90
1
176
1
 90
1
176
1
 40
1.0
176
1
 90
8
176
1
 62
7
176
1
 40
1.0
176
1
 90
1
176
1
 90
6
176
1
 90
2
176
1
 62
7
176
1
 90
5
176
1
 90
0
176
1
 90
0
176
1
290
0
176
1
 90
1
176
1
 40
0.0
176
1
 90
0
176
1
290
0
176
1
290
1
176
1
290
1
176
1
290
0
176
1
290
0
176
1
290
0
176
1
290
0
176
1
290
0
176
1
290
0
176
1
 90
50
176
1
 40
0.0
176
1
 40
1.0
176
1
 90
0
176
1
 62
18
420
0
176
1
 90
50
176
1
 90
3
176
1
 62
5
420
255
176
1
290
0
176
1
 90
50
176
1
 90
50
176
1
 90
50
176
1
290
0
176
1
 90
50
176
1
 62
256
176
0
 40
1.0
176
0
 90
2
176
1
  1
strokes_ogs.tif
176
1
290
0
176
1
 40
1.0
176
1
 40
1.0
176
1
  0
VISUALSTYLE
  5
65
102
{ACAD_REACTORS
330
16
102
}
330
16
100
AcDbVisualStyle
  2
GouraudWithEdges
 70
3
177
3
291
1
 70
58
 90
2
176
1
 90
2
176
1
 90
0
176
1
 90
2
176
1
 40
0.6
176
1
 40
30.0
176
1
 62
7
420
16777215
176
1
 90
1
176
1
 90
4
176
1
 62
7
176
1
 62
257
176
1
 90
1
176
1
 90
1
176
1
 40
1.0
176
1
 90
8
176
1
 62
7
176
1
 40
1.0
176
1
 90
1
176
1
 90
6
176
1
 90
2
176
1
 62
7
176
1
 90
5
176
1
 90
0
176
1
 90
0
176
1
290
0
176
1
 90
1
176
1
 40
0.0
176
1
 90
0
176
1
290
0
176
1
290
1
176
1
290
1
176
1
290
0
176
1
290
0
176
1
290
0
176
1
290
0
176
1
290
0
176
1
290
0
176
1
 90
50
176
1
 40
0.0
176
1
 40
1.0
176
1
 90
0
176
1
 62
18
420
0
176
1
 90
50
176
1
 90
3
176
1
 62
5
420
255
176
1
290
0
176
1
 90
50
176
1
 90
50
176
1
 90
50
176
1
290
0
176
1
 90
50
176
1
 62
256
176
0
 40
1.0
176
0
 90
2
176
1
  1
strokes_ogs.tif
176
1
290
0
176
1
 40
1.0
176
1
 40
1.0
176
1
  0
VISUALSTYLE
  5
66
102
{ACAD_REACTORS
330
16
102
}
330
16
100
AcDbVisualStyle
  2
Hidden
 70
6
177
3
291
0
 70
58
 90
2
176
1
 90
2
176
1
 90
0
176
1
 90
1
176
1
 40
0.6
176
1
 40
30.0
176
1
 62
7
420
16777215
176
1
 90
1
176
1
 90
4
176
1
 62
7
176
1
 62
257
176
1
 90
1
176
1
 90
1
176
1
 40
1.0
176
1
 90
8
176
1
 62
7
176
1
 40
1.0
176
1
 90
1
176
1
 90
6
176
1
 90
2
176
1
 62
7
176
1
 90
5
176
1
 90
0
176
1
 90
0
176
1
290
0
176
1
 90
1
176
1
 40
0.0
176
1
 90
0
176
1
290
0
176
1
290
1
176
1
290
1
176
1
290
0
176
1
290
0
176
1
290
0
176
1
290
0
176
1
290
0
176
1
290
0
176
1
 90
50
176
1
 40
0.0
176
1
 40
1.0
176
1
 90
0
176
1
 62
18
420
0
176
1
 90
50
176
1
 90
3
176
1
 62
5
420
255
176
1
290
0
176
1
 90
50
176
1
 90
50
176
1
 90
50
176
1
290
0
176
1
 90
50
176
1
 62
256
176
0
 40
1.0
176
0
 90
2
176
1
  1
strokes_ogs.tif
176
1
290
0
176
1
 40
1.0
176
1
 40
1.0
176
1
  0
VISUALSTYLE
  5
67
102
{ACAD_REACTORS
330
16
102
}
330
16
100
AcDbVisualStyle
  2
JitterOff
 70
20
177
3
291
1
 70
58
 90
2
176
1
 90
2
176
1
 90
0
176
1
 90
2
176
1
 40
0.6
176
1
 40
30.0
176
1
 62
7
420
16777215
176
1
 90
1
176
1
 90
4
176
1
 62
7
176
1
 62
257
176
1
 90
1
176
1
 90
1
176
1
 40
1.0
176
1
 90
8
176
1
 62
7
176
1
 40
1.0
176
1
 90
1
176
1
 90
6
176
1
 90
2
176
1
 62
7
176
1
 90
5
176
1
 90
0
176
1
 90
0
176
1
290
0
176
1
 90
1
176
1
 40
0.0
176
1
 90
0
176
1
290
0
176
1
290
1
176
1
290
1
176
1
290
0
176
1
290
0
176
1
290
0
176
1
290
0
176
1
290
0
176
1
290
0
176
1
 90
50
176
1
 40
0.0
176
1
 40
1.0
176
1
 90
0
176
1
 62
18
420
0
176
1
 90
50
176
1
 90
3
176
1
 62
5
420
255
176
1
290
0
176
1
 90
50
176
1
 90
50
176
1
 90
50
176
1
290
0
176
1
 90
50
176
1
 62
256
176
0
 40
1.0
176
0
 90
2
176
1
  1
strokes_ogs.tif
176
1
290
0
176
1
 40
1.0
176
1
 40
1.0
176
1
  0
VISUALSTYLE
  5
68
102
{ACAD_REACTORS
330
16
102
}
330
16
100
AcDbVisualStyle
  2
Linepattern
 70
14
177
3
291
1
 70
58
 90
2
176
1
 90
2
176
1
 90
0
176
1
 90
2
176
1
 40
0.6
176
1
 40
30.0
176
1
 62
7
420
16777215
176
1
 90
1
176
1
 90
4
176
1
 62
7
176
1
 62
257
176
1
 90
1
176
1
 90
1
176
1
 40
1.0
176
1
 90
8
176
1
 62
7
176
1
 40
1.0
176
1
 90
1
176
1
 90
6
176
1
 90
2
176
1
 62
7
176
1
 90
5
176
1
 90
0
176
1
 90
0
176
1
290
0
176
1
 90
1
176
1
 40
0.0
176
1
 90
0
176
1
290
0
176
1
290
1
176
1
290
1
176
1
290
0
176
1
290
0
176
1
290
0
176
1
290
0
176
1
290
0
176
1
290
0
176
1
 90
50
176
1
 40
0.0
176
1
 40
1.0
176
1
 90
0
176
1
 62
18
420
0
176
1
 90
50
176
1
 90
3
176
1
 62
5
420
255
176
1
290
0
176
1
 90
50
176
1
 90
50
176
1
 90
50
176
1
290
0
176
1
 90
50
176
1
 62
256
176
0
 40
1.0
176
0
 90
2
176
1
  1
strokes_ogs.tif
176
1
290
0
176
1
 40
1.0
176
1
 40
1.0
176
1
  0
VISUALSTYLE
  5
69
102
{ACAD_REACTORS
330
16
102
}
330
16
100
AcDbVisualStyle
  2
Modeling
 70
10
177
3
291
0
 70
58
 90
2
176
1
 90
2
176
1
 90
0
176
1
 90
2
176
1
 40
0.6
176
1
 40
30.0
176
1
 62
7
420
16777215
176
1
 90
1
176
1
 90
4
176
1
 62
7
176
1
 62
257
176
1
 90
1
176
1
 90
1
176
1
 40
1.0
176
1
 90
8
176
1
 62
7
176
1
 40
1.0
176
1
 90
1
176
1
 90
6
176
1
 90
2
176
1
 62
7
176
1
 90
5
176
1
 90
0
176
1
 90
0
176
1
290
0
176
1
 90
1
176
1
 40
0.0
176
1
 90
0
176
1
290
0
176
1
290
1
176
1
290
1
176
1
290
0
176
1
290
0
176
1
290
0
176
1
290
0
176
1
290
0
176
1
290
0
176
1
 90
50
176
1
 40
0.0
176
1
 40
1.0
176
1
 90
0
176
1
 62
18
420
0
176
1
 90
50
176
1
 90
3
176
1
 62
5
420
255
176
1
290
0
176
1
 90
50
176
1
 90
50
176
1
 90
50
176
1
290
0
176
1
 90
50
176
1
 62
256
176
0
 40
1.0
176
0
 90
2
176
1
  1
strokes_ogs.tif
176
1
290
0
176
1
 40
1.0
176
1
 40
1.0
176
1
  0
VISUALSTYLE
  5
6A
102
{ACAD_REACTORS
330
16
102
}
330
16
100
AcDbVisualStyle
  2
OverhangOff
 70
21
177
3
291
1
 70
58
 90
2
176
1
 90
2
176
1
 90
0
176
1
 90
2
176
1
 40
0.6
176
1
 40
30.0
176
1
 62
7
420
16777215
176
1
 90
1
176
1
 90
4
176
1
 62
7
176
1
 62
257
176
1
 90
1
176
1
 90
1
176
1
 40
1.0
176
1
 90
8
176
1
 62
7
176
1
 40
1.0
176
1
 90
1
176
1
 90
6
176
1
 90
2
176
1
 62
7
176
1
 90
5
176
1
 90
0
176
1
 90
0
176
1
290
0
176
1
 90
1
176
1
 40
0.0
176
1
 90
0
176
1
290
0
176
1
290
1
176
1
290
1
176
1
290
0
176
1
290
0
176
1
290
0
176
1
290
0
176
1
290
0
176
1
290
0
176
1
 90
50
176
1
 40
0.0
176
1
 40
1.0
176
1
 90
0
176
1
 62
18
420
0
176
1
 90
50
176
1
 90
3
176
1
 62
5
420
255
176
1
290
0
176
1
 90
50
176
1
 90
50
176
1
 90
50
176
1
290
0
176
1
 90
50
176
1
 62
256
176
0
 40
1.0
176
0
 90
2
176
1
  1
strokes_ogs.tif
176
1
290
0
176
1
 40
1.0
176
1
 40
1.0
176
1
  0
VISUALSTYLE
  5
6B
102
{ACAD_REACTORS
330
16
102
}
330
16
100
AcDbVisualStyle
  2
Realistic
 70
8
177
3
291
0
 70
58
 90
2
176
1
 90
2
176
1
 90
0
176
1
 90
2
176
1
 40
0.6
176
1
 40
30.0
176
1
 62
7
420
16777215
176
1
 90
1
176
1
 90
4
176
1
 62
7
176
1
 62
257
176
1
 90
1
176
1
 90
1
176
1
 40
1.0
176
1
 90
8
176
1
 62
7
176
1
 40
1.0
176
1
 90
1
176
1
 90
6
176
1
 90
2
176
1
 62
7
176
1
 90
5
176
1
 90
0
176
1
 90
0
176
1
290
0
176
1
 90
1
176
1
 40
0.0
176
1
 90
0
176
1
290
0
176
1
290
1
176
1
290
1
176
1
290
0
176
1
290
0
176
1
290
0
176
1
290
0
176
1
290
0
176
1
290
0
176
1
 90
50
176
1
 40
0.0
176
1
 40
1.0
176
1
 90
0
176
1
 62
18
420
0
176
1
 90
50
176
1
 90
3
176
1
 62
5
420
255
176
1
290
0
176
1
 90
50
176
1
 90
50
176
1
 90
50
176
1
290
0
176
1
 90
50
176
1
 62
256
176
0
 40
1.0
176
0
 90
2
176
1
  1
strokes_ogs.tif
176
1
290
0
176
1
 40
1.0
176
1
 40
1.0
176
1
  0
VISUALSTYLE
  5
6C
102
{ACAD_REACTORS
330
16
102
}
330
16
100
AcDbVisualStyle
  2
Shaded
 70
27
177
3
291
0
 70
58
 90
2
176
1
 90
2
176
1
 90
0
176
1
 90
2
176
1
 40
0.6
176
1
 40
30.0
176
1
 62
7
420
16777215
176
1
 90
1
176
1
 90
4
176
1
 62
7
176
1
 62
257
176
1
 90
1
176
1
 90
1
176
1
 40
1.0
176
1
 90
8
176
1
 62
7
176
1
 40
1.0
176
1
 90
1
176
1
 90
6
176
1
 90
2
176
1
 62
7
176
1
 90
5
176
1
 90
0
176
1
 90
0
176
1
290
0
176
1
 90
1
176
1
 40
0.0
176
1
 90
0
176
1
290
0
176
1
290
1
176
1
290
1
176
1
290
0
176
1
290
0
176
1
290
0
176
1
290
0
176
1
290
0
176
1
290
0
176
1
 90
50
176
1
 40
0.0
176
1
 40
1.0
176
1
 90
0
176
1
 62
18
420
0
176
1
 90
50
176
1
 90
3
176
1
 62
5
420
255
176
1
290
0
176
1
 90
50
176
1
 90
50
176
1
 90
50
176
1
290
0
176
1
 90
50
176
1
 62
256
176
0
 40
1.0
176
0
 90
2
176
1
  1
strokes_ogs.tif
176
1
290
0
176
1
 40
1.0
176
1
 40
1.0
176
1
  0
VISUALSTYLE
  5
6D
102
{ACAD_REACTORS
330
16
102
}
330
16
100
AcDbVisualStyle
  2
Shaded with edges
 70
26
177
3
291
0
 70
58
 90
2
176
1
 90
2
176
1
 90
0
176
1
 90
2
176
1
 40
0.6
176
1
 40
30.0
176
1
 62
7
420
16777215
176
1
 90
1
176
1
 90
4
176
1
 62
7
176
1
 62
257
176
1
 90
1
176
1
 90
1
176
1
 40
1.0
176
1
 90
8
176
1
 62
7
176
1
 40
1.0
176
1
 90
1
176
1
 90
6
176
1
 90
2
176
1
 62
7
176
1
 90
5
176
1
 90
0
176
1
 90
0
176
1
290
0
176
1
 90
1
176
1
 40
0.0
176
1
 90
0
176
1
290
0
176
1
290
1
176
1
290
1
176
1
290
0
176
1
290
0
176
1
290
0
176
1
290
0
176
1
290
0
176
1
290
0
176
1
 90
50
176
1
 40
0.0
176
1
 40
1.0
176
1
 90
0
176
1
 62
18
420
0
176
1
 90
50
176
1
 90
3
176
1
 62
5
420
255
176
1
290
0
176
1
 90
50
176
1
 90
50
176
1
 90
50
176
1
290
0
176
1
 90
50
176
1
 62
256
176
0
 40
1.0
176
0
 90
2
176
1
  1
strokes_ogs.tif
176
1
290
0
176
1
 40
1.0
176
1
 40
1.0
176
1
  0
VISUALSTYLE
  5
6E
102
{ACAD_REACTORS
330
16
102
}
330
16
100
AcDbVisualStyle
  2
Shades of Gray
 70
23
177
3
291
0
 70
58
 90
2
176
1
 90
2
176
1
 90
0
176
1
 90
2
176
1
 40
0.6
176
1
 40
30.0
176
1
 62
7
420
16777215
176
1
 90
1
176
1
 90
4
176
1
 62
7
176
1
 62
257
176
1
 90
1
176
1
 90
1
176
1
 40
1.0
176
1
 90
8
176
1
 62
7
176
1
 40
1.0
176
1
 90
1
176
1
 90
6
176
1
 90
2
176
1
 62
7
176
1
 90
5
176
1
 90
0
176
1
 90
0
176
1
290
0
176
1
 90
1
176
1
 40
0.0
176
1
 90
0
176
1
290
0
176
1
290
1
176
1
290
1
176
1
290
0
176
1
290
0
176
1
290
0
176
1
290
0
176
1
290
0
176
1
290
0
176
1
 90
50
176
1
 40
0.0
176
1
 40
1.0
176
1
 90
0
176
1
 62
18
420
0
176
1
 90
50
176
1
 90
3
176
1
 62
5
420
255
176
1
290
0
176
1
 90
50
176
1
 90
50
176
1
 90
50
176
1
290
0
176
1
 90
50
176
1
 62
256
176
0
 40
1.0
176
0
 90
2
176
1
  1
strokes_ogs.tif
176
1
290
0
176
1
 40
1.0
176
1
 40
1.0
176
1
  0
VISUALSTYLE
  5
6F
102
{ACAD_REACTORS
330
16
102
}
330
16
100
AcDbVisualStyle
  2
Sketchy
 70
24
177
3
291
0
 70
58
 90
2
176
1
 90
2
176
1
 90
0
176
1
 90
1
176
1
 40
0.6
176
1
 40
30.0
176
1
 62
7
420
16777215
176
1
 90
1
176
1
 90
4
176
1
 62
7
176
1
 62
257
176
1
 90
1
176
1
 90
1
176
1
 40
1.0
176
1
 90
8
176
1
 62
7
176
1
 40
1.0
176
1
 90
1
176
1
 90
6
176
1
 90
2
176
1
 62
7
176
1
 90
5
176
1
 90
0
176
1
 90
0
176
1
290
0
176
1
 90
1
176
1
 40
0.0
176
1
 90
0
176
1
290
0
176
1
290
1
176
1
290
1
176
1
290
0
176
1
290
0
176
1
290
0
176
1
290
0
176
1
290
0
176
1
290
0
176
1
 90
50
176
1
 40
0.0
176
1
 40
1.0
176
1
 90
0
176
1
 62
18
420
0
176
1
 90
50
176
1
 90
3
176
1
 62
5
420
255
176
1
290
0
176
1
 90
50
176
1
 90
50
176
1
 90
50
176
1
290
0
176
1
 90
50
176
1
 62
256
176
0
 40
1.0
176
0
 90
2
176
1
  1
strokes_ogs.tif
176
1
290
0
176
1
 40
1.0
176
1
 40
1.0
176
1
  0
VISUALSTYLE
  5
70
102
{ACAD_REACTORS
330
16
102
}
330
16
100
AcDbVisualStyle
  2
Thicken
 70
13
177
3
291
1
 70
58
 90
2
176
1
 90
2
176
1
 90
0
176
1
 90
2
176
1
 40
0.6
176
1
 40
30.0
176
1
 62
7
420
16777215
176
1
 90
1
176
1
 90
4
176
1
 62
7
176
1
 62
257
176
1
 90
1
176
1
 90
1
176
1
 40
1.0
176
1
 90
8
176
1
 62
7
176
1
 40
1.0
176
1
 90
1
176
1
 90
6
176
1
 90
2
176
1
 62
7
176
1
 90
5
176
1
 90
0
176
1
 90
0
176
1
290
0
176
1
 90
1
176
1
 40
0.0
176
1
 90
0
176
1
290
0
176
1
290
1
176
1
290
1
176
1
290
0
176
1
290
0
176
1
290
0
176
1
290
0
176
1
290
0
176
1
290
0
176
1
 90
50
176
1
 40
0.0
176
1
 40
1.0
176
1
 90
0
176
1
 62
18
420
0
176
1
 90
50
176
1
 90
3
176
1
 62
5
420
255
176
1
290
0
176
1
 90
50
176
1
 90
50
176
1
 90
50
176
1
290
0
176
1
 90
50
176
1
 62
256
176
0
 40
1.0
176
0
 90
2
176
1
  1
strokes_ogs.tif
176
1
290
0
176
1
 40
1.0
176
1
 40
1.0
176
1
  0
VISUALSTYLE
  5
71
102
{ACAD_REACTORS
330
16
102
}
330
16
100
AcDbVisualStyle
  2
Wireframe
 70
5
177
3
291
0
 70
58
 90
2
176
1
 90
2
176
1
 90
0
176
1
 90
0
176
1
 40
0.6
176
1
 40
30.0
176
1
 62
7
420
16777215
176
1
 90
1
176
1
 90
4
176
1
 62
7
176
1
 62
257
176
1
 90
1
176
1
 90
1
176
1
 40
1.0
176
1
 90
8
176
1
 62
7
176
1
 40
1.0
176
1
 90
1
176
1
 90
6
176
1
 90
2
176
1
 62
7
176
1
 90
5
176
1
 90
0
176
1
 90
0
176
1
290
0
176
1
 90
1
176
1
 40
0.0
176
1
 90
0
176
1
290
0
176
1
290
1
176
1
290
1
176
1
290
0
176
1
290
0
176
1
290
0
176
1
290
0
176
1
290
0
176
1
290
0
176
1
 90
50
176
1
 40
0.0
176
1
 40
1.0
176
1
 90
0
176
1
 62
18
420
0
176
1
 90
50
176
1
 90
3
176
1
 62
5
420
255
176
1
290
0
176
1
 90
50
176
1
 90
50
176
1
 90
50
176
1
290
0
176
1
 90
50
176
1
 62
256
176
0
 40
1.0
176
0
 90
2
176
1
  1
strokes_ogs.tif
176
1
290
0
176
1
 40
1.0
176
1
 40
1.0
176
1
  0
VISUALSTYLE
  5
72
102
{ACAD_REACTORS
330
16
102
}
330
16
100
AcDbVisualStyle
  2
X-Ray
 70
25
177
3
291
0
 70
58
 90
2
176
1
 90
2
176
1
 90
0
176
1
 90
2
176
1
 40
0.5
176
1
 40
30.0
176
1
 62
7
420
16777215
176
1
 90
1
176
1
 90
4
176
1
 62
7
176
1
 62
257
176
1
 90
1
176
1
 90
1
176
1
 40
1.0
176
1
 90
8
176
1
 62
7
176
1
 40
1.0
176
1
 90
1
176
1
 90
6
176
1
 90
2
176
1
 62
7
176
1
 90
5
176
1
 90
0
176
1
 90
0
176
1
290
0
176
1
 90
1
176
1
 40
0.0
176
1
 90
0
176
1
290
0
176
1
290
1
176
1
290
1
176
1
290
0
176
1
290
0
176
1
290
0
176
1
290
0
176
1
290
0
176
1
290
0
176
1
 90
50
176
1
 40
0.0
176
1
 40
1.0
176
1
 90
0
176
1
 62
18
420
0
176
1
 90
50
176
1
 90
3
176
1
 62
5
420
255
176
1
290
0
176
1
 90
50
176
1
 90
50
176
1
 90
50
176
1
290
0
176
1
 90
50
176
1
 62
256
176
0
 40
1.0
176
0
 90
2
176
1
  1
strokes_ogs.tif
176
1
290
0
176
1
 40
1.0
176
1
 40
1.0
176
1
  0
LAYOUT
  5
4B4
330
D
100
AcDbPlotSettings
  1

  2
DWG to PDF.pc3
  4
ezdxf_(594.00_x_420.00_MM)
  6

 40
0.0
 41
0.0
 42
0.0
 43
0.0
 44
594.0
 45
420.0
 46
0.0
 47
0.0
 48
0.0
 49
0.0
140
0.0
141
0.0
142
1.0
143
1.0
 70
672
 72
1
 73
0
 74
5
  7

 75
16
 76
0
 77
2
 78
300
147
1.0
148
0.0
149
0.0
100
AcDbLayout
  1
A2 1-100
 70
1
 71
3
 10
-0.0
 20
-0.0
 11
594.0
 21
420.0
 12
0.0
 22
0.0
 32
0.0
 14
1e+20
 24
1e+20
 34
1e+20
 15
-1e+20
 25
-1e+20
 35
-1e+20
146
0.0
 13
0.0
 23
0.0
 33
0.0
 16
1.0
 26
0.0
 36
0.0
 17
0.0
 27
1.0
 37
0.0
 76
1
330
4B1
331
4B5
  0
DICTIONARYVAR
  5
4B9
330
2D
100
DictionaryVariables
280
0
  1
1.4.4 @ 2026-10-04T20:59:26.886436+00:00
  0
ENDSEC
  0
EOF
